<svg width="20" height="20" viewBox="0 0 20 20" fill="none" xmlns="http://www.w3.org/2000/svg">
    <g clip-path="url(#clip0)">
        <path d="M19.5833 1.66669H5.41668C5.18668 1.66669 5 1.85337 5 2.08337C5 2.31337 5.18668 2.50001 5.41668 2.50001H19.5834C19.8133 2.50001 20 2.31333 20 2.08333C20 1.85333 19.8133 1.66669 19.5833 1.66669Z" fill="currentColor"/>
        <path d="M13.75 4.16669H5.41668C5.18668 4.16669 5 4.35337 5 4.58337C5 4.81337 5.18668 5.00001 5.41668 5.00001H13.75C13.98 5.00001 14.1667 4.81333 14.1667 4.58333C14.1667 4.35333 13.98 4.16669 13.75 4.16669Z" fill="currentColor"/>
        <path d="M19.5833 8.33331H5.41668C5.18668 8.33331 5 8.51999 5 8.74999C5 8.97999 5.18668 9.16667 5.41668 9.16667H19.5834C19.8134 9.16667 20 8.97999 20 8.74999C20 8.51999 19.8133 8.33331 19.5833 8.33331Z" fill="currentColor"/>
        <path d="M13.75 10.8333H5.41668C5.18668 10.8333 5 11.02 5 11.25C5 11.48 5.18668 11.6667 5.41668 11.6667H13.75C13.98 11.6667 14.1667 11.48 14.1667 11.25C14.1667 11.02 13.98 10.8333 13.75 10.8333Z" fill="currentColor"/>
        <path d="M19.5833 15H5.41668C5.18668 15 5 15.1867 5 15.4167C5 15.6467 5.18668 15.8334 5.41668 15.8334H19.5834C19.8134 15.8334 20 15.6467 20 15.4167C20 15.1867 19.8133 15 19.5833 15Z" fill="currentColor"/>
        <path d="M13.75 17.5H5.41668C5.18668 17.5 5 17.6867 5 17.9167C5 18.1467 5.18668 18.3334 5.41668 18.3334H13.75C13.98 18.3334 14.1667 18.1467 14.1667 17.9167C14.1667 17.6867 13.98 17.5 13.75 17.5Z" fill="currentColor"/>
        <path d="M1.66668 1.66669C0.7475 1.66669 0 2.41419 0 3.33333C0 4.25251 0.7475 5.00001 1.66668 5.00001C2.58586 5.00001 3.33336 4.25251 3.33336 3.33333C3.33332 2.41419 2.58582 1.66669 1.66668 1.66669ZM1.66668 4.16669C1.20668 4.16669 0.833359 3.79251 0.833359 3.33337C0.83332 2.87419 1.20668 2.50001 1.66668 2.50001C2.12668 2.50001 2.5 2.87419 2.5 3.33333C2.5 3.79251 2.12668 4.16669 1.66668 4.16669Z" fill="currentColor"/>
        <path d="M1.66668 8.33331C0.7475 8.33331 0 9.08081 0 9.99999C0 10.9192 0.7475 11.6667 1.66668 11.6667C2.58586 11.6667 3.33336 10.9192 3.33336 9.99999C3.33336 9.08081 2.58582 8.33331 1.66668 8.33331ZM1.66668 10.8333C1.20668 10.8333 0.833359 10.4591 0.833359 9.99999C0.833359 9.54081 1.20668 9.16667 1.66668 9.16667C2.12668 9.16667 2.5 9.54081 2.5 9.99999C2.5 10.4592 2.12668 10.8333 1.66668 10.8333Z" fill="currentColor"/>
        <path d="M1.66668 15C0.7475 15 0 15.7475 0 16.6667C0 17.5859 0.7475 18.3334 1.66668 18.3334C2.58586 18.3334 3.33336 17.5859 3.33336 16.6667C3.33336 15.7475 2.58582 15 1.66668 15ZM1.66668 17.5C1.20668 17.5 0.833359 17.1258 0.833359 16.6667C0.833359 16.2075 1.20668 15.8334 1.66668 15.8334C2.12668 15.8334 2.5 16.2075 2.5 16.6667C2.5 17.1259 2.12668 17.5 1.66668 17.5Z" fill="currentColor"/>
    </g>
    <defs>
        <clipPath id="clip0">
            <rect width="20" height="20" fill="white"/>
        </clipPath>
    </defs>
</svg>
