<svg width="20" height="20" viewBox="0 0 20 20" fill="none" xmlns="http://www.w3.org/2000/svg">
    <g clip-path="url(#clip0)">
        <path d="M17.7725 1.68186C17.6322 1.5417 17.4049 1.54159 17.2646 1.68186L13.5408 5.40553C13.4005 5.54581 13.4005 5.77315 13.5407 5.91346C13.6109 5.98358 13.7028 6.01862 13.7947 6.01862C13.8866 6.01862 13.9786 5.98358 14.0487 5.91346L17.7725 2.18979C17.9127 2.04948 17.9127 1.82209 17.7725 1.68186Z"
              fill="currentColor"/>
        <path d="M18.7851 2.67856C18.6448 2.53837 18.4175 2.53837 18.2772 2.67856L14.5535 6.40231C14.4132 6.54262 14.4132 6.76996 14.5534 6.91023C14.6236 6.98035 14.7156 7.01539 14.8074 7.01539C14.8993 7.01539 14.9913 6.98035 15.0614 6.91023L18.7851 3.18645C18.9254 3.04618 18.9254 2.8188 18.7851 2.67856Z"
              fill="currentColor"/>
        <path d="M15.2723 8.9667L19.8948 4.34413C20.0351 4.20381 20.0351 3.97647 19.8948 3.8362C19.7545 3.69604 19.5272 3.69592 19.3869 3.8362L14.7644 8.45877C14.1949 9.02823 13.3241 9.17764 12.5976 8.83069C12.4531 8.7617 12.2805 8.79659 12.1742 8.91635L10.6036 10.686C10.6029 10.6867 10.6022 10.6873 10.6016 10.688C10.601 10.6887 10.6005 10.6894 10.5999 10.6901L3.81125 18.3384C3.80954 18.3404 3.80782 18.3424 3.80614 18.3444C3.78375 18.3707 3.76262 18.3937 3.74122 18.4152C3.29297 18.8634 2.56368 18.8633 2.11563 18.4152C1.89852 18.1981 1.77895 17.9094 1.77895 17.6024C1.77895 17.2953 1.89852 17.0067 2.11602 16.7892C2.13688 16.7682 2.15993 16.7471 2.18645 16.7246C2.18848 16.7229 2.19043 16.7212 2.19239 16.7194L6.43645 12.9525C6.58481 12.8208 6.59829 12.5938 6.46665 12.4455C6.33497 12.2971 6.10793 12.2835 5.95965 12.4153L1.7184 16.1798C1.67786 16.2143 1.64157 16.2478 1.60774 16.2817C1.25497 16.6344 1.06067 17.1035 1.06067 17.6024C1.06067 18.1012 1.25493 18.5703 1.6077 18.9231C1.97188 19.2872 2.45012 19.4692 2.92848 19.4692C3.40665 19.4692 3.885 19.2872 4.24891 18.9233C4.2834 18.8889 4.3168 18.8525 4.3511 18.8124L9.52422 12.984L14.6974 18.8124C14.7317 18.8526 14.7651 18.889 14.7993 18.9232C15.1634 19.2873 15.6417 19.4693 16.12 19.4693C16.5983 19.4693 17.0766 19.2872 17.4408 18.9231C18.1689 18.1949 18.1689 17.01 17.441 16.282C17.4066 16.2475 17.3702 16.2141 17.3301 16.1798L11.3773 10.8962L12.542 9.58405C13.4856 9.91838 14.5534 9.68549 15.2723 8.9667ZM16.8561 16.7195C16.858 16.7212 16.86 16.7229 16.862 16.7246C16.8883 16.747 16.9114 16.7681 16.9328 16.7895C17.381 17.2377 17.381 17.967 16.9329 18.4151C16.4846 18.8633 15.7554 18.8633 15.307 18.4149C15.2858 18.3937 15.2646 18.3706 15.2422 18.3443C15.2405 18.3423 15.2388 18.3403 15.2371 18.3383L10.0044 12.443L10.9004 11.4334L16.8561 16.7195Z"
              fill="currentColor"/>
        <path d="M16.6945 0.635866C16.5542 0.495671 16.3268 0.495671 16.1866 0.635866L11.5641 5.25848C10.8451 5.97739 10.6123 7.04501 10.9466 7.98883L9.52414 9.25141L8.15703 8.03798C8.86402 6.64688 8.60593 4.95786 7.48429 3.83618C6.37031 2.72219 5.08 1.93825 3.85105 1.62883C2.56812 1.30591 1.4682 1.52149 0.75359 2.23606C0.0389802 2.95063 -0.176645 4.05071 0.146363 5.33356C0.455816 6.56243 1.23972 7.85274 2.35379 8.96669C3.47543 10.0884 5.16441 10.3465 6.55558 9.63946C6.55558 9.63946 7.8925 11.1456 7.90945 11.1648C7.98043 11.2447 8.07906 11.2855 8.1782 11.2855C8.263 11.2855 8.34808 11.2556 8.41648 11.1949L11.6144 8.35649C11.7341 8.2502 11.769 8.07755 11.7 7.93309C11.353 7.20649 11.5025 6.33579 12.0719 5.76637L16.6945 1.1438C16.8348 1.00348 16.8348 0.77614 16.6945 0.635866ZM8.20824 10.4194L6.90089 8.94653C6.78511 8.8161 6.59222 8.78758 6.44379 8.87926C5.2923 9.5893 3.81925 9.41653 2.8616 8.45883C1.838 7.43528 1.12109 6.26313 0.842848 5.15817C0.584058 4.13016 0.73273 3.27274 1.26152 2.74399C1.79023 2.21516 2.64765 2.06657 3.67562 2.3254C4.78058 2.6036 5.95281 3.32048 6.97632 4.34407C7.93398 5.30169 8.10679 6.77473 7.39672 7.92622C7.30515 8.07469 7.33355 8.26751 7.46398 8.38333L8.98304 9.73161L8.20824 10.4194Z"
              fill="currentColor"/>
    </g>
    <defs>
        <clipPath id="clip0">
            <rect width="20" height="20" fill="white"/>
        </clipPath>
    </defs>
</svg>
