<svg width="25" height="24" viewBox="0 0 25 24" fill="none" xmlns="http://www.w3.org/2000/svg">
    <path d="M14.8537 8L12.2169 10.59L9.58006 8L8.14458 9.41L10.7814 12L8.14458 14.59L9.58006 16L12.2169 13.41L14.8537 16L16.2892 14.59L13.6523 12L16.2892 9.41L14.8537 8ZM12.2169 2C6.58693 2 2.03614 6.47 2.03614 12C2.03614 17.53 6.58693 22 12.2169 22C17.8468 22 22.3976 17.53 22.3976 12C22.3976 6.47 17.8468 2 12.2169 2ZM12.2169 20C7.72717 20 4.07229 16.41 4.07229 12C4.07229 7.59 7.72717 4 12.2169 4C16.7066 4 20.3614 7.59 20.3614 12C20.3614 16.41 16.7066 20 12.2169 20Z" fill="currentColor"/>
</svg>
