<svg width="16" height="16" viewBox="0 0 16 16" fill="none" xmlns="http://www.w3.org/2000/svg">
    <path d="M7.33334 12H8.66668V10.6667H7.33334V12ZM8.00001 1.33334C4.32001 1.33334 1.33334 4.32001 1.33334 8.00001C1.33334 11.68 4.32001 14.6667 8.00001 14.6667C11.68 14.6667 14.6667 11.68 14.6667 8.00001C14.6667 4.32001 11.68 1.33334 8.00001 1.33334ZM8.00001 13.3333C5.06001 13.3333 2.66668 10.94 2.66668 8.00001C2.66668 5.06001 5.06001 2.66668 8.00001 2.66668C10.94 2.66668 13.3333 5.06001 13.3333 8.00001C13.3333 10.94 10.94 13.3333 8.00001 13.3333ZM8.00001 4.00001C6.52668 4.00001 5.33334 5.19334 5.33334 6.66668H6.66668C6.66668 5.93334 7.26668 5.33334 8.00001 5.33334C8.73334 5.33334 9.33334 5.93334 9.33334 6.66668C9.33334 8.00001 7.33334 7.83334 7.33334 10H8.66668C8.66668 8.50001 10.6667 8.33334 10.6667 6.66668C10.6667 5.19334 9.47334 4.00001 8.00001 4.00001Z" fill="currentColor"/>
</svg>
