<svg width="24" height="24" viewBox="0 0 24 24" fill="none" xmlns="http://www.w3.org/2000/svg">
    <path d="M14.8537 8L12.2169 10.59L9.58005 8L8.14457 9.41L10.7814 12L8.14457 14.59L9.58005 16L12.2169 13.41L14.8537 16L16.2891 14.59L13.6523 12L16.2891 9.41L14.8537 8ZM12.2169 2C6.58692 2 2.03613 6.47 2.03613 12C2.03613 17.53 6.58692 22 12.2169 22C17.8468 22 22.3976 17.53 22.3976 12C22.3976 6.47 17.8468 2 12.2169 2ZM12.2169 20C7.72716 20 4.07228 16.41 4.07228 12C4.07228 7.59 7.72716 4 12.2169 4C16.7066 4 20.3614 7.59 20.3614 12C20.3614 16.41 16.7066 20 12.2169 20Z" fill="currentColor"/>
</svg>
