<svg width="20" height="20" viewBox="0 0 20 20" fill="none" xmlns="http://www.w3.org/2000/svg">
    <g clip-path="url(#clip0)">
        <path d="M9.99999 7.62939e-06C6.20922 7.62939e-06 3.12518 3.08404 3.12518 6.87482V6.90092C3.12518 8.25977 3.48961 9.59693 4.17905 10.7679L9.44468 19.7108C9.54985 19.8894 9.74132 19.9993 9.94856 20H9.9506C10.157 20 10.3484 19.8916 10.4544 19.7143L15.7941 10.787C16.5011 9.60495 16.8748 8.25218 16.8748 6.87482C16.8748 3.08404 13.7908 7.62939e-06 9.99999 7.62939e-06V7.62939e-06ZM14.7864 10.1843L9.95459 18.2626L5.19093 10.1721C4.60771 9.18158 4.29941 8.05041 4.29941 6.90092V6.87482C4.29937 3.73149 6.85666 1.17419 10 1.17419C13.1434 1.17419 15.7006 3.73149 15.7006 6.87482C15.7006 8.03996 15.3845 9.18432 14.7864 10.1843Z" fill="currentColor"/>
        <path d="M8.03671 3.47247C7.48688 3.47247 6.96057 3.75685 6.59266 4.25271C6.25833 4.70332 6.07422 5.29308 6.07422 5.91336C6.07422 6.53364 6.25833 7.12344 6.59266 7.57401C6.82601 7.88853 7.12323 8.11758 7.44962 8.24333V11.6418C7.44962 11.966 7.71248 12.2289 8.03671 12.2289C8.36094 12.2289 8.6238 11.966 8.6238 11.6418V8.24333C8.95018 8.11758 9.24741 7.88853 9.48076 7.57401C9.81509 7.1234 9.9992 6.53364 9.9992 5.91336C9.9992 5.29308 9.81509 4.70328 9.48076 4.25271C9.11285 3.75685 8.58654 3.47247 8.03671 3.47247ZM8.03671 7.18007C7.61678 7.18007 7.2484 6.58812 7.2484 5.91336C7.2484 5.2386 7.61678 4.64665 8.03671 4.64665C8.45663 4.64665 8.82501 5.2386 8.82501 5.91336C8.82501 6.58812 8.45667 7.18007 8.03671 7.18007Z" fill="currentColor"/>
        <path d="M11.6817 3.46452C11.5094 3.4305 11.3309 3.47544 11.1953 3.58695C11.0596 3.69845 10.981 3.86487 10.981 4.04049V11.5856C10.981 11.9098 11.2438 12.1727 11.568 12.1727C11.8923 12.1727 12.1551 11.9098 12.1551 11.5856V9.16307L12.9843 9.16045C13.2406 9.15962 13.4801 9.0579 13.6588 8.87395C13.8375 8.68987 13.9323 8.44721 13.9255 8.19069C13.8162 4.00601 11.8999 3.50757 11.6817 3.46452ZM12.1551 7.98888V5.36713C12.4252 5.86342 12.6838 6.67454 12.7434 7.98701L12.1551 7.98888Z" fill="currentColor"/>
    </g>
    <defs>
        <clipPath id="clip0">
            <rect width="20" height="20" fill="white"/>
        </clipPath>
    </defs>
</svg>
