<svg width="45" height="45" viewBox="0 0 45 45" fill="none" xmlns="http://www.w3.org/2000/svg">
    <path d="M37.5 3.75H15C12.9375 3.75 11.25 5.4375 11.25 7.5V30C11.25 32.0625 12.9375 33.75 15 33.75H37.5C39.5625 33.75 41.25 32.0625 41.25 30V7.5C41.25 5.4375 39.5625 3.75 37.5 3.75ZM37.5 30H15V7.5H37.5V30ZM7.5 11.25H3.75V37.5C3.75 39.5625 5.4375 41.25 7.5 41.25H33.75V37.5H7.5V11.25ZM30 22.5V16.875C30 15.8438 29.1562 15 28.125 15H24.375V24.375H28.125C29.1562 24.375 30 23.5313 30 22.5ZM26.25 16.875H28.125V22.5H26.25V16.875ZM33.75 20.625H35.625V18.75H33.75V16.875H35.625V15H31.875V24.375H33.75V20.625ZM18.75 20.625H20.625C21.6562 20.625 22.5 19.7813 22.5 18.75V16.875C22.5 15.8438 21.6562 15 20.625 15H16.875V24.375H18.75V20.625ZM18.75 16.875H20.625V18.75H18.75V16.875Z" fill="currentColor"/>
</svg>
