<svg width="20" height="20" viewBox="0 0 20 20" fill="none" xmlns="http://www.w3.org/2000/svg">
    <g clip-path="url(#clip0)">
        <path d="M9.16668 10.2742V1.24999C9.16668 1.01999 8.98 0.833313 8.75 0.833313C3.925 0.833313 0 5.13249 0 10.4166C0 15.7008 4.29918 20 9.58332 20C11.9475 20 13.2266 19.5717 14.8483 18.2383C15.0225 18.095 15.0508 17.8391 14.9125 17.6608L9.16668 10.2742ZM9.58332 19.1667C4.75832 19.1667 0.83332 15.2417 0.83332 10.4167C0.83332 5.74667 4.16082 1.91917 8.33332 1.67835V10.4167C8.33332 10.5092 8.36414 10.5992 8.42164 10.6725L14.0016 17.8467C12.6858 18.8517 11.5883 19.1667 9.58332 19.1667Z" fill="currentColor"/>
        <path d="M10.4167 10H19.5834C19.8134 10 20 9.81332 20 9.58332C20 4.29918 15.7008 0 10.4167 0C10.1867 0 10 0.18668 10 0.41668V9.58336C10 9.81332 10.1867 10 10.4167 10ZM10.8333 0.84332C15.3275 1.055 18.945 4.6725 19.1566 9.16664H10.8333V0.84332Z" fill="currentColor"/>
        <path d="M19.5834 10.8333H11.25C11.09 10.8333 10.9425 10.9258 10.8733 11.0708C10.8042 11.2158 10.825 11.3875 10.9258 11.5116L16.3425 18.2175C16.415 18.3083 16.5217 18.3633 16.6375 18.3716C16.6475 18.3725 16.6567 18.3725 16.6667 18.3725C16.7717 18.3725 16.8734 18.3325 16.9509 18.2608C18.8884 16.4533 20 13.8983 20 11.25C20 11.02 19.8134 10.8333 19.5834 10.8333ZM16.7025 17.3367L12.1225 11.6667H19.1567C19.0542 13.785 18.1775 15.8108 16.7025 17.3367Z" fill="currentColor"/>
    </g>
    <defs>
        <clipPath id="clip0">
            <rect width="20" height="20" fill="white"/>
        </clipPath>
    </defs>
</svg>
