<svg xmlns="http://www.w3.org/2000/svg" width="20" height="20"><path d="M8.25 5.75v2.5h-2.5v-2.5zM9.5 4.5h-5v5h5zm-1.25 7.916v2.5h-2.5v-2.5zm1.25-1.25h-5v5h5zm5.417-5.417v2.5h-2.5v-2.5zm1.25-1.25h-5v5h5zm-5 6.667h1.25v1.25h-1.25zm1.25 1.25h1.25v1.25h-1.25zm1.25-1.25h1.25v1.25h-1.25zm-2.5 2.5h1.25v1.25h-1.25zm1.25 1.25h1.25v1.25h-1.25zm1.25-1.25h1.25v1.25h-1.25zm1.25-1.25h1.25v1.25h-1.25zm0 2.5h1.25v1.25h-1.25zm3.75-8.75H17v-2.5h-2.5V2h4.167zm0 12.5V14.5H17V17h-2.5v1.667zM2 18.666h4.167V17h-2.5v-2.5H2zM2 2v4.166h1.667v-2.5h2.5V2z" fill="currentColor"/><path fill="none" d="M0 0h20v20H0z"/></svg>
