<svg width="20" height="20" viewBox="0 0 20 20" fill="none" xmlns="http://www.w3.org/2000/svg">
    <path d="M18.9172 13.3347C18.8239 11.0934 17.9073 8.99979 16.3115 7.40402C14.7646 5.85709 12.7496 4.94843 10.5859 4.80911V4.10156H11.582V2.92969H8.41797V4.10156H9.41406V4.80911C7.25037 4.94843 5.23544 5.85709 3.68851 7.40402C2.09274 8.99979 1.17615 11.0934 1.08276 13.3347H0V14.668C0 15.9711 1.06018 17.0312 2.36328 17.0312H17.6367C18.9398 17.0312 20 15.9711 20 14.668V13.3347H18.9172ZM10 5.96161C14.1478 5.96161 17.5452 9.23538 17.7444 13.3347H2.25555C2.45483 9.23538 5.8522 5.96161 10 5.96161ZM18.8281 14.668C18.8281 15.3249 18.2936 15.8594 17.6367 15.8594H2.36328C1.70639 15.8594 1.17188 15.3249 1.17188 14.668V14.5065H18.8281V14.668Z" fill="currentColor"/>
    <path d="M3.34576 12.26L4.50543 12.4289C4.50772 12.4141 4.73844 10.9348 5.68632 10.1016L4.91254 9.22134C3.63553 10.3439 3.35706 12.1822 3.34576 12.26Z" fill="currentColor"/>
</svg>
