<svg width="20" height="20" viewBox="0 0 20 20" fill="none" xmlns="http://www.w3.org/2000/svg">
    <g clip-path="url(#clip0)">
        <path d="M10 3.33325V0.833252L6.66667 4.16658L10 7.49992V4.99992C12.7583 4.99992 15 7.24158 15 9.99992C15 10.8416 14.7917 11.6416 14.4167 12.3333L15.6333 13.5499C16.2833 12.5249 16.6667 11.3083 16.6667 9.99992C16.6667 6.31658 13.6833 3.33325 10 3.33325ZM10 14.9999C7.24167 14.9999 5 12.7583 5 9.99992C5 9.15825 5.20833 8.35825 5.58333 7.66658L4.36667 6.44992C3.71667 7.47492 3.33333 8.69158 3.33333 9.99992C3.33333 13.6833 6.31667 16.6666 10 16.6666V19.1666L13.3333 15.8333L10 12.4999V14.9999Z" fill="currentColor"/>
    </g>
    <defs>
        <clipPath id="clip0">
            <rect width="20" height="20" fill="white"/>
        </clipPath>
    </defs>
</svg>
