<svg width="20" height="20" viewBox="0 0 20 20" fill="none" xmlns="http://www.w3.org/2000/svg">
    <g clip-path="url(#clip0)">
        <path d="M6.10249 8.75H4.01916C3.67416 8.75 3.39417 8.47 3.39417 8.125C3.39417 7.78 3.67416 7.5 4.01916 7.5H6.10249C6.44749 7.5 6.72749 7.78 6.72749 8.125C6.72749 8.47 6.44749 8.75 6.10249 8.75Z" fill="currentColor"/>
        <path d="M16.1025 8.75H9.85248C9.50748 8.75 9.22748 8.47 9.22748 8.125C9.22748 7.78 9.50748 7.5 9.85248 7.5H16.1025C16.4475 7.5 16.7275 7.78 16.7275 8.125C16.7275 8.47 16.4475 8.75 16.1025 8.75Z" fill="currentColor"/>
        <path d="M6.10249 12.0833H4.01916C3.67416 12.0833 3.39417 11.8033 3.39417 11.4583C3.39417 11.1133 3.67416 10.8333 4.01916 10.8333H6.10249C6.44749 10.8333 6.72749 11.1133 6.72749 11.4583C6.72749 11.8033 6.44749 12.0833 6.10249 12.0833Z" fill="currentColor"/>
        <path d="M16.1025 12.0833H9.85248C9.50748 12.0833 9.22748 11.8033 9.22748 11.4583C9.22748 11.1133 9.50748 10.8333 9.85248 10.8333H16.1025C16.4475 10.8333 16.7275 11.1133 16.7275 11.4583C16.7275 11.8033 16.4475 12.0833 16.1025 12.0833Z" fill="currentColor"/>
        <path d="M6.10249 15.4167H4.01916C3.67416 15.4167 3.39417 15.1367 3.39417 14.7917C3.39417 14.4467 3.67416 14.1667 4.01916 14.1667H6.10249C6.44749 14.1667 6.72749 14.4467 6.72749 14.7917C6.72749 15.1367 6.44749 15.4167 6.10249 15.4167Z" fill="currentColor"/>
        <path d="M16.1025 15.4167H9.85248C9.50748 15.4167 9.22748 15.1367 9.22748 14.7917C9.22748 14.4467 9.50748 14.1667 9.85248 14.1667H16.1025C16.4475 14.1667 16.7275 14.4467 16.7275 14.7917C16.7275 15.1367 16.4475 15.4167 16.1025 15.4167Z" fill="currentColor"/>
        <path d="M17.7083 19.1667H2.29167C1.0275 19.1667 0 18.1392 0 16.875V3.12501C0 1.86084 1.0275 0.833344 2.29167 0.833344H17.7083C18.9725 0.833344 20 1.86084 20 3.12501V16.875C20 18.1392 18.9725 19.1667 17.7083 19.1667ZM2.29167 2.08334C1.7175 2.08334 1.25 2.55084 1.25 3.12501V16.875C1.25 17.4492 1.7175 17.9167 2.29167 17.9167H17.7083C18.2825 17.9167 18.75 17.4492 18.75 16.875V3.12501C18.75 2.55084 18.2825 2.08334 17.7083 2.08334H2.29167Z" fill="currentColor"/>
        <path d="M19.375 5H0.625C0.28 5 0 4.72 0 4.375C0 4.03 0.28 3.75 0.625 3.75H19.375C19.72 3.75 20 4.03 20 4.375C20 4.72 19.72 5 19.375 5Z" fill="currentColor"/>
    </g>
    <defs>
        <clipPath id="clip0">
            <rect width="20" height="20" fill="white"/>
        </clipPath>
    </defs>
</svg>
