<svg width="60" height="60" viewBox="0 0 60 60" fill="none" xmlns="http://www.w3.org/2000/svg">
<g clip-path="url(#clip0)">
<path d="M51.2128 8.78719C39.4965 -2.9291 20.5009 -2.9291 8.78707 8.78742C-2.9291 20.5036 -2.9291 39.4991 8.78754 51.2129C20.5009 62.9291 39.4965 62.9291 51.2128 51.2127C62.9291 39.4991 62.9291 20.5036 51.2128 8.78719ZM47.6775 47.677C37.9137 57.4409 22.0842 57.4409 12.3231 47.6775C2.55926 37.9159 2.55926 22.0864 12.3229 12.3229C22.0842 2.55914 37.9137 2.55914 47.6773 12.3229C57.4409 22.0866 57.4409 37.9159 47.6775 47.677Z" fill="currentColor"/>
<path d="M42.374 17.626C41.3977 16.6497 39.8148 16.6497 38.8385 17.626L29.9996 26.4648L21.1607 17.626C20.1845 16.6497 18.6015 16.6497 17.6252 17.626C16.6489 18.6022 16.6489 20.1852 17.6252 21.1615L26.4641 30.0004L17.6285 38.8359C16.6522 39.8122 16.6522 41.3952 17.6285 42.3715C18.6048 43.3478 20.1877 43.3478 21.164 42.3715L29.9996 33.5359L38.8378 42.3741C39.8141 43.3504 41.397 43.3504 42.3733 42.3741C43.3496 41.3978 43.3496 39.8148 42.3733 38.8385L33.5352 30.0004L42.374 21.1615C43.3503 20.1852 43.3503 18.6024 42.374 17.626Z" fill="currentColor"/>
</g>
<defs>
<clipPath id="clip0">
<rect width="60" height="60" fill="white"/>
</clipPath>
</defs>
</svg>
