<svg width="194" height="36" viewBox="0 0 194 36" fill="none" xmlns="http://www.w3.org/2000/svg">
<path d="M19.0684 5.01172C18.6934 4.32031 18.3184 3.75195 17.9434 3.30664C17.5684 2.84961 17.1934 2.49219 16.8184 2.23438C16.4434 1.96484 16.0625 1.77734 15.6758 1.67188C15.2891 1.56641 14.8965 1.51367 14.498 1.51367C13.9355 1.51367 13.3848 1.61328 12.8457 1.8125C12.3066 2 11.8262 2.28711 11.4043 2.67383C10.9824 3.06055 10.6426 3.54102 10.3848 4.11523C10.127 4.68945 9.99805 5.35156 9.99805 6.10156C9.99805 6.73438 10.1621 7.37305 10.4902 8.01758C10.8184 8.66211 11.2227 9.32422 11.7031 10.0039C12.1953 10.6719 12.7285 11.3574 13.3027 12.0605C13.877 12.7637 14.4043 13.4902 14.8848 14.2402C15.377 14.9902 15.7871 15.7695 16.1152 16.5781C16.4434 17.375 16.6074 18.2012 16.6074 19.0566C16.6074 20.1465 16.3379 21.1426 15.7988 22.0449C15.2715 22.9355 14.5625 23.6973 13.6719 24.3301C12.793 24.9629 11.7793 25.4551 10.6309 25.8066C9.48242 26.1465 8.29297 26.3164 7.0625 26.3164C6.125 26.3164 5.25781 26.2109 4.46094 26C3.67578 25.7891 2.99609 25.4785 2.42188 25.0684C1.84766 24.6465 1.40234 24.1367 1.08594 23.5391C0.757812 22.9297 0.59375 22.2266 0.59375 21.4297C0.59375 20.8672 0.664062 20.3105 0.804688 19.7598C0.945312 19.209 1.17383 18.6641 1.49023 18.125C1.80664 17.5859 2.22266 17.0469 2.73828 16.5078C3.25391 15.9688 3.88086 15.4355 4.61914 14.9082L6.00781 16.5605C5.45703 16.8418 4.92969 17.1582 4.42578 17.5098C3.92188 17.8496 3.47656 18.2363 3.08984 18.6699C2.70312 19.1035 2.39258 19.584 2.1582 20.1113C1.93555 20.627 1.82422 21.2012 1.82422 21.834C1.82422 22.2793 1.92383 22.7129 2.12305 23.1348C2.32227 23.5566 2.63867 23.9375 3.07227 24.2773C3.50586 24.6055 4.0625 24.875 4.74219 25.0859C5.42188 25.2852 6.23633 25.3848 7.18555 25.3848C8.05273 25.3848 8.9082 25.2617 9.75195 25.0156C10.6074 24.7695 11.3691 24.4062 12.0371 23.9258C12.7051 23.4453 13.2441 22.8418 13.6543 22.1152C14.0762 21.3887 14.2871 20.5391 14.2871 19.5664C14.2871 18.9336 14.1289 18.2832 13.8125 17.6152C13.5078 16.9473 13.1152 16.2676 12.6348 15.5762C12.166 14.8848 11.6562 14.1816 11.1055 13.4668C10.5664 12.752 10.0566 12.0312 9.57617 11.3047C9.10742 10.5664 8.71484 9.82812 8.39844 9.08984C8.09375 8.33984 7.94141 7.58398 7.94141 6.82227C7.94141 5.69727 8.16406 4.75391 8.60938 3.99219C9.05469 3.21875 9.62891 2.59766 10.332 2.12891C11.0352 1.64844 11.8086 1.30859 12.6523 1.10938C13.5078 0.898438 14.3398 0.792969 15.1484 0.792969C15.8984 0.792969 16.5605 0.880859 17.1348 1.05664C17.7207 1.2207 18.2363 1.4375 18.6816 1.70703C19.1387 1.97656 19.5371 2.28711 19.877 2.63867C20.2168 2.97852 20.5215 3.32422 20.791 3.67578L19.0684 5.01172ZM31.25 19.6367C30.875 20.1172 30.5234 20.5215 30.1953 20.8496C29.8672 21.1777 29.5449 21.4473 29.2285 21.6582C28.9121 21.8691 28.6016 22.0273 28.2969 22.1328C28.0039 22.2383 27.7051 22.3086 27.4004 22.3438C27.0488 22.8594 26.6562 23.3457 26.2227 23.8027C25.8008 24.248 25.3496 24.6406 24.8691 24.9805C24.4004 25.3086 23.9023 25.5723 23.375 25.7715C22.8477 25.959 22.3145 26.0527 21.7754 26.0527C21.3418 26.0527 20.9199 25.9824 20.5098 25.8418C20.0996 25.6895 19.7363 25.4668 19.4199 25.1738C19.0918 24.8691 18.834 24.4941 18.6465 24.0488C18.4473 23.5918 18.3477 23.0586 18.3477 22.4492C18.3477 21.5 18.5176 20.5625 18.8574 19.6367C19.1973 18.6992 19.6719 17.8262 20.2812 17.0176C20.8906 16.209 21.623 15.4824 22.4785 14.8379C23.334 14.1934 24.2773 13.6777 25.3086 13.291L25.4668 13.5371C24.5645 14.3223 23.7852 15.1602 23.1289 16.0508C22.4844 16.9414 21.9512 17.8379 21.5293 18.7402C21.1074 19.6309 20.7969 20.498 20.5977 21.3418C20.3867 22.1855 20.2812 22.9531 20.2812 23.6445C20.2812 23.8672 20.3047 24.084 20.3516 24.2949C20.3984 24.4941 20.4746 24.6758 20.5801 24.8398C20.6738 24.9922 20.791 25.1152 20.9316 25.209C21.0723 25.3027 21.2422 25.3496 21.4414 25.3496C21.6992 25.3496 21.9805 25.2617 22.2852 25.0859C22.6016 24.9102 22.9238 24.6758 23.252 24.3828C23.5801 24.0781 23.9082 23.7207 24.2363 23.3105C24.5762 22.9004 24.9043 22.4609 25.2207 21.9922C24.6582 21.6875 24.2539 21.2539 24.0078 20.6914C23.7617 20.1172 23.6387 19.4961 23.6387 18.8281C23.6387 18.207 23.75 17.6035 23.9727 17.0176C24.1953 16.4199 24.4824 15.8926 24.834 15.4355C25.1855 14.9785 25.5723 14.6152 25.9941 14.3457C26.416 14.0645 26.8262 13.9238 27.2246 13.9238C27.4355 13.9238 27.6641 13.9707 27.9102 14.0645C28.1562 14.1582 28.3848 14.3164 28.5957 14.5391C28.8066 14.7617 28.9824 15.0605 29.123 15.4355C29.2637 15.8105 29.334 16.2793 29.334 16.8418C29.334 17.5918 29.1992 18.3887 28.9297 19.2324C28.6602 20.0645 28.291 20.8848 27.8223 21.6934C28.0332 21.6465 28.2441 21.5703 28.4551 21.4648C28.6777 21.3594 28.9062 21.2129 29.1406 21.0254C29.3867 20.8379 29.6445 20.6035 29.9141 20.3223C30.1953 20.0293 30.5 19.6777 30.8281 19.2676L31.25 19.6367ZM24.2891 18.7754C24.2891 19.4082 24.3887 19.959 24.5879 20.4277C24.7988 20.8965 25.1211 21.248 25.5547 21.4824C25.8711 20.9785 26.1641 20.457 26.4336 19.918C26.7031 19.3789 26.9375 18.8516 27.1367 18.3359C27.3359 17.8086 27.4941 17.3105 27.6113 16.8418C27.7285 16.3613 27.7871 15.9336 27.7871 15.5586C27.7871 15.3711 27.7578 15.2188 27.6992 15.1016C27.6406 14.9844 27.5645 14.8965 27.4707 14.8379C27.3887 14.7676 27.2949 14.7207 27.1895 14.6973C27.0957 14.6738 27.0137 14.6621 26.9434 14.6621C26.7207 14.6621 26.457 14.7793 26.1523 15.0137C25.8477 15.2363 25.5547 15.541 25.2734 15.9277C25.0039 16.3027 24.7695 16.7422 24.5703 17.2461C24.3828 17.7383 24.2891 18.248 24.2891 18.7754ZM39.9688 24.1367C39.5234 24.8281 39.125 25.3145 38.7734 25.5957C38.4219 25.877 38.082 26.0176 37.7539 26.0176C37.2148 26.0176 36.9453 25.7598 36.9453 25.2441C36.9453 24.9746 37.0098 24.6406 37.1387 24.2422C37.2793 23.8438 37.4668 23.3633 37.7012 22.8008L40.8125 15.5059C40.8477 15.4238 40.8652 15.3594 40.8652 15.3125C40.8652 15.207 40.8301 15.1367 40.7598 15.1016C40.6895 15.0547 40.625 15.0312 40.5664 15.0312C40.4375 15.0312 40.3203 15.0781 40.2148 15.1719C40.1094 15.2656 40.0098 15.3828 39.916 15.5234L34.2383 24.1367C33.7812 24.8164 33.377 25.3027 33.0254 25.5957C32.6855 25.877 32.3516 26.0176 32.0234 26.0176C31.4844 26.0176 31.2148 25.7598 31.2148 25.2441C31.2148 24.9746 31.2852 24.6406 31.4258 24.2422C31.5547 23.8438 31.7363 23.3633 31.9707 22.8008L34.8887 15.9277C34.9238 15.8457 34.9414 15.7812 34.9414 15.7344C34.9414 15.6641 34.918 15.6172 34.8711 15.5938C34.8359 15.5586 34.7891 15.541 34.7305 15.541C34.6133 15.541 34.5078 15.6055 34.4141 15.7344L30.9336 20.041L30.4941 19.6895L34.4492 14.8027C34.7539 14.4277 35.0703 14.0996 35.3984 13.8184C35.7383 13.5254 36.0898 13.3789 36.4531 13.3789C36.793 13.3789 37.0391 13.4727 37.1914 13.6602C37.3438 13.8359 37.4199 14.0352 37.4199 14.2578C37.4199 14.4805 37.3789 14.7324 37.2969 15.0137C37.2148 15.2949 37.1094 15.5879 36.9805 15.8926L34.5371 21.6406C34.4668 21.8047 34.4316 21.9336 34.4316 22.0273C34.4316 22.1445 34.4785 22.2031 34.5723 22.2031C34.7012 22.2031 34.8418 22.0859 34.9941 21.8516L38.8438 15.9453C39.1602 15.4531 39.4414 15.043 39.6875 14.7148C39.9453 14.3867 40.1973 14.123 40.4434 13.9238C40.6895 13.7246 40.9414 13.584 41.1992 13.502C41.457 13.4199 41.7559 13.3789 42.0957 13.3789C42.4355 13.3789 42.6934 13.4727 42.8691 13.6602C43.0566 13.8359 43.1504 14.0352 43.1504 14.2578C43.1504 14.4805 43.1094 14.7324 43.0273 15.0137C42.9453 15.2949 42.8398 15.5879 42.7109 15.8926L40.2676 21.6406C40.1973 21.8047 40.1621 21.9336 40.1621 22.0273C40.1621 22.1445 40.209 22.2031 40.3027 22.2031C40.4316 22.2031 40.5723 22.0859 40.7246 21.8516L44.1172 16.3848C44.4805 15.8223 44.8086 15.3477 45.1016 14.9609C45.4062 14.5625 45.6875 14.2402 45.9453 13.9941C46.2148 13.748 46.4727 13.5723 46.7188 13.4668C46.9648 13.3496 47.2168 13.291 47.4746 13.291C47.9199 13.291 48.2598 13.3789 48.4941 13.5547C48.7285 13.7305 48.8457 13.9883 48.8457 14.3281C48.8457 14.5273 48.8164 14.7383 48.7578 14.9609C48.6992 15.1719 48.6406 15.3594 48.582 15.5234L45.5234 23.0117C45.4766 23.1289 45.4355 23.2461 45.4004 23.3633C45.3652 23.4688 45.3477 23.5625 45.3477 23.6445C45.3477 23.7852 45.377 23.8789 45.4355 23.9258C45.5059 23.9727 45.5938 23.9961 45.6992 23.9961C45.8633 23.9961 46.0625 23.9141 46.2969 23.75C46.5312 23.5859 46.7773 23.3457 47.0352 23.0293L50.252 19.0566L50.6914 19.4082L46.8066 24.207C46.5254 24.5586 46.2617 24.8516 46.0156 25.0859C45.7695 25.3203 45.5352 25.5078 45.3125 25.6484C45.1016 25.7773 44.8848 25.8711 44.6621 25.9297C44.4512 25.9883 44.2344 26.0176 44.0117 26.0176C43.6602 26.0176 43.3672 25.918 43.1328 25.7188C42.8984 25.5078 42.7812 25.2441 42.7812 24.9277C42.7812 24.6348 42.8516 24.2891 42.9922 23.8906C43.1328 23.4922 43.3262 23.0059 43.5723 22.4316L46.4199 15.6992C46.4551 15.6172 46.4727 15.5293 46.4727 15.4355C46.4727 15.3301 46.4375 15.248 46.3672 15.1895C46.2969 15.1191 46.2148 15.084 46.1211 15.084C46.0273 15.084 45.9219 15.1191 45.8047 15.1895C45.6875 15.2598 45.582 15.3711 45.4883 15.5234L39.9688 24.1367ZM52.4668 25.2969C52.8887 25.2969 53.3457 25.2031 53.8379 25.0156C54.3418 24.8281 54.9043 24.5059 55.5254 24.0488C56.1582 23.5918 56.8555 22.9766 57.6172 22.2031C58.3789 21.418 59.2344 20.4336 60.1836 19.25L60.623 19.6016C59.8145 20.6328 59.0703 21.5117 58.3906 22.2383C57.7109 22.9531 57.0898 23.5508 56.5273 24.0312C55.9648 24.5 55.4551 24.8691 54.998 25.1387C54.5527 25.3965 54.1543 25.5898 53.8027 25.7188C53.4512 25.8477 53.1406 25.9297 52.8711 25.9648C52.6016 25.9883 52.373 26 52.1855 26C51.9043 26 51.5879 25.959 51.2363 25.877C50.8848 25.7949 50.5566 25.6484 50.252 25.4375C49.9473 25.2148 49.6953 24.916 49.4961 24.541C49.2852 24.166 49.1797 23.6797 49.1797 23.082C49.1797 22.2031 49.3262 21.3535 49.6191 20.5332C49.9004 19.7129 50.2754 18.9453 50.7441 18.2305C51.2129 17.5039 51.7402 16.8418 52.3262 16.2441C52.9238 15.6465 53.5273 15.1367 54.1367 14.7148C54.7578 14.2812 55.3555 13.9473 55.9297 13.7129C56.5039 13.4785 57.0078 13.3613 57.4414 13.3613C58.0625 13.3613 58.5078 13.5488 58.7773 13.9238C59.0586 14.2871 59.1992 14.7559 59.1992 15.3301C59.1992 15.8574 59.082 16.3672 58.8477 16.8594C58.6133 17.3516 58.3027 17.8203 57.916 18.2656C57.5293 18.6992 57.0781 19.1035 56.5625 19.4785C56.0586 19.8418 55.5254 20.1582 54.9629 20.4277C54.4121 20.6855 53.8496 20.8906 53.2754 21.043C52.7129 21.1953 52.1855 21.2715 51.6934 21.2715C51.541 21.7168 51.4238 22.1387 51.3418 22.5371C51.248 22.9355 51.2012 23.3047 51.2012 23.6445C51.2012 24.2773 51.3242 24.7109 51.5703 24.9453C51.8164 25.1797 52.1152 25.2969 52.4668 25.2969ZM56.8613 14.082C56.5449 14.082 56.1641 14.2871 55.7188 14.6973C55.2734 15.0957 54.8105 15.6172 54.3301 16.2617C53.8613 16.9062 53.4043 17.627 52.959 18.4238C52.5254 19.209 52.1621 19.9941 51.8691 20.7793C52.7012 20.6387 53.457 20.3574 54.1367 19.9355C54.8281 19.502 55.4141 19.0039 55.8945 18.4414C56.3867 17.8672 56.7617 17.2637 57.0195 16.6309C57.2891 15.998 57.4238 15.418 57.4238 14.8906C57.4238 14.5742 57.3711 14.3633 57.2656 14.2578C57.1602 14.1406 57.0254 14.082 56.8613 14.082ZM73.209 26L76.4785 18.3535C75.8105 18.3184 75.248 18.2188 74.791 18.0547C74.3457 17.8789 73.9824 17.668 73.7012 17.4219C73.4316 17.1641 73.2383 16.8828 73.1211 16.5781C73.0039 16.2734 72.9453 15.9629 72.9453 15.6465C72.9453 15.0488 73.0801 14.5625 73.3496 14.1875C73.6191 13.8125 73.9414 13.5137 74.3164 13.291C74.7031 13.0684 75.1074 12.916 75.5293 12.834C75.9512 12.752 76.3145 12.7109 76.6191 12.7109C77.3809 12.7109 78.0898 12.8164 78.7461 13.0273L80.6445 8.61523C80.9023 7.99414 81.166 7.37305 81.4355 6.75195C81.7051 6.11914 81.9453 5.52148 82.1562 4.95898C82.3672 4.38477 82.5371 3.85742 82.666 3.37695C82.8066 2.89648 82.877 2.49219 82.877 2.16406C82.877 1.95312 82.8301 1.7832 82.7363 1.6543C82.6543 1.51367 82.5254 1.44336 82.3496 1.44336C81.5176 1.57227 80.5625 1.9707 79.4844 2.63867C79.0273 2.91992 78.5176 3.27734 77.9551 3.71094C77.4043 4.14453 76.8008 4.67773 76.1445 5.31055C75.5 5.93164 74.8086 6.66406 74.0703 7.50781C73.3438 8.33984 72.5762 9.30664 71.7676 10.4082L71.3984 8.03516C72.5352 6.86328 73.6543 5.83203 74.7559 4.94141C75.8691 4.03906 76.918 3.2832 77.9023 2.67383C78.8984 2.05273 79.8008 1.58398 80.6094 1.26758C81.4297 0.951172 82.1152 0.792969 82.666 0.792969C83.3223 0.792969 83.791 0.992187 84.0723 1.39062C84.3535 1.77734 84.4941 2.27539 84.4941 2.88477C84.4941 3.2832 84.4473 3.7168 84.3535 4.18555C84.2598 4.64258 84.1367 5.12305 83.9844 5.62695C83.8438 6.11914 83.6738 6.62305 83.4746 7.13867C83.2871 7.64258 83.0879 8.13477 82.877 8.61523L80.5742 13.959C81.0547 14.2988 81.4824 14.709 81.8574 15.1895C82.2441 15.6582 82.5898 16.1914 82.8945 16.7891H87.3066L93.7402 1.44336H95.9551L89.5215 16.7891H91.332L90.6289 18.3535H88.8711L85.6719 26H83.4395L83.457 25.9648C83.4805 25.5781 83.498 25.209 83.5098 24.8574C83.5215 24.4941 83.5273 24.1426 83.5273 23.8027C83.5273 22.7012 83.4629 21.7051 83.334 20.8145C83.2168 19.9121 83.041 19.0918 82.8066 18.3535H78.6758L75.3887 26H73.209ZM73.9824 15.207C73.9824 15.3945 74.0234 15.582 74.1055 15.7695C74.1992 15.957 74.3398 16.127 74.5273 16.2793C74.7148 16.4316 74.9492 16.5547 75.2305 16.6484C75.5234 16.7422 75.875 16.7891 76.2852 16.7891H77.1465L78.4824 13.6777C77.873 13.4902 77.2051 13.3965 76.4785 13.3965C75.7051 13.3965 75.0957 13.5664 74.6504 13.9062C74.2051 14.2461 73.9824 14.6797 73.9824 15.207ZM84.248 23.416C84.248 23.5332 84.248 23.6445 84.248 23.75C84.248 23.8555 84.2422 23.9668 84.2305 24.084L86.6387 18.3535H83.5273C84.0078 19.8535 84.248 21.541 84.248 23.416ZM82.1387 16.7891C81.6465 15.8516 81.0371 15.1191 80.3105 14.5918L79.3613 16.7891H82.1387ZM104.586 19.6367C104.211 20.1172 103.859 20.5215 103.531 20.8496C103.203 21.1777 102.881 21.4473 102.564 21.6582C102.248 21.8691 101.938 22.0273 101.633 22.1328C101.34 22.2383 101.041 22.3086 100.736 22.3438C100.385 22.8594 99.9922 23.3457 99.5586 23.8027C99.1367 24.248 98.6855 24.6406 98.2051 24.9805C97.7363 25.3086 97.2383 25.5723 96.7109 25.7715C96.1836 25.959 95.6504 26.0527 95.1113 26.0527C94.6777 26.0527 94.2559 25.9824 93.8457 25.8418C93.4355 25.6895 93.0723 25.4668 92.7559 25.1738C92.4277 24.8691 92.1699 24.4941 91.9824 24.0488C91.7832 23.5918 91.6836 23.0586 91.6836 22.4492C91.6836 21.5 91.8535 20.5625 92.1934 19.6367C92.5332 18.6992 93.0078 17.8262 93.6172 17.0176C94.2266 16.209 94.959 15.4824 95.8145 14.8379C96.6699 14.1934 97.6133 13.6777 98.6445 13.291L98.8027 13.5371C97.9004 14.3223 97.1211 15.1602 96.4648 16.0508C95.8203 16.9414 95.2871 17.8379 94.8652 18.7402C94.4434 19.6309 94.1328 20.498 93.9336 21.3418C93.7227 22.1855 93.6172 22.9531 93.6172 23.6445C93.6172 23.8672 93.6406 24.084 93.6875 24.2949C93.7344 24.4941 93.8105 24.6758 93.916 24.8398C94.0098 24.9922 94.127 25.1152 94.2676 25.209C94.4082 25.3027 94.5781 25.3496 94.7773 25.3496C95.0352 25.3496 95.3164 25.2617 95.6211 25.0859C95.9375 24.9102 96.2598 24.6758 96.5879 24.3828C96.916 24.0781 97.2441 23.7207 97.5723 23.3105C97.9121 22.9004 98.2402 22.4609 98.5566 21.9922C97.9941 21.6875 97.5898 21.2539 97.3438 20.6914C97.0977 20.1172 96.9746 19.4961 96.9746 18.8281C96.9746 18.207 97.0859 17.6035 97.3086 17.0176C97.5312 16.4199 97.8184 15.8926 98.1699 15.4355C98.5215 14.9785 98.9082 14.6152 99.3301 14.3457C99.752 14.0645 100.162 13.9238 100.561 13.9238C100.771 13.9238 101 13.9707 101.246 14.0645C101.492 14.1582 101.721 14.3164 101.932 14.5391C102.143 14.7617 102.318 15.0605 102.459 15.4355C102.6 15.8105 102.67 16.2793 102.67 16.8418C102.67 17.5918 102.535 18.3887 102.266 19.2324C101.996 20.0645 101.627 20.8848 101.158 21.6934C101.369 21.6465 101.58 21.5703 101.791 21.4648C102.014 21.3594 102.242 21.2129 102.477 21.0254C102.723 20.8379 102.98 20.6035 103.25 20.3223C103.531 20.0293 103.836 19.6777 104.164 19.2676L104.586 19.6367ZM97.625 18.7754C97.625 19.4082 97.7246 19.959 97.9238 20.4277C98.1348 20.8965 98.457 21.248 98.8906 21.4824C99.207 20.9785 99.5 20.457 99.7695 19.918C100.039 19.3789 100.273 18.8516 100.473 18.3359C100.672 17.8086 100.83 17.3105 100.947 16.8418C101.064 16.3613 101.123 15.9336 101.123 15.5586C101.123 15.3711 101.094 15.2188 101.035 15.1016C100.977 14.9844 100.9 14.8965 100.807 14.8379C100.725 14.7676 100.631 14.7207 100.525 14.6973C100.432 14.6738 100.35 14.6621 100.279 14.6621C100.057 14.6621 99.793 14.7793 99.4883 15.0137C99.1836 15.2363 98.8906 15.541 98.6094 15.9277C98.3398 16.3027 98.1055 16.7422 97.9062 17.2461C97.7188 17.7383 97.625 18.248 97.625 18.7754ZM112.637 9.42383H117.611L117.277 10.1445H112.338L106.906 23.0117C106.859 23.1289 106.812 23.2637 106.766 23.416C106.719 23.5566 106.695 23.6914 106.695 23.8203C106.695 23.9609 106.736 24.0781 106.818 24.1719C106.9 24.2539 107.018 24.2949 107.17 24.2949C107.439 24.2949 107.738 24.166 108.066 23.9082C108.395 23.6387 108.688 23.3457 108.945 23.0293L112.162 19.0566L112.602 19.4082L108.893 23.9961C108.318 24.6992 107.773 25.2148 107.258 25.543C106.742 25.8594 106.256 26.0176 105.799 26.0176C105.623 26.0176 105.447 25.9941 105.271 25.9473C105.096 25.8887 104.938 25.8125 104.797 25.7188C104.656 25.6133 104.545 25.4844 104.463 25.332C104.369 25.168 104.322 24.9805 104.322 24.7695C104.322 24.4766 104.393 24.1602 104.533 23.8203C104.662 23.4688 104.844 23.0059 105.078 22.4316L108.4 14.5039C108.213 14.7969 107.996 15.125 107.75 15.4883C107.504 15.8516 107.211 16.2617 106.871 16.7188C106.531 17.1758 106.139 17.6914 105.693 18.2656C105.248 18.8281 104.738 19.4609 104.164 20.1641L103.725 19.8125C104.814 18.4766 105.711 17.3281 106.414 16.3672C107.117 15.3945 107.697 14.5449 108.154 13.8184C108.623 13.0801 109.004 12.4238 109.297 11.8496C109.602 11.2754 109.889 10.707 110.158 10.1445H105.887L106.221 9.42383H110.527L111.916 6.13672H114.025L112.637 9.42383ZM114.377 25.2969C114.799 25.2969 115.256 25.2031 115.748 25.0156C116.252 24.8281 116.814 24.5059 117.436 24.0488C118.068 23.5918 118.766 22.9766 119.527 22.2031C120.289 21.418 121.145 20.4336 122.094 19.25L122.533 19.6016C121.725 20.6328 120.98 21.5117 120.301 22.2383C119.621 22.9531 119 23.5508 118.438 24.0312C117.875 24.5 117.365 24.8691 116.908 25.1387C116.463 25.3965 116.064 25.5898 115.713 25.7188C115.361 25.8477 115.051 25.9297 114.781 25.9648C114.512 25.9883 114.283 26 114.096 26C113.814 26 113.498 25.959 113.146 25.877C112.795 25.7949 112.467 25.6484 112.162 25.4375C111.857 25.2148 111.605 24.916 111.406 24.541C111.195 24.166 111.09 23.6797 111.09 23.082C111.09 22.2031 111.236 21.3535 111.529 20.5332C111.811 19.7129 112.186 18.9453 112.654 18.2305C113.123 17.5039 113.65 16.8418 114.236 16.2441C114.834 15.6465 115.438 15.1367 116.047 14.7148C116.668 14.2812 117.266 13.9473 117.84 13.7129C118.414 13.4785 118.918 13.3613 119.352 13.3613C119.973 13.3613 120.418 13.5488 120.688 13.9238C120.969 14.2871 121.109 14.7559 121.109 15.3301C121.109 15.8574 120.992 16.3672 120.758 16.8594C120.523 17.3516 120.213 17.8203 119.826 18.2656C119.439 18.6992 118.988 19.1035 118.473 19.4785C117.969 19.8418 117.436 20.1582 116.873 20.4277C116.322 20.6855 115.76 20.8906 115.186 21.043C114.623 21.1953 114.096 21.2715 113.604 21.2715C113.451 21.7168 113.334 22.1387 113.252 22.5371C113.158 22.9355 113.111 23.3047 113.111 23.6445C113.111 24.2773 113.234 24.7109 113.48 24.9453C113.727 25.1797 114.025 25.2969 114.377 25.2969ZM118.771 14.082C118.455 14.082 118.074 14.2871 117.629 14.6973C117.184 15.0957 116.721 15.6172 116.24 16.2617C115.771 16.9062 115.314 17.627 114.869 18.4238C114.436 19.209 114.072 19.9941 113.779 20.7793C114.611 20.6387 115.367 20.3574 116.047 19.9355C116.738 19.502 117.324 19.0039 117.805 18.4414C118.297 17.8672 118.672 17.2637 118.93 16.6309C119.199 15.998 119.334 15.418 119.334 14.8906C119.334 14.5742 119.281 14.3633 119.176 14.2578C119.07 14.1406 118.936 14.082 118.771 14.082ZM124.836 23.0117C124.789 23.1289 124.748 23.2461 124.713 23.3633C124.678 23.4688 124.66 23.5625 124.66 23.6445C124.66 23.7852 124.689 23.8789 124.748 23.9258C124.818 23.9727 124.906 23.9961 125.012 23.9961C125.176 23.9961 125.375 23.9141 125.609 23.75C125.844 23.5859 126.09 23.3457 126.348 23.0293L129.564 19.0566L130.004 19.4082L126.119 24.207C125.838 24.5586 125.58 24.8516 125.346 25.0859C125.123 25.3203 124.906 25.5078 124.695 25.6484C124.496 25.7773 124.291 25.8711 124.08 25.9297C123.881 25.9883 123.67 26.0176 123.447 26.0176C123.096 26.0176 122.803 25.918 122.568 25.7188C122.334 25.5078 122.217 25.2441 122.217 24.9277C122.217 24.6348 122.293 24.2891 122.445 23.8906C122.586 23.4922 122.773 23.0059 123.008 22.4316L126.33 14.5039C126.143 14.7969 125.926 15.125 125.68 15.4883C125.434 15.8516 125.135 16.2617 124.783 16.7188C124.443 17.1758 124.057 17.6914 123.623 18.2656C123.178 18.8281 122.668 19.4609 122.094 20.1641L121.654 19.8125C122.463 18.8164 123.166 17.9258 123.764 17.1406C124.361 16.3438 124.877 15.6289 125.311 14.9961C125.744 14.3633 126.113 13.7949 126.418 13.291C126.723 12.7871 126.992 12.3125 127.227 11.8672C127.461 11.4219 127.672 11 127.859 10.6016C128.059 10.1914 128.27 9.76953 128.492 9.33594L130.496 4.57227H132.605L124.836 23.0117ZM154.859 21.7109C154.52 22.7539 154.109 23.5801 153.629 24.1895C153.148 24.7988 152.65 25.2617 152.135 25.5781C151.631 25.8945 151.133 26.0938 150.641 26.1758C150.148 26.2695 149.709 26.3164 149.322 26.3164C148.736 26.3164 148.191 26.2402 147.688 26.0879C147.195 25.9355 146.727 25.7363 146.281 25.4902C145.836 25.2441 145.42 24.9688 145.033 24.6641C144.646 24.3477 144.277 24.0312 143.926 23.7148C143.281 24.4883 142.578 25.1094 141.816 25.5781C141.055 26.0352 140.217 26.2637 139.303 26.2637C138.986 26.2637 138.67 26.2109 138.354 26.1055C138.025 26.0117 137.732 25.8652 137.475 25.666C137.205 25.4551 136.988 25.1914 136.824 24.875C136.66 24.5469 136.578 24.1602 136.578 23.7148C136.578 23.2578 136.678 22.8184 136.877 22.3965C137.064 21.9746 137.334 21.6055 137.686 21.2891C138.025 20.9609 138.436 20.7031 138.916 20.5156C139.385 20.3281 139.9 20.2344 140.463 20.2344C141.025 20.2344 141.553 20.3574 142.045 20.6035C142.549 20.8379 143.047 21.1309 143.539 21.4824C143.891 20.8027 144.225 20.0703 144.541 19.2852C144.857 18.4883 145.156 17.668 145.438 16.8242C145.73 15.9688 146.006 15.1074 146.264 14.2402C146.521 13.373 146.773 12.5176 147.02 11.6738C147.465 10.1035 147.928 8.74414 148.408 7.5957C148.889 6.44727 149.375 5.47461 149.867 4.67773C150.371 3.86914 150.875 3.21289 151.379 2.70898C151.883 2.19336 152.381 1.79492 152.873 1.51367C153.365 1.23242 153.852 1.04492 154.332 0.951172C154.812 0.845703 155.281 0.792969 155.738 0.792969C156.324 0.792969 156.846 0.875 157.303 1.03906C157.76 1.20312 158.146 1.43164 158.463 1.72461C158.779 2.00586 159.02 2.33984 159.184 2.72656C159.348 3.10156 159.43 3.50586 159.43 3.93945C159.43 4.37305 159.348 4.78906 159.184 5.1875C159.02 5.57422 158.797 5.9375 158.516 6.27734C158.234 6.60547 157.9 6.89844 157.514 7.15625C157.139 7.41406 156.74 7.625 156.318 7.78906L155.791 5.73242C156.096 5.7207 156.4 5.67383 156.705 5.5918C157.021 5.49805 157.303 5.36328 157.549 5.1875C157.795 5.01172 157.994 4.79492 158.146 4.53711C158.311 4.2793 158.393 3.96875 158.393 3.60547C158.393 3.34766 158.34 3.08984 158.234 2.83203C158.141 2.5625 157.982 2.32812 157.76 2.12891C157.549 1.92969 157.268 1.76562 156.916 1.63672C156.564 1.50781 156.137 1.44336 155.633 1.44336C155.059 1.44336 154.525 1.60156 154.033 1.91797C153.553 2.23438 153.107 2.66211 152.697 3.20117C152.287 3.74023 151.912 4.37305 151.572 5.09961C151.232 5.81445 150.916 6.57031 150.623 7.36719C150.33 8.16406 150.055 8.98438 149.797 9.82812C149.539 10.6602 149.299 11.4688 149.076 12.2539C148.83 13.0742 148.561 13.9355 148.268 14.8379C147.975 15.7285 147.652 16.6191 147.301 17.5098C146.961 18.4004 146.586 19.2734 146.176 20.1289C145.766 20.9727 145.32 21.7578 144.84 22.4844C145.18 22.7422 145.525 22.9941 145.877 23.2402C146.24 23.4863 146.615 23.7031 147.002 23.8906C147.4 24.0781 147.816 24.2305 148.25 24.3477C148.695 24.4648 149.164 24.5234 149.656 24.5234C150.172 24.5234 150.658 24.4883 151.115 24.418C151.572 24.3477 151.988 24.207 152.363 23.9961C152.75 23.7734 153.09 23.4629 153.383 23.0645C153.676 22.666 153.91 22.1387 154.086 21.4824L154.859 21.7109ZM139.162 25.3848C139.877 25.3848 140.539 25.1445 141.148 24.6641C141.758 24.1836 142.326 23.5332 142.854 22.7129C142.396 22.291 141.945 21.9395 141.5 21.6582C141.066 21.3652 140.621 21.2188 140.164 21.2188C139.719 21.2188 139.332 21.2949 139.004 21.4473C138.664 21.5996 138.377 21.7988 138.143 22.0449C137.908 22.2793 137.732 22.543 137.615 22.8359C137.498 23.1172 137.439 23.3926 137.439 23.6621C137.439 24.1895 137.592 24.6113 137.896 24.9277C138.201 25.2324 138.623 25.3848 139.162 25.3848ZM169.168 19.6367C168.793 20.1172 168.441 20.5215 168.113 20.8496C167.785 21.1777 167.463 21.4473 167.146 21.6582C166.83 21.8691 166.52 22.0273 166.215 22.1328C165.922 22.2383 165.623 22.3086 165.318 22.3438C164.967 22.8594 164.574 23.3457 164.141 23.8027C163.719 24.248 163.268 24.6406 162.787 24.9805C162.318 25.3086 161.82 25.5723 161.293 25.7715C160.766 25.959 160.232 26.0527 159.693 26.0527C159.26 26.0527 158.838 25.9824 158.428 25.8418C158.018 25.6895 157.654 25.4668 157.338 25.1738C157.01 24.8691 156.752 24.4941 156.564 24.0488C156.365 23.5918 156.266 23.0586 156.266 22.4492C156.266 21.5 156.436 20.5625 156.775 19.6367C157.115 18.6992 157.59 17.8262 158.199 17.0176C158.809 16.209 159.541 15.4824 160.396 14.8379C161.252 14.1934 162.195 13.6777 163.227 13.291L163.385 13.5371C162.482 14.3223 161.703 15.1602 161.047 16.0508C160.402 16.9414 159.869 17.8379 159.447 18.7402C159.025 19.6309 158.715 20.498 158.516 21.3418C158.305 22.1855 158.199 22.9531 158.199 23.6445C158.199 23.8672 158.223 24.084 158.27 24.2949C158.316 24.4941 158.393 24.6758 158.498 24.8398C158.592 24.9922 158.709 25.1152 158.85 25.209C158.99 25.3027 159.16 25.3496 159.359 25.3496C159.617 25.3496 159.898 25.2617 160.203 25.0859C160.52 24.9102 160.842 24.6758 161.17 24.3828C161.498 24.0781 161.826 23.7207 162.154 23.3105C162.494 22.9004 162.822 22.4609 163.139 21.9922C162.576 21.6875 162.172 21.2539 161.926 20.6914C161.68 20.1172 161.557 19.4961 161.557 18.8281C161.557 18.207 161.668 17.6035 161.891 17.0176C162.113 16.4199 162.4 15.8926 162.752 15.4355C163.104 14.9785 163.49 14.6152 163.912 14.3457C164.334 14.0645 164.744 13.9238 165.143 13.9238C165.354 13.9238 165.582 13.9707 165.828 14.0645C166.074 14.1582 166.303 14.3164 166.514 14.5391C166.725 14.7617 166.9 15.0605 167.041 15.4355C167.182 15.8105 167.252 16.2793 167.252 16.8418C167.252 17.5918 167.117 18.3887 166.848 19.2324C166.578 20.0645 166.209 20.8848 165.74 21.6934C165.951 21.6465 166.162 21.5703 166.373 21.4648C166.596 21.3594 166.824 21.2129 167.059 21.0254C167.305 20.8379 167.562 20.6035 167.832 20.3223C168.113 20.0293 168.418 19.6777 168.746 19.2676L169.168 19.6367ZM162.207 18.7754C162.207 19.4082 162.307 19.959 162.506 20.4277C162.717 20.8965 163.039 21.248 163.473 21.4824C163.789 20.9785 164.082 20.457 164.352 19.918C164.621 19.3789 164.855 18.8516 165.055 18.3359C165.254 17.8086 165.412 17.3105 165.529 16.8418C165.646 16.3613 165.705 15.9336 165.705 15.5586C165.705 15.3711 165.676 15.2188 165.617 15.1016C165.559 14.9844 165.482 14.8965 165.389 14.8379C165.307 14.7676 165.213 14.7207 165.107 14.6973C165.014 14.6738 164.932 14.6621 164.861 14.6621C164.639 14.6621 164.375 14.7793 164.07 15.0137C163.766 15.2363 163.473 15.541 163.191 15.9277C162.922 16.3027 162.688 16.7422 162.488 17.2461C162.301 17.7383 162.207 18.248 162.207 18.7754ZM181.543 19.584C180.98 20.2871 180.441 20.9316 179.926 21.5176C179.41 22.1035 178.895 22.6543 178.379 23.1699C177.875 23.6738 177.365 24.1543 176.85 24.6113C176.334 25.0684 175.795 25.5312 175.232 26L173.545 30.0605C173.17 30.9629 172.783 31.7773 172.385 32.5039C171.998 33.2305 171.582 33.8457 171.137 34.3496C170.691 34.8535 170.211 35.2402 169.695 35.5098C169.18 35.7793 168.611 35.9141 167.99 35.9141C167.58 35.9141 167.234 35.8438 166.953 35.7031C166.672 35.5742 166.443 35.4043 166.268 35.1934C166.092 34.9824 165.969 34.748 165.898 34.4902C165.816 34.2324 165.775 33.9863 165.775 33.752C165.775 32.9785 165.992 32.2637 166.426 31.6074C166.859 30.9629 167.428 30.3418 168.131 29.7441C168.822 29.1465 169.602 28.5488 170.469 27.9512C171.324 27.3652 172.186 26.7383 173.053 26.0703L176.498 17.7734C176.568 17.5977 176.604 17.4922 176.604 17.457C176.604 17.3398 176.562 17.2812 176.48 17.2812C176.375 17.2812 176.264 17.3691 176.146 17.5449C176.076 17.6387 175.936 17.8379 175.725 18.1426C175.514 18.4473 175.256 18.8105 174.951 19.2324C174.646 19.6543 174.318 20.1113 173.967 20.6035C173.615 21.0957 173.264 21.5762 172.912 22.0449C172.561 22.5137 172.227 22.9414 171.91 23.3281C171.594 23.7148 171.324 24.0195 171.102 24.2422C170.539 24.8047 170.041 25.25 169.607 25.5781C169.174 25.8945 168.746 26.0527 168.324 26.0527C168.184 26.0527 168.031 26.0234 167.867 25.9648C167.691 25.9062 167.533 25.8066 167.393 25.666C167.24 25.5137 167.117 25.3086 167.023 25.0508C166.93 24.7812 166.883 24.4414 166.883 24.0312C166.883 23.4219 167.023 22.748 167.305 22.0098C167.574 21.2715 167.949 20.5215 168.43 19.7598C168.91 18.9863 169.479 18.2305 170.135 17.4922C170.791 16.7539 171.5 16.0918 172.262 15.5059C173.035 14.9082 173.844 14.4102 174.688 14.0117C175.531 13.6133 176.387 13.373 177.254 13.291V13.6074C176.539 13.8184 175.854 14.1465 175.197 14.5918C174.541 15.0254 173.926 15.5293 173.352 16.1035C172.777 16.6777 172.256 17.293 171.787 17.9492C171.318 18.5938 170.914 19.2324 170.574 19.8652C170.234 20.498 169.977 21.1016 169.801 21.6758C169.613 22.2383 169.52 22.7129 169.52 23.0996C169.52 23.3105 169.555 23.4863 169.625 23.627C169.684 23.7676 169.771 23.8379 169.889 23.8379C170.018 23.8379 170.211 23.7324 170.469 23.5215C170.715 23.3105 171.002 23.0293 171.33 22.6777C171.658 22.3145 172.016 21.9043 172.402 21.4473C172.789 20.9785 173.182 20.4922 173.58 19.9883C173.979 19.4844 174.371 18.9746 174.758 18.459C175.156 17.9434 175.525 17.457 175.865 17C176.381 16.2969 176.809 15.7168 177.148 15.2598C177.5 14.8027 177.799 14.4395 178.045 14.1699C178.303 13.8887 178.531 13.6953 178.73 13.5898C178.93 13.4844 179.146 13.4316 179.381 13.4316C179.627 13.4316 179.797 13.4961 179.891 13.625C179.984 13.7539 180.031 13.9121 180.031 14.0996C180.031 14.252 180.008 14.4102 179.961 14.5742C179.926 14.7383 179.879 14.8848 179.82 15.0137L175.742 24.7871C176.516 24.1191 177.342 23.3398 178.221 22.4492C179.111 21.5469 180.072 20.4746 181.104 19.2324L181.543 19.584ZM172.613 27.1426C171.676 27.8223 170.826 28.4316 170.064 28.9707C169.303 29.5215 168.658 30.043 168.131 30.5352C167.592 31.0391 167.182 31.5488 166.9 32.0645C166.607 32.5801 166.461 33.1484 166.461 33.7695C166.461 33.9336 166.484 34.1035 166.531 34.2793C166.578 34.4551 166.654 34.6133 166.76 34.7539C166.854 34.8945 166.982 35.0059 167.146 35.0879C167.311 35.1816 167.51 35.2285 167.744 35.2285C168.33 35.2285 168.869 34.9004 169.361 34.2441C169.842 33.5879 170.311 32.709 170.768 31.6074L172.613 27.1426ZM193.215 19.6367C192.84 20.1172 192.488 20.5215 192.16 20.8496C191.832 21.1777 191.51 21.4473 191.193 21.6582C190.877 21.8691 190.566 22.0273 190.262 22.1328C189.969 22.2383 189.67 22.3086 189.365 22.3438C189.014 22.8594 188.621 23.3457 188.188 23.8027C187.766 24.248 187.314 24.6406 186.834 24.9805C186.365 25.3086 185.867 25.5723 185.34 25.7715C184.812 25.959 184.279 26.0527 183.74 26.0527C183.307 26.0527 182.885 25.9824 182.475 25.8418C182.064 25.6895 181.701 25.4668 181.385 25.1738C181.057 24.8691 180.799 24.4941 180.611 24.0488C180.412 23.5918 180.312 23.0586 180.312 22.4492C180.312 21.5 180.482 20.5625 180.822 19.6367C181.162 18.6992 181.637 17.8262 182.246 17.0176C182.855 16.209 183.588 15.4824 184.443 14.8379C185.299 14.1934 186.242 13.6777 187.273 13.291L187.432 13.5371C186.529 14.3223 185.75 15.1602 185.094 16.0508C184.449 16.9414 183.916 17.8379 183.494 18.7402C183.072 19.6309 182.762 20.498 182.562 21.3418C182.352 22.1855 182.246 22.9531 182.246 23.6445C182.246 23.8672 182.27 24.084 182.316 24.2949C182.363 24.4941 182.439 24.6758 182.545 24.8398C182.639 24.9922 182.756 25.1152 182.896 25.209C183.037 25.3027 183.207 25.3496 183.406 25.3496C183.664 25.3496 183.945 25.2617 184.25 25.0859C184.566 24.9102 184.889 24.6758 185.217 24.3828C185.545 24.0781 185.873 23.7207 186.201 23.3105C186.541 22.9004 186.869 22.4609 187.186 21.9922C186.623 21.6875 186.219 21.2539 185.973 20.6914C185.727 20.1172 185.604 19.4961 185.604 18.8281C185.604 18.207 185.715 17.6035 185.938 17.0176C186.16 16.4199 186.447 15.8926 186.799 15.4355C187.15 14.9785 187.537 14.6152 187.959 14.3457C188.381 14.0645 188.791 13.9238 189.189 13.9238C189.4 13.9238 189.629 13.9707 189.875 14.0645C190.121 14.1582 190.35 14.3164 190.561 14.5391C190.771 14.7617 190.947 15.0605 191.088 15.4355C191.229 15.8105 191.299 16.2793 191.299 16.8418C191.299 17.5918 191.164 18.3887 190.895 19.2324C190.625 20.0645 190.256 20.8848 189.787 21.6934C189.998 21.6465 190.209 21.5703 190.42 21.4648C190.643 21.3594 190.871 21.2129 191.105 21.0254C191.352 20.8379 191.609 20.6035 191.879 20.3223C192.16 20.0293 192.465 19.6777 192.793 19.2676L193.215 19.6367ZM186.254 18.7754C186.254 19.4082 186.354 19.959 186.553 20.4277C186.764 20.8965 187.086 21.248 187.52 21.4824C187.836 20.9785 188.129 20.457 188.398 19.918C188.668 19.3789 188.902 18.8516 189.102 18.3359C189.301 17.8086 189.459 17.3105 189.576 16.8418C189.693 16.3613 189.752 15.9336 189.752 15.5586C189.752 15.3711 189.723 15.2188 189.664 15.1016C189.605 14.9844 189.529 14.8965 189.436 14.8379C189.354 14.7676 189.26 14.7207 189.154 14.6973C189.061 14.6738 188.979 14.6621 188.908 14.6621C188.686 14.6621 188.422 14.7793 188.117 15.0137C187.812 15.2363 187.52 15.541 187.238 15.9277C186.969 16.3027 186.734 16.7422 186.535 17.2461C186.348 17.7383 186.254 18.248 186.254 18.7754Z" fill="#79808B"/>
</svg>
