<svg xmlns="http://www.w3.org/2000/svg" viewBox="0 0 164.46 53.24">
  <defs>
    <style>
      .cls-1{isolation:isolate}.cls-2{fill:#42389f}.cls-3{fill:#fff}.cls-4{fill:#ef8555}
    </style>
  </defs>
  <g id="Layer_2">
    <g id="Lag_1">
      <g id="Group_46">
        <g class="cls-1">
          <path class="cls-2" d="M77 4.58c3.29 0 5.67 1.65 5.67 4.83A4.19 4.19 0 0180 13.57a4.52 4.52 0 013.59 4.83 5.36 5.36 0 01-5.77 5.72h-5.18A1.69 1.69 0 0171 22.48V6.23a1.69 1.69 0 011.68-1.65zm-2.69 3.18v4.73h2.29c1.7 0 2.68-.73 2.68-2.43s-1-2.3-2.73-2.3zm0 7.45v5.62h2.48c2 0 3.4-.65 3.4-2.81s-1.45-2.81-3.67-2.81zM101.14 17.43c0 4.21-2.48 7-6.8 7-4.67 0-6.75-3-6.75-7.72V6.06a1.68 1.68 0 013.35 0v11.31c0 2.41 1.32 3.81 3.4 3.81s3.46-1.43 3.46-3.81V6.06a1.67 1.67 0 011.67-1.62 1.71 1.71 0 011.67 1.62zM112.59 7.85v14.76a1.67 1.67 0 01-3.34 0V7.85h-3.84a1.7 1.7 0 01-1.7-1.62 1.7 1.7 0 011.7-1.65h11a1.7 1.7 0 011.68 1.65 1.7 1.7 0 01-1.68 1.62zM124.23 20.83h6.43a1.71 1.71 0 011.67 1.65 1.69 1.69 0 01-1.67 1.64h-8.1a1.7 1.7 0 01-1.68-1.64V6.06a1.68 1.68 0 013.35 0zM139 7.85v4.61h5.78a1.56 1.56 0 011.56 1.54 1.58 1.58 0 01-1.56 1.53H139v5.35h6.75a1.69 1.69 0 011.67 1.65 1.67 1.67 0 01-1.67 1.64h-8.42a1.7 1.7 0 01-1.68-1.64V6.23a1.7 1.7 0 011.68-1.65h8.42a1.67 1.67 0 011.67 1.65 1.67 1.67 0 01-1.67 1.62zM156.33 4.58c4 0 7.48 1.08 7.48 5.94 0 2.89-1.46 4.59-3.29 5.26l3.7 6a1.68 1.68 0 01.24.84 1.7 1.7 0 01-1.73 1.59 1.54 1.54 0 01-1.43-.81l-4.1-6.94h-2v6.16a1.66 1.66 0 01-3.32 0V6.23a1.7 1.7 0 011.64-1.65zm-1.18 3.29v5.59h2.32c1.64 0 3-.81 3-2.83s-1.32-2.76-3-2.76z"/>
        </g>
        <g class="cls-1">
          <path class="cls-2" d="M77 30.58c3.29 0 5.67 1.65 5.67 4.83A4.19 4.19 0 0180 39.57a4.52 4.52 0 013.59 4.83 5.36 5.36 0 01-5.77 5.72h-5.18A1.69 1.69 0 0171 48.48V32.23a1.69 1.69 0 011.68-1.65zm-2.67 3.18v4.73h2.27c1.7 0 2.68-.73 2.68-2.43s-1-2.3-2.73-2.3zm0 7.45v5.62h2.48c2 0 3.4-.65 3.4-2.81s-1.45-2.81-3.67-2.81zM91 48.61a1.67 1.67 0 01-1.65 1.62 1.7 1.7 0 01-1.7-1.62V32.06a1.7 1.7 0 011.7-1.62A1.67 1.67 0 0191 32.06zM100.63 30.58c4 0 7.48 1.08 7.48 5.94 0 2.89-1.46 4.59-3.29 5.26l3.7 6a1.68 1.68 0 01.24.84 1.7 1.7 0 01-1.76 1.61 1.54 1.54 0 01-1.43-.81l-4.1-6.94h-2v6.16a1.66 1.66 0 01-3.32 0V32.23a1.7 1.7 0 011.64-1.65zm-1.18 3.29v5.59h2.32c1.64 0 3-.81 3-2.83s-1.32-2.76-3-2.76zM118 30.58c5.4 0 8.88 3.16 8.88 9.8s-3.3 9.74-8.88 9.74h-3.81a1.69 1.69 0 01-1.65-1.64V32.23a1.69 1.69 0 011.65-1.65zm-2.11 3.29v13h.89c4.81 0 6.72-1.19 6.72-6.45s-1.94-6.51-6.39-6.51z"/>
        </g>
        <g id="Group_16" >
          <g id="Group_2">
            <path id="Path_1" class="cls-2" d="M4.82 11.35A26.35 26.35 0 0132.85.78a25.83 25.83 0 0112.31 7.1 27.72 27.72 0 014 5.58 35.93 35.93 0 013.06 6.78 18.24 18.24 0 01.65 3.66 25.93 25.93 0 01-.49 8.24c0 .09-.1.44-.22.9a27.44 27.44 0 01-2 5.53A24.93 24.93 0 0148 42.14s-.51.7-1.09 1.39a30.46 30.46 0 01-10 7.61 26.43 26.43 0 01-16.33 1.4 30.46 30.46 0 01-7.83-3.18 24.76 24.76 0 01-2.78-2c-.24-.24-.52-.43-.76-.67s-.48-.52-.7-.5-.23.1-.46.35-.47.45-.69.7-.45.46-1.17 1.17l-1.25 1.2-1 1c-.12.13-.42.43-1.24 1.31C1.68 53 1.44 53.21 1 53.23a1.09 1.09 0 01-.8-.32c-.2-.24-.2-.53-.2-1.19v-1.43-5.16-12.9-5.11-2A25.87 25.87 0 01.41 22a25.55 25.55 0 01.73-3 29 29 0 013.68-7.65z"/>
          </g>
          <g id="Group_5">
            <path id="Path_2" class="cls-3" d="M2.91 29.73A12.34 12.34 0 013.18 27a7.94 7.94 0 011.11-2.73 8.42 8.42 0 011.81-1.89 8.61 8.61 0 011.34-.92A7.9 7.9 0 019 20.81a8.67 8.67 0 011.89-.31 17.64 17.64 0 011.81 0h8.19a7.66 7.66 0 011.51.15 4 4 0 011.69 1 4.54 4.54 0 01.91 5.12c-.16.3-.2.26-1.87 2l-.91 1c-1 1.08-1.48 1.51-2.64 2.68-.69.7-1.16 1.19-2.07 2.14-1.79 1.85-1.6 1.68-2.3 2.4-1.35 1.36-1.67 1.57-3.47 3.32l-2.1 2.1c-2.31 2.37-2.76 3-4.38 4.57-.55.5-1.32 1.22-2.26 2.02 0-.34 0-.84-.07-1.46s0-1.19 0-1.9v-3.05-2.38V35.76v-3.85c-.02-1.47-.04-1.52-.02-2.18z"/>
            <path id="Path_3" class="cls-3" d="M3.4 22.82A16.82 16.82 0 014.13 19a23.84 23.84 0 011.79-4H6a24 24 0 012.61-3.63 25.13 25.13 0 017.06-5.71 23.94 23.94 0 0114.51-2.41A24.23 24.23 0 0145 11.93a28.05 28.05 0 015.12 13.9 14.74 14.74 0 01-.62 5.73A19.37 19.37 0 0046.26 28a21 21 0 00-3.34-2.29 30.51 30.51 0 00-5-2.25c-.58-.21-1.2-.41-1.86-.61a32.51 32.51 0 00-7.19-1.3l-2.61-.06a3.9 3.9 0 01-.33-.38 4.68 4.68 0 00-.43-.46 7.55 7.55 0 00-1.74-1.27 7.61 7.61 0 00-3.18-.68c-5.6 0-8.39 0-10.5.1a8.43 8.43 0 00-3.94 1.4 9.81 9.81 0 00-2.74 2.62z"/>
            <path id="Rectangle_6" class="cls-2" d="M10.79 35.06a1 1 0 011 1v6.87a1 1 0 01-1 1 1 1 0 01-1-1V36a1 1 0 011-1z"/>
            <path id="Rectangle_7" class="cls-2" d="M18.58 28.24a1 1 0 011 1v6.86a1 1 0 01-1 1 1 1 0 01-1-1v-6.87a1 1 0 011-1z"/>
            <path id="Path_4" class="cls-2" d="M50.82 3.18a.46.46 0 01.47.44.22.22 0 010 .08l-.78 6.71-.72 6.06a.54.54 0 01-.58.48.57.57 0 01-.31-.15l-5.65-6.31-5.65-6.32a.54.54 0 01.4-.85l6.08-.06z"/>
            <path id="Path_5" class="cls-3" d="M43 43.37a25.63 25.63 0 00-7.26-18.74A20.87 20.87 0 0149 33a17.66 17.66 0 01-6 10.35z"/>
            <ellipse id="Ellipse_1" class="cls-2" cx="34.55" cy="10.07" rx="3.01" ry="3.03"/>
            <circle id="Ellipse_2" class="cls-3" cx="34.16" cy="9.06" r=".39"/>
            <circle id="Ellipse_3" class="cls-3" cx="35.33" cy="9.58" r=".78"/>
            <path id="Path_6" class="cls-3" d="M47.84 6.15c-.08.7-.16 1.42-.23 2.14s-.13 1.24-.19 1.86a16.54 16.54 0 00-3.9-3.93h2.24z"/>
            <path id="Path_8" class="cls-4" d="M46.06 30.1l2.21 3.83a.61.61 0 01-.24.63l-4.4 2.06c-.29.13-.61-.14-.47-.4l1.4-2.83.85-3.22a.36.36 0 01.64-.08z"/>
            <ellipse id="Ellipse_4" class="cls-4" cx="47.9" cy="34.13" rx="2.06" ry=".95" transform="rotate(-74.7 47.896 34.127)"/>
          </g>
        </g>
      </g>
    </g>
  </g>
</svg>
