<svg width="72" height="48" viewBox="0 0 72 48" fill="none" xmlns="http://www.w3.org/2000/svg">
<rect width="72" height="48" fill="#DEE0EC"/>
<g clip-path="url(#clip0)">
<path d="M44.7604 20.4168L46.8755 20.2828C46.8791 20.2825 46.8829 20.2823 46.8868 20.282C48.3941 20.1548 49.7471 19.3652 50.5991 18.1149L52.2712 15.6617C53.7266 13.5259 54.2905 10.9463 53.8584 8.39832C53.7736 7.8979 53.5176 7.43674 53.138 7.10029C52.7582 6.76355 52.2698 6.5647 51.7628 6.54053C49.1804 6.41694 46.6879 7.28623 44.7422 8.98719L42.5071 10.9414C41.368 11.937 40.7462 13.3749 40.8006 14.8869C40.8009 14.8904 40.8009 14.8943 40.8012 14.8981L40.9217 17.0138C40.9687 17.8386 40.6663 18.6524 40.0936 19.2452L22.6314 37.1842C22.1639 37.6717 21.9225 38.3405 21.9519 39.0676C21.9843 39.8679 22.3515 40.654 22.9343 41.1706C23.4608 41.6373 24.1846 41.9031 24.908 41.9031C24.9855 41.9031 25.0629 41.9001 25.1401 41.8938C25.8655 41.8358 26.5008 41.5161 26.9309 40.9904L42.6433 21.5078C43.1643 20.8667 43.9361 20.469 44.7604 20.4168ZM41.8045 20.8288L26.0934 40.3098C25.8534 40.6032 25.4842 40.7839 25.0541 40.8182C24.5424 40.8592 24.0178 40.6889 23.6504 40.3631C23.2829 40.0371 23.051 39.5367 23.0304 39.0239C23.0129 38.5929 23.1477 38.2049 23.4076 37.934L40.8684 19.9963C41.6512 19.1864 42.0632 18.077 41.9995 16.9526L41.8789 14.8424C41.838 13.6589 42.3255 12.5336 43.2173 11.7538L45.4525 9.79963C47.1872 8.28324 49.4103 7.50898 51.7114 7.61829C51.9734 7.63093 52.2256 7.73365 52.422 7.90778C52.6183 8.08164 52.7505 8.32005 52.7944 8.5785C53.1795 10.8502 52.6769 13.1496 51.3794 15.0536L49.7072 17.5071C49.0401 18.486 47.9813 19.1048 46.8013 19.2062L44.692 19.3396C43.5681 19.411 42.5161 19.9532 41.8045 20.8288Z" fill="#404259"/>
<path d="M53.0031 37.048L41.2947 26.3838C41.0744 26.183 40.7333 26.199 40.5323 26.4192C40.3318 26.6395 40.3477 26.9809 40.568 27.1817L52.2734 37.8434C52.5519 38.1008 52.7098 38.4801 52.7183 38.9113C52.7285 39.4243 52.5272 39.9377 52.1797 40.2851C51.8326 40.6323 51.32 40.8342 50.8059 40.8237C50.3747 40.8152 49.9954 40.6573 49.7407 40.3818L39.3075 28.9274C39.1068 28.7069 38.7654 28.6912 38.5451 28.8917C38.3248 29.0925 38.3089 29.4339 38.5097 29.6542L48.9453 41.1113C49.404 41.6073 50.0572 41.8886 50.7847 41.9029C50.8037 41.9031 50.8224 41.9034 50.8413 41.9034C51.6233 41.9034 52.4052 41.5862 52.9427 41.0484C53.4937 40.4974 53.8131 39.6908 53.7972 38.8901C53.7829 38.1626 53.5019 37.5094 53.0031 37.048Z" fill="#404259"/>
<path d="M24.5116 20.3147C25.4048 21.1375 26.5652 21.6067 27.7792 21.6358C27.783 21.6361 27.7869 21.6361 27.7904 21.6361L29.9097 21.6426C30.7359 21.6451 31.5299 21.9959 32.0872 22.6031L33.0208 23.6279C33.1273 23.7449 33.2732 23.8042 33.4199 23.8042C33.5495 23.8042 33.6797 23.7578 33.783 23.6636C34.0035 23.4628 34.0194 23.1214 33.8187 22.9011L32.8837 21.875C32.1224 21.045 31.0397 20.5671 29.9133 20.5632L27.7998 20.5566C26.8607 20.5327 25.9629 20.1732 25.2672 19.5434L19.1255 12.2424C19.0629 12.1677 19.0676 12.0595 19.1365 11.9906C19.1837 11.9431 19.2392 11.9362 19.2681 11.9362C19.2969 11.9362 19.3524 11.9431 19.3999 11.9906L24.9903 17.5813C25.5429 18.1339 26.4421 18.1339 26.9948 17.581L27.6517 16.9243V16.924L28.8182 15.7575C28.8182 15.7575 28.8185 15.7575 28.8185 15.7573L28.8188 15.757L29.4755 15.1003C30.0281 14.5477 30.0281 13.6484 29.4755 13.0958L23.8851 7.5054C23.8126 7.43289 23.8126 7.31452 23.8851 7.24201C23.954 7.17307 24.0622 7.1684 24.1369 7.23102L31.4379 13.3729C32.068 14.0684 32.4275 14.9665 32.4514 15.9053L32.4577 18.0191C32.4616 19.1452 32.9398 20.2279 33.7709 20.9909L34.7712 21.9019C34.9917 22.1027 35.3329 22.0868 35.5336 21.8665C35.7341 21.6459 35.7182 21.3048 35.4979 21.104L34.4993 20.1944C33.8903 19.6357 33.5399 18.8414 33.5371 18.0155L33.5305 15.8962C33.5305 15.8924 33.5305 15.8885 33.5303 15.8847C33.5012 14.6707 33.032 13.5103 32.2092 12.6171C32.1938 12.6003 32.1773 12.5844 32.1597 12.5696L24.8315 6.40512C24.3251 5.97885 23.5901 6.01071 23.1221 6.47873C22.6285 6.97229 22.6285 7.77512 23.1221 8.26841L28.7125 13.8591C28.8443 13.9909 28.8443 14.2054 28.7125 14.3373L28.437 14.6125L22.2064 8.38211C21.9957 8.17118 21.654 8.17118 21.4434 8.38211C21.2327 8.59278 21.2327 8.93445 21.4434 9.14512L27.674 15.3758L27.2702 15.7792L21.0396 9.54887C20.8289 9.3382 20.4873 9.3382 20.2766 9.54887C20.0657 9.75953 20.0657 10.1012 20.2766 10.3119L26.507 16.5425L26.2318 16.818C26.0999 16.9498 25.8854 16.9498 25.7536 16.818L20.1629 11.2276C19.9239 10.9886 19.6062 10.8568 19.2681 10.8568C18.93 10.8568 18.6122 10.9886 18.3732 11.2276C17.9052 11.6956 17.8736 12.4306 18.2996 12.9373L24.4643 20.2652C24.4789 20.2828 24.4948 20.2993 24.5116 20.3147Z" fill="#404259"/>
</g>
<defs>
<clipPath id="clip0">
<rect width="36" height="35.9298" fill="white" transform="translate(18 6)"/>
</clipPath>
</defs>
</svg>
