<svg width="44" height="60" viewBox="0 0 44 60" fill="none" xmlns="http://www.w3.org/2000/svg">
<path d="M22 0C10.363 0 0.90625 9.45703 0.90625 21.0938C0.90625 25.0312 1.99633 28.8634 4.07043 32.1681L20.5701 59.1697C20.8516 59.6268 21.2734 59.9081 21.7657 59.9784C22.4335 60.0838 23.1721 59.8027 23.5587 59.1347L40.1056 31.8867C42.0741 28.6525 43.0938 24.8907 43.0938 21.0938C43.0938 9.45703 33.637 0 22 0ZM22 31.6406C16.094 31.6406 11.4531 26.8594 11.4531 21.0938C11.4531 15.2929 16.1991 10.5469 22 10.5469C27.8009 10.5469 32.5469 15.2929 32.5469 21.0938C32.5469 26.8242 27.9764 31.6406 22 31.6406Z" fill="#FD003A"/>
</svg>
