<svg width="72" height="72" viewBox="0 0 72 72" fill="none" xmlns="http://www.w3.org/2000/svg">
<path d="M69.75 20.25C68.5073 20.25 67.5 19.2426 67.5 18V6.46875C67.5 5.38312 66.6169 4.5 65.5312 4.5H54C52.7573 4.5 51.75 3.49256 51.75 2.25C51.75 1.00744 52.7573 0 54 0H65.5312C69.0981 0 72 2.90194 72 6.46875V18C72 19.2426 70.9927 20.25 69.75 20.25Z" fill="currentColor"/>
<path d="M2.25 20.25C1.0073 20.25 0 19.2426 0 18V6.46875C0 2.90194 2.90194 0 6.46875 0H18C19.2427 0 20.25 1.00744 20.25 2.25C20.25 3.49256 19.2427 4.5 18 4.5H6.46875C5.38312 4.5 4.5 5.38312 4.5 6.46875V18C4.5 19.2426 3.4927 20.25 2.25 20.25Z" fill="currentColor"/>
<path d="M18 72H6.46875C2.90194 72 0 69.0981 0 65.5312V54C0 52.7574 1.0073 51.75 2.25 51.75C3.4927 51.75 4.5 52.7574 4.5 54V65.5312C4.5 66.6169 5.38312 67.5 6.46875 67.5H18C19.2427 67.5 20.25 68.5074 20.25 69.75C20.25 70.9926 19.2427 72 18 72Z" fill="currentColor"/>
<path d="M65.5312 72H54C52.7573 72 51.75 70.9926 51.75 69.75C51.75 68.5074 52.7573 67.5 54 67.5H65.5312C66.6169 67.5 67.5 66.6169 67.5 65.5312V54C67.5 52.7574 68.5073 51.75 69.75 51.75C70.9927 51.75 72 52.7574 72 54V65.5312C72 69.0981 69.0981 72 65.5312 72Z" fill="currentColor"/>
<path d="M27.2812 33.75H15.4688C11.9019 33.75 9 30.8481 9 27.2812V15.4688C9 11.9019 11.9019 9 15.4688 9H27.2812C30.8481 9 33.75 11.9019 33.75 15.4688V27.2812C33.75 30.8481 30.8481 33.75 27.2812 33.75ZM15.4688 13.5C14.3831 13.5 13.5 14.3831 13.5 15.4688V27.2812C13.5 28.3669 14.3831 29.25 15.4688 29.25H27.2812C28.3669 29.25 29.25 28.3669 29.25 27.2812V15.4688C29.25 14.3831 28.3669 13.5 27.2812 13.5H15.4688Z" fill="currentColor"/>
<path d="M27.2812 63H15.4688C11.9019 63 9 60.0981 9 56.5312V44.7188C9 41.1519 11.9019 38.25 15.4688 38.25H27.2812C30.8481 38.25 33.75 41.1519 33.75 44.7188V56.5312C33.75 60.0981 30.8481 63 27.2812 63ZM15.4688 42.75C14.3831 42.75 13.5 43.6331 13.5 44.7188V56.5312C13.5 57.6169 14.3831 58.5 15.4688 58.5H27.2812C28.3669 58.5 29.25 57.6169 29.25 56.5312V44.7188C29.25 43.6331 28.3669 42.75 27.2812 42.75H15.4688Z" fill="currentColor"/>
<path d="M56.5312 33.75H44.7188C41.1519 33.75 38.25 30.8481 38.25 27.2812V15.4688C38.25 11.9019 41.1519 9 44.7188 9H56.5312C60.0981 9 63 11.9019 63 15.4688V27.2812C63 30.8481 60.0981 33.75 56.5312 33.75ZM44.7188 13.5C43.6331 13.5 42.75 14.3831 42.75 15.4688V27.2812C42.75 28.3669 43.6331 29.25 44.7188 29.25H56.5312C57.6169 29.25 58.5 28.3669 58.5 27.2812V15.4688C58.5 14.3831 57.6169 13.5 56.5312 13.5H44.7188Z" fill="currentColor"/>
<path d="M59.3438 49.5H54V41.9062C54 39.8902 52.3599 38.25 50.3438 38.25H41.9062C39.8901 38.25 38.25 39.8902 38.25 41.9062V50.3438C38.25 52.3597 39.8901 54 41.9062 54H49.5V59.3438C49.5 61.3598 51.1401 63 53.1562 63H59.3438C61.3599 63 63 61.3598 63 59.3438V53.1562C63 51.1403 61.3599 49.5 59.3438 49.5ZM42.75 42.75H49.5V49.5H42.75V42.75ZM58.5 58.5H54V54H58.5V58.5Z" fill="currentColor"/>
<path d="M22.5 24.75H20.25C19.0073 24.75 18 23.7426 18 22.5V20.25C18 19.0074 19.0073 18 20.25 18H22.5C23.7427 18 24.75 19.0074 24.75 20.25V22.5C24.75 23.7426 23.7427 24.75 22.5 24.75Z" fill="currentColor"/>
<path d="M51.75 24.75H49.5C48.2573 24.75 47.25 23.7426 47.25 22.5V20.25C47.25 19.0074 48.2573 18 49.5 18H51.75C52.9927 18 54 19.0074 54 20.25V22.5C54 23.7426 52.9927 24.75 51.75 24.75Z" fill="currentColor"/>
<path d="M22.5 54H20.25C19.0073 54 18 52.9926 18 51.75V49.5C18 48.2574 19.0073 47.25 20.25 47.25H22.5C23.7427 47.25 24.75 48.2574 24.75 49.5V51.75C24.75 52.9926 23.7427 54 22.5 54Z" fill="currentColor"/>
</svg>
