<svg width="24" height="21" viewBox="0 0 24 21" fill="none" xmlns="http://www.w3.org/2000/svg">
<path d="M12.4719 7.50823L12 6.16058L11.5281 7.50823L10.7053 9.8579H8.24H6.47498L7.97776 10.7836L9.90265 11.9693L9.10925 14.1858L8.60606 15.5916L9.85434 14.7723L12 13.3642L14.1457 14.7723L15.3939 15.5916L14.8908 14.1858L14.0974 11.9693L16.0222 10.7836L17.525 9.8579H15.76H13.2947L12.4719 7.50823ZM9.58 9.13158H9.93459L10.0519 8.79695L12 3.2381L13.9481 8.79695L14.0654 9.13158H14.42H20.2373L15.5675 12.0126L15.2225 12.2254L15.3594 12.6069L17.2054 17.7533L12.274 14.523L11.9998 14.3434L11.7257 14.5232L6.80242 17.7534L8.64087 12.6063L8.77702 12.2251L8.43253 12.0126L3.76273 9.13158H9.58Z" fill="#404259" stroke="currentColor"/>
</svg>
