<svg width="23" height="18" viewBox="0 0 23 18" fill="none" xmlns="http://www.w3.org/2000/svg">
<path d="M22.5208 0.958318H14.8542H11.0209C10.5597 0.958318 10.153 1.18046 9.88982 1.51921C8.91794 0.54935 7.62621 0 6.22918 0C5.41358 0 4.60216 0.334129 4.05937 0.894215L3.06682 1.91664H2.02944C1.2522 1.91664 0.620012 2.56145 0.620012 3.35414C0.620012 3.58297 0.672885 3.79963 0.766457 3.99194C0.311668 4.23061 0 4.71446 0 5.27082C0 5.82718 0.311668 6.31103 0.766502 6.5497C0.67293 6.74201 0.620057 6.95867 0.620057 7.1875C0.620057 7.84637 1.05665 8.40273 1.65047 8.57213C1.58588 8.73686 1.55034 8.91654 1.55034 9.10418C1.55034 9.89687 2.18253 10.5417 2.95977 10.5417H7.1875C8.10027 10.5417 8.9859 10.2441 9.72132 9.70887C9.95055 10.1991 10.4449 10.5417 11.0208 10.5417H14.375V16.7709C14.375 17.0357 14.5893 17.25 14.8542 17.25C15.9257 17.25 16.4887 16.9688 16.9852 16.7203C17.4452 16.4901 17.8424 16.2917 18.6875 16.2917C19.5327 16.2917 19.9299 16.4901 20.3899 16.7203C20.8863 16.9688 21.4493 17.25 22.5208 17.25C22.7857 17.25 23 17.0357 23 16.7708V1.4375C23 1.17264 22.7857 0.958318 22.5208 0.958318ZM9.58332 8.55178C8.9443 9.20252 8.08535 9.58336 7.1875 9.58336H2.95968C2.71072 9.58336 2.50857 9.36859 2.50857 9.10418C2.50857 8.83982 2.71072 8.625 2.95968 8.625H3.35414C3.619 8.625 3.83332 8.41068 3.83332 8.14582C3.83332 7.88096 3.619 7.66664 3.35414 7.66664H2.02939C1.78043 7.66664 1.57829 7.45186 1.57829 7.18745C1.57829 6.92304 1.78043 6.70827 2.02939 6.70827H2.39577C2.66063 6.70827 2.87496 6.49395 2.87496 6.22909C2.875 5.96432 2.66068 5.75 2.39582 5.75H1.40942C1.16047 5.75 0.958318 5.53523 0.958318 5.27082C0.958318 5.00645 1.16047 4.79164 1.40942 4.79164H2.39582C2.66068 4.79168 2.875 4.57736 2.875 4.3125C2.875 4.04764 2.66068 3.83332 2.39582 3.83332H2.02944C1.78048 3.83332 1.57833 3.61855 1.57833 3.35414C1.57833 3.08977 1.78048 2.87496 2.02944 2.87496H5.12999C5.39485 2.87496 5.60917 2.66063 5.60917 2.39577C5.60917 2.13091 5.39485 1.91659 5.12999 1.91659H4.40248L4.74721 1.56144C5.10798 1.18944 5.67606 0.958273 6.22918 0.958273C7.55433 0.958273 8.7661 1.56279 9.58336 2.61364V8.55178H9.58332ZM14.375 9.58332H11.0208C10.7565 9.58332 10.5416 9.36855 10.5416 9.10414V2.39582C10.5416 2.13145 10.7564 1.91664 11.0208 1.91664H14.375V9.58332ZM22.0417 16.2669C21.5054 16.2065 21.1816 16.0446 20.8185 15.863C20.322 15.6146 19.7591 15.3333 18.6875 15.3333C17.6159 15.3333 17.053 15.6145 16.5565 15.863C16.1934 16.0446 15.8696 16.2065 15.3333 16.2669V1.91668H22.0416V16.2669H22.0417Z" fill="currentColor"/>
<path d="M12.4583 8.62497C12.9876 8.62497 13.4166 8.19592 13.4166 7.66666C13.4166 7.1374 12.9876 6.70834 12.4583 6.70834C11.9291 6.70834 11.5 7.1374 11.5 7.66666C11.5 8.19592 11.9291 8.62497 12.4583 8.62497Z" fill="currentColor"/>
</svg>
