<svg xmlns="http://www.w3.org/2000/svg" xmlns:xlink="http://www.w3.org/1999/xlink" width="1440" height="900" viewBox="0 0 1440 900">
    <defs>
        <clipPath id="clip-path">
            <rect id="Rectangle_23" data-name="Rectangle 23" width="1440" height="900" fill="#fff"/>
        </clipPath>
        <clipPath id="clip-path-2">
            <rect id="Rectangle_6" data-name="Rectangle 6" width="20" height="20" transform="translate(62 92)" fill="#fff"/>
        </clipPath>
        <clipPath id="clip-path-3">
            <rect id="Rectangle_8" data-name="Rectangle 8" width="20" height="20" transform="translate(73 212)" fill="#fff"/>
        </clipPath>
        <clipPath id="clip-path-4">
            <rect id="Rectangle_10" data-name="Rectangle 10" width="20" height="20" transform="translate(75 332)" fill="#fff"/>
        </clipPath>
        <clipPath id="clip-path-5">
            <rect id="Rectangle_12" data-name="Rectangle 12" width="20" height="20" transform="translate(65 392)" fill="#fff"/>
        </clipPath>
        <clipPath id="clip-path-6">
            <rect id="Rectangle_14" data-name="Rectangle 14" width="20" height="20" transform="translate(68 451)" fill="#fff"/>
        </clipPath>
    </defs>
    <g id="theme" clip-path="url(#clip-path)">
        <rect id="Rectangle_1" data-name="Rectangle 1" width="1440" height="900" class="secondary"/>
        <rect id="Rectangle_2" data-name="Rectangle 2" width="220" height="900" fill="#fff"/>
        <rect id="Rectangle_3" data-name="Rectangle 3" width="1440" height="48" fill="#fff"/>
        <rect id="Rectangle_4" data-name="Rectangle 4" width="172" height="36" rx="18" transform="translate(24 144)" class="secondary"/>
        <path id="Path_1" data-name="Path 1" d="M85.917,164.335a8.925,8.925,0,0,0-8.331-8.526V155.1h1V153.93H75.418V155.1h1v.707a8.925,8.925,0,0,0-8.331,8.526H67v1.333a2.366,2.366,0,0,0,2.363,2.363H84.637A2.366,2.366,0,0,0,87,165.668v-1.333ZM77,156.962a7.763,7.763,0,0,1,7.744,7.373H69.256A7.763,7.763,0,0,1,77,156.962Zm8.828,8.706a1.192,1.192,0,0,1-1.191,1.191H69.363a1.192,1.192,0,0,1-1.191-1.191v-.161H85.828Z" fill="#404259"/>
        <path id="Path_2" data-name="Path 2" d="M70.346,163.26l1.16.169a4.378,4.378,0,0,1,1.181-2.327l-.774-.881A5.521,5.521,0,0,0,70.346,163.26Z" fill="#404259"/>
        <path id="Path_3" data-name="Path 3" d="M98.3,168.16a4.941,4.941,0,0,1-2.608-.592,3.281,3.281,0,0,1-1.376-1.808,10.791,10.791,0,0,1-.4-3.248,10.5,10.5,0,0,1,.416-3.248,3.359,3.359,0,0,1,1.376-1.872,5.629,5.629,0,0,1,5.152,0,3.358,3.358,0,0,1,1.376,1.872,12.776,12.776,0,0,1,.016,6.528,3.138,3.138,0,0,1-1.36,1.792A4.965,4.965,0,0,1,98.3,168.16Zm0-1.088a3.3,3.3,0,0,0,1.872-.448,2.4,2.4,0,0,0,.944-1.408,10.386,10.386,0,0,0,.272-2.672,10.188,10.188,0,0,0-.288-2.7,2.568,2.568,0,0,0-.944-1.488,3.1,3.1,0,0,0-1.872-.5,3.177,3.177,0,0,0-1.872.48,2.64,2.64,0,0,0-.96,1.488,10.682,10.682,0,0,0-.272,2.688,10.485,10.485,0,0,0,.272,2.672,2.476,2.476,0,0,0,.944,1.44A3.464,3.464,0,0,0,98.3,167.072ZM104.715,160H105.9v1.088a7.987,7.987,0,0,1,2.928-1.264v1.216a9.4,9.4,0,0,0-1.36.4,9.584,9.584,0,0,0-1.152.48l-.4.208V168h-1.2Zm7.808,8.16a2.426,2.426,0,0,1-2.176-.976,5.588,5.588,0,0,1-.656-3.04,5.423,5.423,0,0,1,.784-3.3,3.153,3.153,0,0,1,2.624-1.008,9.259,9.259,0,0,1,1.9.208v-3.536h1.184V168H115v-.544A4.96,4.96,0,0,1,112.523,168.16Zm.224-1.072a4.444,4.444,0,0,0,1.008-.128,5.884,5.884,0,0,0,.928-.32l.32-.144v-5.424a10.151,10.151,0,0,0-1.808-.192,2.009,2.009,0,0,0-1.776.736,4.5,4.5,0,0,0-.5,2.432,5.091,5.091,0,0,0,.4,2.3A1.5,1.5,0,0,0,112.747,167.088Zm8.663,1.072a3.164,3.164,0,0,1-2.592-.944,4.868,4.868,0,0,1-.752-3.008,5.432,5.432,0,0,1,.816-3.3,3.01,3.01,0,0,1,2.56-1.072,2.947,2.947,0,0,1,2.384.928,4.189,4.189,0,0,1,.8,2.816l-.064.912h-5.28a4.6,4.6,0,0,0,.208,1.552,1.5,1.5,0,0,0,.736.816,3.592,3.592,0,0,0,1.456.24q.463,0,1.072-.016.607-.031,1.1-.08l.464-.048.032.944A21.316,21.316,0,0,1,121.41,168.16Zm2.016-4.624a3.486,3.486,0,0,0-.464-2.064,1.771,1.771,0,0,0-1.52-.624,1.971,1.971,0,0,0-1.632.656,3.233,3.233,0,0,0-.544,2.032ZM126.5,160h1.184v1.088a7.987,7.987,0,0,1,2.928-1.264v1.216a9.4,9.4,0,0,0-1.36.4,9.586,9.586,0,0,0-1.152.48l-.4.208V168h-1.2Zm8.043,8.16a15.257,15.257,0,0,1-2.352-.224l-.48-.08.064-1.04a21.426,21.426,0,0,0,2.752.272,2.638,2.638,0,0,0,1.424-.3,1.124,1.124,0,0,0,.48-1.008,1.061,1.061,0,0,0-.24-.752,1.248,1.248,0,0,0-.592-.368,6.713,6.713,0,0,0-1.008-.208l-.4-.064a7.261,7.261,0,0,1-1.5-.384,1.755,1.755,0,0,1-.816-.624,2.536,2.536,0,0,1,.512-2.976,3.869,3.869,0,0,1,2.224-.544,13.362,13.362,0,0,1,2.32.208l.448.08-.032,1.024a19.609,19.609,0,0,0-2.7-.256,2.682,2.682,0,0,0-1.392.288.989.989,0,0,0-.448.9.949.949,0,0,0,.224.672,1.4,1.4,0,0,0,.576.336q.367.1,1.024.208l.4.08a6.972,6.972,0,0,1,1.536.416,1.6,1.6,0,0,1,.8.656,2.25,2.25,0,0,1,.272,1.2,2.28,2.28,0,0,1-.768,1.9A3.728,3.728,0,0,1,134.539,168.16Z" fill="#404259"/>
        <rect id="Rectangle_5" data-name="Rectangle 5" width="172" height="36" rx="18" transform="translate(24 84)" class="secondary"/>
        <g id="Group_1" data-name="Group 1" clip-path="url(#clip-path-2)">
            <path id="Path_4" data-name="Path 4" d="M71.167,102.274V93.25a.417.417,0,0,0-.417-.417c-4.825,0-8.75,4.3-8.75,9.584A9.594,9.594,0,0,0,71.583,112a7.119,7.119,0,0,0,5.265-1.762.416.416,0,0,0,.064-.577Zm.417,8.893a8.76,8.76,0,0,1-8.75-8.75c0-4.67,3.327-8.5,7.5-8.739v8.739a.412.412,0,0,0,.088.255L76,109.847A6.306,6.306,0,0,1,71.583,111.167Z" fill="#404259"/>
            <path id="Path_5" data-name="Path 5" d="M72.417,102h9.167a.417.417,0,0,0,.417-.417A9.594,9.594,0,0,0,72.417,92a.417.417,0,0,0-.417.417v9.166A.417.417,0,0,0,72.417,102Zm.417-9.157a8.761,8.761,0,0,1,8.323,8.324H72.833Z" fill="#404259"/>
            <path id="Path_6" data-name="Path 6" d="M81.583,102.833H73.25a.417.417,0,0,0-.324.679l5.417,6.706a.419.419,0,0,0,.295.154h.029a.418.418,0,0,0,.284-.112A9.622,9.622,0,0,0,82,103.25.417.417,0,0,0,81.583,102.833Zm-2.881,6.5-4.58-5.67h7.034A8.793,8.793,0,0,1,78.7,109.337Z" fill="#404259"/>
        </g>
        <path id="Path_7" data-name="Path 7" d="M93.312,96.928a3.964,3.964,0,0,1,2.576.736A3.515,3.515,0,0,1,97.1,99.536a10.335,10.335,0,0,1,.3,2.656,7.659,7.659,0,0,1-1.008,4.432A3.55,3.55,0,0,1,93.312,108H89.36V96.928Zm0,9.984q2.832,0,2.832-4.608a5.994,5.994,0,0,0-.688-3.264,2.4,2.4,0,0,0-2.144-1.024h-2.72v8.9Zm7.9,1.248a2.175,2.175,0,0,1-1.68-.624,2.548,2.548,0,0,1-.576-1.792,2.289,2.289,0,0,1,.576-1.712,3.129,3.129,0,0,1,1.872-.688l2.512-.24v-.688q0-1.52-1.312-1.52a28.94,28.94,0,0,0-3.152.208l-.048-.912a15.608,15.608,0,0,1,3.121-.352,2.658,2.658,0,0,1,1.968.624,2.631,2.631,0,0,1,.624,1.952v4.1q.048.592.928.7l-.048.944a2.581,2.581,0,0,1-1.9-.64A6.965,6.965,0,0,1,101.209,108.16Zm.192-1.008a6.581,6.581,0,0,0,2.144-.368l.368-.128v-2.64l-2.368.224a1.54,1.54,0,0,0-1.04.416,1.47,1.47,0,0,0-.32,1.024Q100.185,107.152,101.4,107.152Zm8.591,1.008a15.257,15.257,0,0,1-2.352-.224l-.48-.08.064-1.04a21.425,21.425,0,0,0,2.752.272,2.638,2.638,0,0,0,1.424-.3,1.124,1.124,0,0,0,.48-1.008,1.061,1.061,0,0,0-.24-.752,1.249,1.249,0,0,0-.592-.368,6.715,6.715,0,0,0-1.008-.208l-.4-.064a7.26,7.26,0,0,1-1.5-.384,1.755,1.755,0,0,1-.816-.624,2.536,2.536,0,0,1,.512-2.976,3.869,3.869,0,0,1,2.224-.544,13.391,13.391,0,0,1,2.32.208l.448.08-.032,1.024a19.61,19.61,0,0,0-2.7-.256,2.682,2.682,0,0,0-1.392.288.989.989,0,0,0-.448.9.949.949,0,0,0,.224.672,1.4,1.4,0,0,0,.576.336q.368.1,1.024.208l.4.08a6.973,6.973,0,0,1,1.536.416,1.6,1.6,0,0,1,.8.656,2.25,2.25,0,0,1,.272,1.2,2.28,2.28,0,0,1-.768,1.9A3.728,3.728,0,0,1,109.992,108.16Zm4.926-11.648h1.2v3.936a7.4,7.4,0,0,1,1.3-.464,5.326,5.326,0,0,1,1.232-.144,2.817,2.817,0,0,1,1.6.384,1.962,1.962,0,0,1,.8,1.216,8.949,8.949,0,0,1,.24,2.336V108h-1.2v-4.192a8.106,8.106,0,0,0-.144-1.776,1.307,1.307,0,0,0-.512-.864,1.941,1.941,0,0,0-1.1-.256,5.474,5.474,0,0,0-1.9.368l-.3.112V108h-1.2ZM126.1,108.144a20.844,20.844,0,0,1-2.144-.112l-.448-.048V96.512h1.184V100.4a5.925,5.925,0,0,1,2.432-.56,2.909,2.909,0,0,1,1.664.416,2.261,2.261,0,0,1,.88,1.3,8.082,8.082,0,0,1,.288,2.4,7.214,7.214,0,0,1-.352,2.544,2.256,2.256,0,0,1-1.184,1.28A5.818,5.818,0,0,1,126.1,108.144Zm.128-1.056a3.22,3.22,0,0,0,1.552-.3,1.667,1.667,0,0,0,.752-.992,6.6,6.6,0,0,0,.208-1.872,6.984,6.984,0,0,0-.176-1.776,1.593,1.593,0,0,0-.592-.944,1.889,1.889,0,0,0-1.12-.288,6.584,6.584,0,0,0-2.16.464v5.632Q125.847,107.087,126.231,107.088Zm8.774,1.072a4.216,4.216,0,0,1-2.032-.416,2.4,2.4,0,0,1-1.072-1.328,8.946,8.946,0,0,1,.016-4.8,2.393,2.393,0,0,1,1.088-1.344,4,4,0,0,1,2-.432,3.945,3.945,0,0,1,2,.432,2.464,2.464,0,0,1,1.088,1.344,8.946,8.946,0,0,1,.016,4.8,2.4,2.4,0,0,1-1.072,1.328A4.154,4.154,0,0,1,135.005,108.16Zm.016-1.04a2.567,2.567,0,0,0,1.344-.288,1.569,1.569,0,0,0,.64-.944,6.865,6.865,0,0,0,.192-1.84,7.374,7.374,0,0,0-.192-1.92,1.577,1.577,0,0,0-.656-.96,2.53,2.53,0,0,0-1.328-.288,2.621,2.621,0,0,0-1.344.288,1.646,1.646,0,0,0-.672.96,9.619,9.619,0,0,0-.016,3.744,1.649,1.649,0,0,0,.656.96A2.7,2.7,0,0,0,135.021,107.12Zm7.109,1.04a2.174,2.174,0,0,1-1.68-.624,2.548,2.548,0,0,1-.576-1.792,2.289,2.289,0,0,1,.576-1.712,3.131,3.131,0,0,1,1.872-.688l2.512-.24v-.688q0-1.52-1.312-1.52a28.94,28.94,0,0,0-3.152.208l-.048-.912a15.615,15.615,0,0,1,3.12-.352,2.239,2.239,0,0,1,2.592,2.576v4.1q.048.592.928.7l-.048.944a2.584,2.584,0,0,1-1.9-.64A6.958,6.958,0,0,1,142.13,108.16Zm.192-1.008a6.572,6.572,0,0,0,2.144-.368l.368-.128v-2.64l-2.368.224a1.542,1.542,0,0,0-1.04.416,1.475,1.475,0,0,0-.32,1.024Q141.106,107.152,142.322,107.152ZM148.4,100h1.184v1.088a7.988,7.988,0,0,1,2.928-1.264v1.216a9.43,9.43,0,0,0-1.36.4,9.586,9.586,0,0,0-1.152.48l-.4.208V108h-1.2Zm7.808,8.16a2.427,2.427,0,0,1-2.176-.976,5.6,5.6,0,0,1-.656-3.04,5.423,5.423,0,0,1,.784-3.3,3.153,3.153,0,0,1,2.624-1.008,9.274,9.274,0,0,1,1.9.208V96.512h1.184V108H158.69v-.544A4.957,4.957,0,0,1,156.21,108.16Zm.224-1.072a4.444,4.444,0,0,0,1.008-.128,5.848,5.848,0,0,0,.928-.32l.32-.144v-5.424a10.143,10.143,0,0,0-1.808-.192,2.009,2.009,0,0,0-1.776.736,4.5,4.5,0,0,0-.5,2.432,5.091,5.091,0,0,0,.4,2.3A1.5,1.5,0,0,0,156.434,107.088Z" fill="#404259"/>
        <rect id="Rectangle_7" data-name="Rectangle 7" width="172" height="36" rx="18" transform="translate(24 204)" class="secondary"/>
        <g id="Group_2" data-name="Group 2" clip-path="url(#clip-path-3)">
            <path id="Path_8" data-name="Path 8" d="M79.1,220.75H77.019a.625.625,0,0,1,0-1.25H79.1a.625.625,0,0,1,0,1.25Z" fill="#404259"/>
            <path id="Path_9" data-name="Path 9" d="M89.1,220.75h-6.25a.625.625,0,0,1,0-1.25H89.1a.625.625,0,0,1,0,1.25Z" fill="#404259"/>
            <path id="Path_10" data-name="Path 10" d="M79.1,224.083H77.019a.625.625,0,0,1,0-1.25H79.1a.625.625,0,1,1,0,1.25Z" fill="#404259"/>
            <path id="Path_11" data-name="Path 11" d="M89.1,224.083h-6.25a.625.625,0,0,1,0-1.25H89.1a.625.625,0,1,1,0,1.25Z" fill="#404259"/>
            <path id="Path_12" data-name="Path 12" d="M79.1,227.417H77.019a.625.625,0,1,1,0-1.25H79.1a.625.625,0,0,1,0,1.25Z" fill="#404259"/>
            <path id="Path_13" data-name="Path 13" d="M89.1,227.417h-6.25a.625.625,0,1,1,0-1.25H89.1a.625.625,0,0,1,0,1.25Z" fill="#404259"/>
            <path id="Path_14" data-name="Path 14" d="M90.708,231.167H75.292A2.294,2.294,0,0,1,73,228.875v-13.75a2.294,2.294,0,0,1,2.292-2.292H90.708A2.294,2.294,0,0,1,93,215.125v13.75A2.294,2.294,0,0,1,90.708,231.167ZM75.292,214.083a1.044,1.044,0,0,0-1.042,1.042v13.75a1.044,1.044,0,0,0,1.042,1.042H90.708a1.044,1.044,0,0,0,1.042-1.042v-13.75a1.044,1.044,0,0,0-1.042-1.042Z" fill="#404259"/>
            <path id="Path_15" data-name="Path 15" d="M92.375,217H73.625a.625.625,0,0,1,0-1.25h18.75a.625.625,0,0,1,0,1.25Z" fill="#404259"/>
        </g>
        <path id="Path_16" data-name="Path 16" d="M111.08,217.928V229h-1.232v-9.76h-.224l-3.216,9.36h-1.376l-3.216-9.36h-.224V229H100.36V217.928h2.224l3.136,9.376,3.136-9.376ZM116.5,229.16a3.164,3.164,0,0,1-2.592-.944,4.875,4.875,0,0,1-.752-3.008,5.432,5.432,0,0,1,.816-3.3,3.011,3.011,0,0,1,2.56-1.072,2.944,2.944,0,0,1,2.384.928,4.184,4.184,0,0,1,.8,2.816l-.064.912h-5.28a4.627,4.627,0,0,0,.208,1.552,1.5,1.5,0,0,0,.736.816,3.6,3.6,0,0,0,1.456.24q.465,0,1.072-.016.609-.031,1.1-.08l.464-.048.032.944A21.3,21.3,0,0,1,116.5,229.16Zm2.016-4.624a3.479,3.479,0,0,0-.464-2.064,1.77,1.77,0,0,0-1.52-.624,1.971,1.971,0,0,0-1.632.656,3.239,3.239,0,0,0-.544,2.032ZM121.59,221h1.184v.56a5.95,5.95,0,0,1,1.312-.56,4.926,4.926,0,0,1,1.264-.16,2.784,2.784,0,0,1,1.584.384,2.064,2.064,0,0,1,.784,1.232,8.763,8.763,0,0,1,.24,2.32V229h-1.184v-4.192a8.037,8.037,0,0,0-.144-1.744,1.445,1.445,0,0,0-.48-.88,1.653,1.653,0,0,0-1.024-.272,4.609,4.609,0,0,0-1.12.144,4.1,4.1,0,0,0-.912.3l-.305.144V229h-1.2Zm11.089,8.16a2.882,2.882,0,0,1-1.584-.368,2.1,2.1,0,0,1-.768-1.232,9.836,9.836,0,0,1-.224-2.384V221h1.2v4.16a9.489,9.489,0,0,0,.128,1.808,1.409,1.409,0,0,0,.464.864,1.714,1.714,0,0,0,1.04.256,4.881,4.881,0,0,0,2.24-.592V221h1.2v8h-1.2v-.56a5.974,5.974,0,0,1-1.216.56A4.653,4.653,0,0,1,132.679,229.16Zm8.516,0a15.257,15.257,0,0,1-2.352-.224l-.48-.08.064-1.04a21.442,21.442,0,0,0,2.752.272,2.637,2.637,0,0,0,1.424-.3,1.124,1.124,0,0,0,.48-1.008,1.061,1.061,0,0,0-.24-.752,1.244,1.244,0,0,0-.592-.368,6.658,6.658,0,0,0-1.008-.208l-.4-.064a7.261,7.261,0,0,1-1.5-.384,1.766,1.766,0,0,1-.816-.624,2.059,2.059,0,0,1-.272-1.136,2.082,2.082,0,0,1,.784-1.84,3.869,3.869,0,0,1,2.224-.544,13.353,13.353,0,0,1,2.32.208l.448.08-.032,1.024a19.608,19.608,0,0,0-2.7-.256,2.687,2.687,0,0,0-1.392.288.991.991,0,0,0-.448.9.949.949,0,0,0,.224.672,1.413,1.413,0,0,0,.576.336q.369.1,1.024.208l.4.08a6.941,6.941,0,0,1,1.536.416,1.592,1.592,0,0,1,.8.656,2.24,2.24,0,0,1,.272,1.2,2.28,2.28,0,0,1-.768,1.9A3.726,3.726,0,0,1,141.2,229.16Z" fill="#404259"/>
        <rect id="Rectangle_9" data-name="Rectangle 9" width="172" height="36" rx="18" transform="translate(24 324)" class="secondary"/>
        <g id="Group_3" data-name="Group 3" clip-path="url(#clip-path-4)">
            <path id="Path_17" data-name="Path 17" d="M94.583,333.667H80.417a.417.417,0,1,0,0,.833H94.583a.417.417,0,1,0,0-.833Z"/>
            <path id="Path_18" data-name="Path 18" d="M88.75,336.167H80.417a.417.417,0,1,0,0,.833H88.75a.417.417,0,1,0,0-.833Z"/>
            <path id="Path_19" data-name="Path 19" d="M94.583,340.333H80.417a.417.417,0,0,0,0,.834H94.583a.417.417,0,0,0,0-.834Z"/>
            <path id="Path_20" data-name="Path 20" d="M88.75,342.833H80.417a.417.417,0,0,0,0,.834H88.75a.417.417,0,0,0,0-.834Z"/>
            <path id="Path_21" data-name="Path 21" d="M94.583,347H80.417a.417.417,0,1,0,0,.833H94.583a.417.417,0,1,0,0-.833Z"/>
            <path id="Path_22" data-name="Path 22" d="M88.75,349.5H80.417a.417.417,0,1,0,0,.833H88.75a.417.417,0,1,0,0-.833Z"/>
            <path id="Path_23" data-name="Path 23" d="M76.667,333.667a1.667,1.667,0,1,0,1.667,1.666A1.668,1.668,0,0,0,76.667,333.667Zm0,2.5a.833.833,0,1,1,.833-.834A.834.834,0,0,1,76.667,336.167Z"/>
            <path id="Path_24" data-name="Path 24" d="M76.667,340.333A1.667,1.667,0,1,0,78.333,342,1.669,1.669,0,0,0,76.667,340.333Zm0,2.5A.833.833,0,1,1,77.5,342,.834.834,0,0,1,76.667,342.833Z"/>
            <path id="Path_25" data-name="Path 25" d="M76.667,347a1.667,1.667,0,1,0,1.667,1.667A1.668,1.668,0,0,0,76.667,347Zm0,2.5a.833.833,0,1,1,.833-.833A.834.834,0,0,1,76.667,349.5Z"/>
        </g>
        <path id="Path_26" data-name="Path 26" d="M102.36,336.928h1.232V348H102.36Zm6.274,11.248a2.664,2.664,0,0,1-1.28-.256,1.574,1.574,0,0,1-.656-.9,6.454,6.454,0,0,1-.192-1.776V341.04H105.37V340h1.136v-2.448h1.184V340h2.544v1.04H107.69v3.824a10.289,10.289,0,0,0,.064,1.344.924.924,0,0,0,1.088.9l1.424-.1.08.992A12.3,12.3,0,0,1,108.634,348.176Zm6.057-.016a3.164,3.164,0,0,1-2.592-.944,4.875,4.875,0,0,1-.752-3.008,5.432,5.432,0,0,1,.816-3.3,3.01,3.01,0,0,1,2.56-1.072,2.946,2.946,0,0,1,2.384.928,4.189,4.189,0,0,1,.8,2.816l-.064.912h-5.28a4.6,4.6,0,0,0,.208,1.552,1.5,1.5,0,0,0,.736.816,3.593,3.593,0,0,0,1.456.24c.309,0,.667-.005,1.072-.016s.773-.048,1.1-.08l.464-.048.032.944A21.3,21.3,0,0,1,114.691,348.16Zm2.016-4.624a3.486,3.486,0,0,0-.464-2.064,1.77,1.77,0,0,0-1.52-.624,1.971,1.971,0,0,0-1.632.656,3.239,3.239,0,0,0-.544,2.032Zm3.07-3.536h1.184v.56a4.631,4.631,0,0,1,2.4-.72,3.2,3.2,0,0,1,1.184.208,1.738,1.738,0,0,1,.832.608,5.733,5.733,0,0,1,1.392-.576,5.647,5.647,0,0,1,1.632-.24,2.522,2.522,0,0,1,1.52.4,2.09,2.09,0,0,1,.768,1.232,8.789,8.789,0,0,1,.24,2.3V348h-1.2v-4.192a9.041,9.041,0,0,0-.128-1.744,1.435,1.435,0,0,0-.48-.88,1.581,1.581,0,0,0-1.008-.272,4.416,4.416,0,0,0-1.1.144,4.141,4.141,0,0,0-.912.3l-.3.144A7.892,7.892,0,0,1,126,343.84V348h-1.2v-4.128a9.378,9.378,0,0,0-.128-1.792,1.493,1.493,0,0,0-.464-.9,1.581,1.581,0,0,0-1.008-.272,4.179,4.179,0,0,0-1.072.144,3.8,3.8,0,0,0-.88.3l-.272.144V348h-1.2Zm15.887,8.16a15.259,15.259,0,0,1-2.352-.224l-.48-.08.064-1.04a21.426,21.426,0,0,0,2.752.272,2.638,2.638,0,0,0,1.424-.3,1.124,1.124,0,0,0,.48-1.008,1.061,1.061,0,0,0-.24-.752,1.248,1.248,0,0,0-.592-.368,6.713,6.713,0,0,0-1.008-.208l-.4-.064a7.261,7.261,0,0,1-1.5-.384,1.755,1.755,0,0,1-.816-.624,2.536,2.536,0,0,1,.512-2.976,3.869,3.869,0,0,1,2.224-.544,13.361,13.361,0,0,1,2.32.208l.448.08-.032,1.024a19.611,19.611,0,0,0-2.7-.256,2.682,2.682,0,0,0-1.392.288.989.989,0,0,0-.448.9.949.949,0,0,0,.224.672,1.4,1.4,0,0,0,.576.336q.367.1,1.024.208l.4.08a6.972,6.972,0,0,1,1.536.416,1.6,1.6,0,0,1,.8.656,2.25,2.25,0,0,1,.272,1.2,2.28,2.28,0,0,1-.768,1.9A3.728,3.728,0,0,1,135.664,348.16Z" fill="#404259"/>
        <rect id="Rectangle_11" data-name="Rectangle 11" width="172" height="36" rx="18" transform="translate(24 384)" class="primary"/>
        <g id="Group_4" data-name="Group 4" clip-path="url(#clip-path-5)">
            <path id="Path_27" data-name="Path 27" d="M75,392a6.883,6.883,0,0,0-6.875,6.875v.026a7.628,7.628,0,0,0,1.054,3.867l5.266,8.943a.589.589,0,0,0,.5.289h0a.586.586,0,0,0,.5-.286l5.34-8.927a7.624,7.624,0,0,0,1.081-3.912A6.883,6.883,0,0,0,75,392Zm4.786,10.184-4.832,8.079-4.764-8.091A6.452,6.452,0,0,1,69.3,398.9v-.026a5.7,5.7,0,1,1,11.4,0A6.448,6.448,0,0,1,79.786,402.184Z" fill="#fff"/>
            <path id="Path_28" data-name="Path 28" d="M73.037,395.472a1.815,1.815,0,0,0-1.444.781,2.918,2.918,0,0,0,0,3.321,1.947,1.947,0,0,0,.857.669v3.4a.587.587,0,0,0,1.174,0v-3.4a1.948,1.948,0,0,0,.857-.669,2.919,2.919,0,0,0,0-3.321A1.815,1.815,0,0,0,73.037,395.472Zm0,3.708c-.42,0-.788-.592-.788-1.267s.368-1.266.788-1.266.788.592.788,1.266S73.457,399.18,73.037,399.18Z" fill="#fff"/>
            <path id="Path_29" data-name="Path 29" d="M76.682,395.464a.588.588,0,0,0-.7.576v7.546a.587.587,0,0,0,1.174,0v-2.423l.829,0a.944.944,0,0,0,.941-.969C78.816,396.006,76.9,395.508,76.682,395.464Zm.473,4.525v-2.622a6.06,6.06,0,0,1,.588,2.62Z" fill="#fff"/>
        </g>
        <path id="Path_30" data-name="Path 30" d="M98.376,406.048V408H92.184V397.12h2.208v8.928Zm4.427,2.144a3.447,3.447,0,0,1-2.752-1.088,4.714,4.714,0,0,1-.928-3.12,4.621,4.621,0,0,1,.928-3.088,3.447,3.447,0,0,1,2.752-1.088,3.4,3.4,0,0,1,2.736,1.088,4.571,4.571,0,0,1,.944,3.088,4.662,4.662,0,0,1-.944,3.12A3.4,3.4,0,0,1,102.8,408.192Zm0-1.824a1.264,1.264,0,0,0,1.136-.56,3.435,3.435,0,0,0,.368-1.824,3.347,3.347,0,0,0-.368-1.808,1.458,1.458,0,0,0-2.272,0,3.347,3.347,0,0,0-.368,1.808,3.435,3.435,0,0,0,.368,1.824A1.264,1.264,0,0,0,102.8,406.368Zm8.148,1.824a3.009,3.009,0,0,1-2.512-.992,5.311,5.311,0,0,1-.768-3.2,5.06,5.06,0,0,1,.8-3.2,3.158,3.158,0,0,1,2.608-.992,7.349,7.349,0,0,1,1.024.08q.56.08,1.5.272l-.064,1.7q-1.36-.127-1.888-.128a2.4,2.4,0,0,0-1.12.208,1.092,1.092,0,0,0-.544.672,5.051,5.051,0,0,0-.144,1.376,5.127,5.127,0,0,0,.144,1.392,1.157,1.157,0,0,0,.544.688,2.545,2.545,0,0,0,1.152.208l1.856-.128.064,1.712A14.6,14.6,0,0,1,110.951,408.192Zm6.2,0q-2.479,0-2.48-2.624a2.206,2.206,0,0,1,.656-1.792,3.727,3.727,0,0,1,2.144-.656l1.712-.128v-.5a.85.85,0,0,0-.224-.672,1.06,1.06,0,0,0-.72-.192q-.528,0-1.456.048-.928.031-1.552.08l-.064-1.488a12.619,12.619,0,0,1,3.264-.464,3.137,3.137,0,0,1,2.208.64,2.68,2.68,0,0,1,.688,2.048v3.328a1.245,1.245,0,0,0,.128.544.679.679,0,0,0,.4.208l-.064,1.616a6.251,6.251,0,0,1-1.328-.112,2.79,2.79,0,0,1-.96-.448A5.4,5.4,0,0,1,117.147,408.192Zm.464-1.744a5.184,5.184,0,0,0,1.328-.192l.24-.064V404.48l-1.456.128a.868.868,0,0,0-.9.96Q116.827,406.449,117.611,406.448Zm8.476,1.744a2.965,2.965,0,0,1-1.44-.288,1.634,1.634,0,0,1-.736-.944,5.808,5.808,0,0,1-.224-1.808v-3.328h-.944V400h.944v-2.224h2.144V400H127.8v1.824h-1.968v3.28a2.7,2.7,0,0,0,.112.912c.075.181.261.267.56.256l1.216-.032.1,1.712q-.641.144-1.008.192A5.334,5.334,0,0,1,126.087,408.192ZM129.2,400h2.144v8H129.2Zm0-3.184h2.144v2.16H129.2Zm7.311,11.376a3.447,3.447,0,0,1-2.752-1.088,4.713,4.713,0,0,1-.928-3.12,4.62,4.62,0,0,1,.928-3.088,3.447,3.447,0,0,1,2.752-1.088,3.4,3.4,0,0,1,2.736,1.088,4.571,4.571,0,0,1,.944,3.088,4.662,4.662,0,0,1-.944,3.12A3.4,3.4,0,0,1,136.506,408.192Zm0-1.824a1.264,1.264,0,0,0,1.136-.56,3.435,3.435,0,0,0,.368-1.824,3.347,3.347,0,0,0-.368-1.808,1.458,1.458,0,0,0-2.272,0,3.347,3.347,0,0,0-.368,1.808,3.435,3.435,0,0,0,.368,1.824A1.264,1.264,0,0,0,136.506,406.368ZM141.758,400h2.128v.448a5.364,5.364,0,0,1,1.072-.5,3.544,3.544,0,0,1,1.024-.144,2.324,2.324,0,0,1,2.1.944,5.369,5.369,0,0,1,.624,2.912V408h-2.144v-4.272a3.2,3.2,0,0,0-.272-1.552,1.043,1.043,0,0,0-.992-.448,3.858,3.858,0,0,0-1.2.224l-.192.064V408h-2.144Zm11.643,8.192a14.221,14.221,0,0,1-2.576-.288l-.512-.1.064-1.792a24.142,24.142,0,0,0,2.816.256,2.7,2.7,0,0,0,.928-.128.477.477,0,0,0,.352-.48.484.484,0,0,0-.336-.464,4.869,4.869,0,0,0-1.088-.272,2.827,2.827,0,0,1-.4-.064,6.712,6.712,0,0,1-1.312-.352,1.94,1.94,0,0,1-.832-.688,2.377,2.377,0,0,1-.32-1.328,2.411,2.411,0,0,1,.832-2.016,3.608,3.608,0,0,1,2.288-.656,15.56,15.56,0,0,1,2.544.3l.528.1L156.345,402a24.156,24.156,0,0,0-2.864-.256,2.69,2.69,0,0,0-.864.112.426.426,0,0,0-.3.432.493.493,0,0,0,.32.48,5.831,5.831,0,0,0,1.04.256l.56.1a3.743,3.743,0,0,1,1.824.768,2.094,2.094,0,0,1,.544,1.616,2.5,2.5,0,0,1-.784,2.032A3.714,3.714,0,0,1,153.4,408.192Z" fill="#fff"/>
        <rect id="Rectangle_13" data-name="Rectangle 13" width="172" height="36" rx="18" transform="translate(24 444)" class="secondary"/>
        <path id="Path_31" data-name="Path 31" d="M94.384,456.928h1.28l2.544,9.984h.9l2.544-9.984h1.28L100.032,468H97.28Zm12.557,11.232a3.164,3.164,0,0,1-2.592-.944,4.875,4.875,0,0,1-.752-3.008,5.432,5.432,0,0,1,.816-3.3,3.01,3.01,0,0,1,2.56-1.072,2.946,2.946,0,0,1,2.384.928,4.189,4.189,0,0,1,.8,2.816l-.064.912h-5.28a4.6,4.6,0,0,0,.208,1.552,1.5,1.5,0,0,0,.736.816,3.593,3.593,0,0,0,1.456.24c.309,0,.667-.005,1.072-.016s.773-.048,1.1-.08l.464-.048.032.944A21.3,21.3,0,0,1,106.941,468.16Zm2.016-4.624a3.486,3.486,0,0,0-.464-2.064,1.77,1.77,0,0,0-1.52-.624,1.971,1.971,0,0,0-1.632.656,3.239,3.239,0,0,0-.544,2.032Zm3.07-3.536h1.184v.56a5.95,5.95,0,0,1,1.312-.56,4.932,4.932,0,0,1,1.264-.16,2.779,2.779,0,0,1,1.584.384,2.06,2.06,0,0,1,.784,1.232,8.763,8.763,0,0,1,.24,2.32V468h-1.184v-4.192a8.037,8.037,0,0,0-.144-1.744,1.435,1.435,0,0,0-.48-.88,1.653,1.653,0,0,0-1.024-.272,4.608,4.608,0,0,0-1.12.144,4.141,4.141,0,0,0-.912.3l-.3.144V468h-1.2Zm11.09,8.16a2.877,2.877,0,0,1-1.584-.368,2.089,2.089,0,0,1-.768-1.232,9.786,9.786,0,0,1-.224-2.384V460h1.2v4.16a9.407,9.407,0,0,0,.128,1.808,1.4,1.4,0,0,0,.464.864,1.712,1.712,0,0,0,1.04.256,4.884,4.884,0,0,0,2.24-.592V460h1.2v8h-1.2v-.56a6.023,6.023,0,0,1-1.216.56A4.658,4.658,0,0,1,123.117,468.16Zm9,0a3.165,3.165,0,0,1-2.592-.944,4.868,4.868,0,0,1-.752-3.008,5.432,5.432,0,0,1,.816-3.3,3.01,3.01,0,0,1,2.56-1.072,2.947,2.947,0,0,1,2.384.928,4.189,4.189,0,0,1,.8,2.816l-.064.912h-5.28a4.6,4.6,0,0,0,.208,1.552,1.5,1.5,0,0,0,.736.816,3.593,3.593,0,0,0,1.456.24q.464,0,1.072-.016.607-.032,1.1-.08l.464-.048.032.944A21.312,21.312,0,0,1,132.113,468.16Zm2.016-4.624a3.486,3.486,0,0,0-.464-2.064,1.771,1.771,0,0,0-1.52-.624,1.971,1.971,0,0,0-1.632.656,3.233,3.233,0,0,0-.544,2.032Zm5.582,4.624a15.259,15.259,0,0,1-2.352-.224l-.48-.08.064-1.04a21.426,21.426,0,0,0,2.752.272,2.637,2.637,0,0,0,1.424-.3,1.124,1.124,0,0,0,.48-1.008,1.061,1.061,0,0,0-.24-.752,1.248,1.248,0,0,0-.592-.368,6.713,6.713,0,0,0-1.008-.208l-.4-.064a7.261,7.261,0,0,1-1.5-.384,1.755,1.755,0,0,1-.816-.624,2.536,2.536,0,0,1,.512-2.976,3.869,3.869,0,0,1,2.224-.544,13.361,13.361,0,0,1,2.32.208l.448.08-.032,1.024a19.612,19.612,0,0,0-2.7-.256,2.682,2.682,0,0,0-1.392.288.989.989,0,0,0-.448.9.949.949,0,0,0,.224.672,1.4,1.4,0,0,0,.576.336q.367.1,1.024.208l.4.08a6.972,6.972,0,0,1,1.536.416,1.6,1.6,0,0,1,.8.656,2.25,2.25,0,0,1,.272,1.2,2.28,2.28,0,0,1-.768,1.9A3.728,3.728,0,0,1,139.711,468.16Z" fill="#404259"/>
        <g id="Group_5" data-name="Group 5" clip-path="url(#clip-path-6)">
            <path id="Path_32" data-name="Path 32" d="M85.772,452.682a.36.36,0,0,0-.508,0L81.541,456.4a.359.359,0,0,0,0,.508.357.357,0,0,0,.508,0l3.724-3.723A.359.359,0,0,0,85.772,452.682Z" fill="#404259"/>
            <path id="Path_33" data-name="Path 33" d="M86.785,453.679a.358.358,0,0,0-.508,0L82.553,457.4a.359.359,0,0,0,.508.508l3.724-3.723A.359.359,0,0,0,86.785,453.679Z" fill="#404259"/>
            <path id="Path_34" data-name="Path 34" d="M83.272,459.967l4.622-4.623a.359.359,0,0,0-.508-.508l-4.623,4.623a1.908,1.908,0,0,1-2.167.372.36.36,0,0,0-.423.085l-1.571,1.77,0,0,0,0-6.789,7.648-.005.006a.909.909,0,0,1-.065.071,1.149,1.149,0,1,1-1.625-1.626c.021-.021.044-.042.071-.065l.006-.005,4.244-3.767a.359.359,0,1,0-.477-.537l-4.241,3.765c-.04.034-.077.068-.111.1a1.868,1.868,0,0,0,2.641,2.641c.035-.034.068-.071.1-.111l5.173-5.828,5.173,5.828c.034.041.068.077.1.111a1.868,1.868,0,0,0,2.642-2.641c-.034-.035-.071-.068-.111-.1L79.377,461.9l1.165-1.312A2.63,2.63,0,0,0,83.272,459.967Zm1.584,7.752.006.006c.026.022.049.043.071.064a1.15,1.15,0,1,1-1.626,1.626c-.021-.021-.042-.045-.065-.071l-.005-.006L78,463.443l.9-1.01Z" fill="#404259"/>
            <path id="Path_35" data-name="Path 35" d="M84.695,451.636a.36.36,0,0,0-.508,0l-4.622,4.623a2.626,2.626,0,0,0-.618,2.73l-1.423,1.262-1.367-1.213a3.613,3.613,0,0,0-.673-4.2,8.172,8.172,0,0,0-3.633-2.207,2.829,2.829,0,0,0-3.7,3.705,8.18,8.18,0,0,0,2.207,3.633,3.613,3.613,0,0,0,4.2.673l1.354,1.525a.358.358,0,0,0,.507.03l3.2-2.838a.36.36,0,0,0,.086-.424,1.908,1.908,0,0,1,.372-2.167l4.623-4.622A.359.359,0,0,0,84.695,451.636Zm-8.486,9.783L74.9,459.947a.359.359,0,0,0-.457-.068,2.9,2.9,0,0,1-3.582-.42,7.46,7.46,0,0,1-2.019-3.3,2.127,2.127,0,0,1,2.833-2.833,7.469,7.469,0,0,1,3.3,2.019,2.9,2.9,0,0,1,.42,3.582.359.359,0,0,0,.067.457l1.519,1.349Z" fill="#404259"/>
        </g>
        <rect id="Rectangle_15" data-name="Rectangle 15" width="172" height="36" rx="18" transform="translate(24 504)" fill="#f7f8fd"/>
        <rect id="Rectangle_16" data-name="Rectangle 16" width="172" height="36" rx="18" transform="translate(24 504)" class="secondary"/>
        <path id="Path_36" data-name="Path 36" d="M85.7,519.826H84.068a7.351,7.351,0,0,0-.532-1.286l1.15-1.15a1.307,1.307,0,0,0,0-1.846l-1.23-1.23a1.337,1.337,0,0,0-1.845,0l-1.15,1.15a7.375,7.375,0,0,0-1.286-.532V513.3a1.306,1.306,0,0,0-1.3-1.3H76.13a1.306,1.306,0,0,0-1.3,1.3v1.628a7.388,7.388,0,0,0-1.286.532l-1.15-1.15a1.308,1.308,0,0,0-1.845,0l-1.231,1.231a1.307,1.307,0,0,0,0,1.845l1.15,1.15a7.39,7.39,0,0,0-.532,1.287H68.3a1.306,1.306,0,0,0-1.3,1.3v1.739a1.306,1.306,0,0,0,1.3,1.3h1.628a7.381,7.381,0,0,0,.532,1.286l-1.15,1.15a1.307,1.307,0,0,0,0,1.846l1.23,1.231a1.308,1.308,0,0,0,1.845,0l1.15-1.15a7.455,7.455,0,0,0,1.286.532V530.7a1.306,1.306,0,0,0,1.3,1.3H77.87a1.306,1.306,0,0,0,1.3-1.3v-1.628a7.372,7.372,0,0,0,1.286-.532l1.15,1.15a1.337,1.337,0,0,0,1.845,0l1.23-1.23a1.307,1.307,0,0,0,0-1.846l-1.15-1.15a7.39,7.39,0,0,0,.532-1.286H85.7a1.306,1.306,0,0,0,1.3-1.3v-1.74A1.306,1.306,0,0,0,85.7,519.826Zm.435,3.044a.435.435,0,0,1-.435.434H83.739a.436.436,0,0,0-.421.326,6.544,6.544,0,0,1-.7,1.684.435.435,0,0,0,.067.528l1.383,1.383a.437.437,0,0,1,0,.616l-1.23,1.23a.447.447,0,0,1-.616,0l-1.383-1.382a.434.434,0,0,0-.529-.067,6.555,6.555,0,0,1-1.683.7.434.434,0,0,0-.326.42V530.7a.435.435,0,0,1-.435.434H76.13a.435.435,0,0,1-.435-.434v-1.957a.436.436,0,0,0-.326-.421,6.507,6.507,0,0,1-1.684-.7.429.429,0,0,0-.221-.06.434.434,0,0,0-.308.127l-1.383,1.383a.437.437,0,0,1-.616,0l-1.23-1.231a.435.435,0,0,1,0-.615l1.383-1.383a.434.434,0,0,0,.067-.528,6.539,6.539,0,0,1-.7-1.684.435.435,0,0,0-.42-.326H68.3a.435.435,0,0,1-.435-.434v-1.74a.435.435,0,0,1,.435-.434h1.957a.436.436,0,0,0,.421-.326,6.525,6.525,0,0,1,.7-1.684.434.434,0,0,0-.067-.528l-1.383-1.383a.436.436,0,0,1,0-.615l1.23-1.231a.436.436,0,0,1,.616,0l1.383,1.383a.435.435,0,0,0,.528.067,6.5,6.5,0,0,1,1.684-.7.436.436,0,0,0,.326-.421V513.3a.435.435,0,0,1,.435-.434H77.87a.435.435,0,0,1,.435.434v1.957a.436.436,0,0,0,.326.421,6.486,6.486,0,0,1,1.683.7.434.434,0,0,0,.529-.067l1.383-1.383a.447.447,0,0,1,.616,0l1.23,1.231a.436.436,0,0,1,0,.615l-1.383,1.383a.434.434,0,0,0-.067.528,6.54,6.54,0,0,1,.7,1.684.435.435,0,0,0,.42.326H85.7a.435.435,0,0,1,.435.434Z" fill="#404259"/>
        <path id="Path_37" data-name="Path 37" d="M77,518.087A3.913,3.913,0,1,0,80.913,522,3.918,3.918,0,0,0,77,518.087Zm0,6.956A3.044,3.044,0,1,1,80.043,522,3.047,3.047,0,0,1,77,525.043Z" fill="#404259"/>
        <path id="Path_38" data-name="Path 38" d="M97.368,529.144a20.642,20.642,0,0,1-2.928-.272l-.576-.08.128-1.024a27.731,27.731,0,0,0,3.312.288q2.368,0,2.368-2.224a1.778,1.778,0,0,0-.224-.96,1.487,1.487,0,0,0-.736-.576,7.544,7.544,0,0,0-1.5-.416,9.229,9.229,0,0,1-2.048-.624,2.357,2.357,0,0,1-1.056-.944,3.207,3.207,0,0,1-.336-1.584q0-2.976,3.568-2.976a23.681,23.681,0,0,1,3.344.32l-.112,1.04q-2.3-.271-3.152-.272-2.4,0-2.4,1.808a2.045,2.045,0,0,0,.224,1.056,1.689,1.689,0,0,0,.8.576,12.678,12.678,0,0,0,1.776.5,7.824,7.824,0,0,1,1.824.608,2.187,2.187,0,0,1,.96.9,2.982,2.982,0,0,1,.3,1.456Q100.9,529.144,97.368,529.144Zm8.448.016a3.165,3.165,0,0,1-2.592-.944,4.875,4.875,0,0,1-.752-3.008,5.432,5.432,0,0,1,.816-3.3,3.01,3.01,0,0,1,2.56-1.072,2.946,2.946,0,0,1,2.384.928,4.189,4.189,0,0,1,.8,2.816l-.064.912h-5.28a4.6,4.6,0,0,0,.208,1.552,1.5,1.5,0,0,0,.736.816,3.593,3.593,0,0,0,1.456.24c.309,0,.667-.005,1.072-.016s.773-.048,1.1-.08l.464-.048.032.944A21.3,21.3,0,0,1,105.816,529.16Zm2.016-4.624a3.486,3.486,0,0,0-.464-2.064,1.77,1.77,0,0,0-1.52-.624,1.971,1.971,0,0,0-1.632.656,3.239,3.239,0,0,0-.544,2.032Zm5.567,4.64a2.664,2.664,0,0,1-1.28-.256,1.578,1.578,0,0,1-.656-.9,6.454,6.454,0,0,1-.192-1.776V522.04h-1.136V521h1.136v-2.448h1.184V521H115v1.04h-2.544v3.824a10.289,10.289,0,0,0,.064,1.344.924.924,0,0,0,1.088.9l1.424-.1.08.992A12.283,12.283,0,0,1,113.4,529.176Zm5.61,0a2.664,2.664,0,0,1-1.28-.256,1.574,1.574,0,0,1-.656-.9,6.454,6.454,0,0,1-.192-1.776V522.04h-1.136V521h1.136v-2.448h1.184V521h2.544v1.04h-2.544v3.824a10.289,10.289,0,0,0,.064,1.344.924.924,0,0,0,1.088.9l1.424-.1.08.992A12.3,12.3,0,0,1,119.009,529.176ZM122.074,521h1.184v8h-1.184Zm0-3.2h1.184v1.392h-1.184Zm3.484,3.2h1.184v.56a5.971,5.971,0,0,1,1.312-.56,4.937,4.937,0,0,1,1.264-.16,2.78,2.78,0,0,1,1.584.384,2.055,2.055,0,0,1,.784,1.232,8.763,8.763,0,0,1,.24,2.32V529h-1.184v-4.192a8.037,8.037,0,0,0-.144-1.744,1.435,1.435,0,0,0-.48-.88,1.651,1.651,0,0,0-1.024-.272,4.614,4.614,0,0,0-1.12.144,4.138,4.138,0,0,0-.912.3l-.3.144V529h-1.2Zm11.522,11.76a4.475,4.475,0,0,1-2.544-.544,2.036,2.036,0,0,1-.736-1.776,2.713,2.713,0,0,1,.112-.848,1.7,1.7,0,0,1,.384-.576,8.913,8.913,0,0,1,.768-.656.871.871,0,0,1-.336-.432,1.657,1.657,0,0,1-.112-.608,1.21,1.21,0,0,1,.1-.448,7.491,7.491,0,0,1,.448-.88,2.341,2.341,0,0,1-1.264-2.4,2.631,2.631,0,0,1,.752-2.064,3.268,3.268,0,0,1,2.272-.688,7.25,7.25,0,0,1,1.632.208l2.368-.064v1.024l-1.52-.032a1.634,1.634,0,0,1,.4.672,3.212,3.212,0,0,1,.128.992,2.5,2.5,0,0,1-.736,2.032,3.619,3.619,0,0,1-2.32.608,4.252,4.252,0,0,1-.816-.064c-.085.213-.155.4-.208.56a1.358,1.358,0,0,0-.08.416.524.524,0,0,0,.32.544,3.069,3.069,0,0,0,1.024.128h.624a7.225,7.225,0,0,1,1.7.16,1.673,1.673,0,0,1,1.008.656,2.885,2.885,0,0,1-.512,3.44A4.878,4.878,0,0,1,137.08,532.76Zm-.16-7.44a1.97,1.97,0,0,0,1.392-.4,1.838,1.838,0,0,0,.416-1.36,1.813,1.813,0,0,0-.416-1.344,1.944,1.944,0,0,0-1.376-.4,2.013,2.013,0,0,0-1.424.416,2.379,2.379,0,0,0,0,2.688A2.035,2.035,0,0,0,136.92,525.32Zm.272,6.432a3.415,3.415,0,0,0,1.856-.368,1.37,1.37,0,0,0,.528-1.232,1.45,1.45,0,0,0-.176-.784.936.936,0,0,0-.592-.352,5.68,5.68,0,0,0-1.2-.1l-1.728-.08a2.993,2.993,0,0,0-.72.672,1.465,1.465,0,0,0-.176.768,1.282,1.282,0,0,0,.48,1.152A3.384,3.384,0,0,0,137.192,531.752Zm7.691-2.592a15.251,15.251,0,0,1-2.352-.224l-.48-.08.064-1.04a21.421,21.421,0,0,0,2.752.272,2.64,2.64,0,0,0,1.424-.3,1.124,1.124,0,0,0,.48-1.008,1.061,1.061,0,0,0-.24-.752,1.254,1.254,0,0,0-.592-.368,6.716,6.716,0,0,0-1.008-.208l-.4-.064a7.244,7.244,0,0,1-1.5-.384,1.755,1.755,0,0,1-.816-.624,2.051,2.051,0,0,1-.272-1.136,2.079,2.079,0,0,1,.784-1.84,3.866,3.866,0,0,1,2.224-.544,13.366,13.366,0,0,1,2.32.208l.448.08-.032,1.024a19.621,19.621,0,0,0-2.7-.256,2.682,2.682,0,0,0-1.392.288.989.989,0,0,0-.448.9.944.944,0,0,0,.224.672,1.4,1.4,0,0,0,.576.336q.368.1,1.024.208l.4.08a6.971,6.971,0,0,1,1.536.416,1.6,1.6,0,0,1,.8.656,2.25,2.25,0,0,1,.272,1.2,2.28,2.28,0,0,1-.768,1.9A3.73,3.73,0,0,1,144.883,529.16Z" fill="#404259"/>
        <rect id="Rectangle_17" data-name="Rectangle 17" width="342" height="738" rx="5" transform="translate(244 138)" fill="#fff"/>
        <g id="Group_6" data-name="Group 6">
            <rect id="Rectangle_18" data-name="Rectangle 18" width="830" height="852" transform="translate(611 48)" fill="#fff"/>
        </g>
        <g id="Group_7" data-name="Group 7">
            <rect id="Rectangle_19" data-name="Rectangle 19" width="163" height="38" rx="19" transform="translate(1244 82)" class="primary"/>
        </g>
        <path id="Path_39" data-name="Path 39" d="M1275.39,106.14a5.566,5.566,0,0,1-2.16-.378,3.2,3.2,0,0,1-1.36-.994,2.346,2.346,0,0,1-.49-1.344.26.26,0,0,1,.09-.2.25.25,0,0,1,.21-.1h1.27a.409.409,0,0,1,.25.07.6.6,0,0,1,.18.2,1.5,1.5,0,0,0,.63.8,2.563,2.563,0,0,0,1.38.322,2.717,2.717,0,0,0,1.47-.322,1.051,1.051,0,0,0,.5-.91.845.845,0,0,0-.25-.63,2.093,2.093,0,0,0-.77-.434,15.428,15.428,0,0,0-1.51-.462,6.056,6.056,0,0,1-2.43-1.036,2.283,2.283,0,0,1-.77-1.848,2.419,2.419,0,0,1,.45-1.442,2.99,2.99,0,0,1,1.28-1.008,4.852,4.852,0,0,1,1.94-.364,4.535,4.535,0,0,1,2,.406,3.225,3.225,0,0,1,1.29,1.022,2.193,2.193,0,0,1,.48,1.2.306.306,0,0,1-.09.21.267.267,0,0,1-.21.084h-1.33a.427.427,0,0,1-.42-.252,1.029,1.029,0,0,0-.54-.742,2.133,2.133,0,0,0-1.18-.308,2.216,2.216,0,0,0-1.22.294.985.985,0,0,0-.43.854.957.957,0,0,0,.22.63,1.959,1.959,0,0,0,.7.448,14.487,14.487,0,0,0,1.39.42,9.383,9.383,0,0,1,1.97.63,2.607,2.607,0,0,1,1.1.882,2.453,2.453,0,0,1,.35,1.358,2.542,2.542,0,0,1-.51,1.582,3,3,0,0,1-1.4,1.008A5.671,5.671,0,0,1,1275.39,106.14Zm5.1-.14a.3.3,0,0,1-.21-.084.307.307,0,0,1-.08-.21l.03-.126,3.36-9.03a.5.5,0,0,1,.5-.35h1.54a.512.512,0,0,1,.51.35l3.36,9.03.02.126a.3.3,0,0,1-.29.294h-1.25a.4.4,0,0,1-.4-.266l-.65-1.694h-4.14l-.64,1.694a.413.413,0,0,1-.41.266Zm2.79-3.584h3.16l-1.58-4.312Zm9.95,3.584a.531.531,0,0,1-.55-.392l-2.99-8.988a.377.377,0,0,1-.02-.126.275.275,0,0,1,.09-.21.267.267,0,0,1,.21-.084h1.24a.459.459,0,0,1,.3.1.591.591,0,0,1,.15.21l2.34,7.168,2.35-7.168a.461.461,0,0,1,.14-.21.432.432,0,0,1,.29-.1h1.26a.275.275,0,0,1,.2.084.254.254,0,0,1,.1.21l-.03.126-2.98,8.988a.539.539,0,0,1-.55.392Zm7.21,0a.338.338,0,0,1-.34-.336V96.55a.4.4,0,0,1,.08-.252.355.355,0,0,1,.26-.1h6.17a.332.332,0,0,1,.25.1.325.325,0,0,1,.1.252v.938a.325.325,0,0,1-.1.252.363.363,0,0,1-.25.084h-4.59v2.45h4.28a.334.334,0,0,1,.25.1.325.325,0,0,1,.1.252v.882a.325.325,0,0,1-.1.252.364.364,0,0,1-.25.084h-4.28v2.534h4.7a.334.334,0,0,1,.25.1.283.283,0,0,1,.1.238v.952a.324.324,0,0,1-.1.252.363.363,0,0,1-.25.084Zm15.91.14a4.27,4.27,0,0,1-3-.98,3.924,3.924,0,0,1-1.12-2.814c-.01-.252-.01-.663-.01-1.232s0-1,.01-1.26a3.859,3.859,0,0,1,1.14-2.786,4.158,4.158,0,0,1,2.98-1.008,5.073,5.073,0,0,1,2.17.434,3.419,3.419,0,0,1,1.43,1.162,3.055,3.055,0,0,1,.54,1.666v.028a.241.241,0,0,1-.1.2.279.279,0,0,1-.19.07h-1.36a.373.373,0,0,1-.25-.07.636.636,0,0,1-.14-.28,1.929,1.929,0,0,0-.73-1.218,2.342,2.342,0,0,0-1.37-.364c-1.34,0-2.03.747-2.09,2.24-.01.252-.01.639-.01,1.162s0,.919.01,1.19c.06,1.493.75,2.24,2.09,2.24a2.4,2.4,0,0,0,1.36-.35,2,2,0,0,0,.74-1.232.528.528,0,0,1,.14-.266.331.331,0,0,1,.25-.084h1.36a.3.3,0,0,1,.21.084.238.238,0,0,1,.08.21,3.055,3.055,0,0,1-.54,1.666,3.514,3.514,0,0,1-1.43,1.176A5.218,5.218,0,0,1,1316.35,106.14Zm6.42-.14a.327.327,0,0,1-.24-.1.309.309,0,0,1-.1-.238V96.55a.358.358,0,0,1,.09-.252.332.332,0,0,1,.25-.1h1.29a.349.349,0,0,1,.25.1.365.365,0,0,1,.1.252v3.6h4.08v-3.6a.365.365,0,0,1,.1-.252.342.342,0,0,1,.24-.1h1.3a.31.31,0,0,1,.24.1.325.325,0,0,1,.1.252v9.114a.338.338,0,0,1-.34.336h-1.3a.343.343,0,0,1-.24-.1.348.348,0,0,1-.1-.238v-3.738h-4.08v3.738a.338.338,0,0,1-.35.336Zm9.57,0a.267.267,0,0,1-.21-.084.275.275,0,0,1-.09-.21l.03-.126,3.36-9.03a.5.5,0,0,1,.5-.35h1.54a.5.5,0,0,1,.51.35l3.36,9.03.03.126a.285.285,0,0,1-.1.21.275.275,0,0,1-.2.084h-1.24a.412.412,0,0,1-.41-.266l-.64-1.694h-4.15l-.64,1.694a.412.412,0,0,1-.41.266Zm2.78-3.584h3.17L1336.7,98.1Zm8.16,3.584a.338.338,0,0,1-.34-.336V96.55a.4.4,0,0,1,.08-.252.356.356,0,0,1,.26-.1h1.09a.44.44,0,0,1,.4.238l4.01,6.216v-6.1a.405.405,0,0,1,.08-.252.349.349,0,0,1,.25-.1h1.21a.348.348,0,0,1,.25.1.365.365,0,0,1,.1.252v9.1a.364.364,0,0,1-.1.252.343.343,0,0,1-.24.1h-1.1a.449.449,0,0,1-.42-.238l-3.99-6.076v5.978a.348.348,0,0,1-.1.238.311.311,0,0,1-.24.1Zm13.66.14a4.271,4.271,0,0,1-3.01-.994,3.8,3.8,0,0,1-1.13-2.772c-.01-.271-.02-.705-.02-1.3s.01-1.031.02-1.3a3.627,3.627,0,0,1,1.14-2.716,4.3,4.3,0,0,1,3-.994,5,5,0,0,1,2.21.448,3.522,3.522,0,0,1,1.42,1.092,2.382,2.382,0,0,1,.5,1.274.307.307,0,0,1-.08.21.313.313,0,0,1-.23.084h-1.47a.345.345,0,0,1-.21-.056.467.467,0,0,1-.12-.182,1.934,1.934,0,0,0-.69-.882,2.19,2.19,0,0,0-1.33-.364,2.145,2.145,0,0,0-1.54.532,2.208,2.208,0,0,0-.57,1.624c-.01.271-.02.681-.02,1.232s.01.952.02,1.232a2.313,2.313,0,0,0,.58,1.68,2.16,2.16,0,0,0,1.54.532,2.316,2.316,0,0,0,1.6-.532,2.024,2.024,0,0,0,.6-1.6v-.434h-1.71a.3.3,0,0,1-.23-.1.309.309,0,0,1-.1-.238v-.77a.309.309,0,0,1,.1-.238.3.3,0,0,1,.23-.1h3.36a.357.357,0,0,1,.26.1.339.339,0,0,1,.09.238v1.484a3.934,3.934,0,0,1-.51,2.03,3.474,3.474,0,0,1-1.47,1.316A5.077,5.077,0,0,1,1356.94,106.14Zm6.61-.14a.343.343,0,0,1-.24-.1.348.348,0,0,1-.1-.238V96.55a.358.358,0,0,1,.09-.252.332.332,0,0,1,.25-.1h6.17a.324.324,0,0,1,.35.35v.938a.358.358,0,0,1-.09.252.391.391,0,0,1-.26.084h-4.59v2.45h4.29a.35.35,0,0,1,.25.1.364.364,0,0,1,.1.252v.882a.364.364,0,0,1-.1.252.382.382,0,0,1-.25.084h-4.29v2.534h4.71a.35.35,0,0,1,.25.1.315.315,0,0,1,.1.238v.952a.363.363,0,0,1-.1.252.382.382,0,0,1-.25.084Zm12.08.14a5.479,5.479,0,0,1-2.15-.378,3.2,3.2,0,0,1-1.36-.994,2.346,2.346,0,0,1-.49-1.344.29.29,0,0,1,.08-.2.278.278,0,0,1,.21-.1h1.28a.43.43,0,0,1,.25.07.942.942,0,0,1,.18.2,1.414,1.414,0,0,0,.63.8,2.525,2.525,0,0,0,1.37.322,2.67,2.67,0,0,0,1.47-.322,1.039,1.039,0,0,0,.51-.91.854.854,0,0,0-.26-.63,1.937,1.937,0,0,0-.77-.434,14.594,14.594,0,0,0-1.51-.462,5.939,5.939,0,0,1-2.42-1.036,2.283,2.283,0,0,1-.77-1.848,2.419,2.419,0,0,1,.45-1.442,2.959,2.959,0,0,1,1.27-1.008,4.869,4.869,0,0,1,1.95-.364,4.565,4.565,0,0,1,2,.406,3.225,3.225,0,0,1,1.29,1.022,2.1,2.1,0,0,1,.47,1.2.294.294,0,0,1-.08.21.3.3,0,0,1-.21.084h-1.33a.427.427,0,0,1-.42-.252,1.071,1.071,0,0,0-.55-.742,2.076,2.076,0,0,0-1.17-.308,2.216,2.216,0,0,0-1.22.294.963.963,0,0,0-.43.854.907.907,0,0,0,.22.63,1.872,1.872,0,0,0,.7.448,14.487,14.487,0,0,0,1.39.42,9.383,9.383,0,0,1,1.97.63,2.513,2.513,0,0,1,1.09.882,2.372,2.372,0,0,1,.35,1.358,2.6,2.6,0,0,1-.5,1.582,3.055,3.055,0,0,1-1.4,1.008A5.726,5.726,0,0,1,1375.63,106.14Z" fill="#f1f1f1"/>
        <line id="Line_1" data-name="Line 1" x2="830" transform="translate(610 143.5)" fill="none" stroke="#cccfdf" stroke-width="1"/>
        <rect id="Rectangle_20" data-name="Rectangle 20" width="172" height="36" rx="18" transform="translate(24 264)" class="secondary"/>
        <path id="Path_40" data-name="Path 40" d="M69.708,277.667h-6.25A1.46,1.46,0,0,1,62,276.208v-3.75A1.46,1.46,0,0,1,63.458,271h6.25a1.46,1.46,0,0,1,1.458,1.458v3.75A1.46,1.46,0,0,1,69.708,277.667Zm-6.25-5.417a.208.208,0,0,0-.208.208v3.75a.209.209,0,0,0,.208.209h6.25a.209.209,0,0,0,.208-.209v-3.75a.208.208,0,0,0-.208-.208Z" fill="#404259"/>
        <path id="Path_41" data-name="Path 41" d="M69.708,291h-6.25A1.46,1.46,0,0,1,62,289.542v-8.75a1.46,1.46,0,0,1,1.458-1.459h6.25a1.46,1.46,0,0,1,1.458,1.459v8.75A1.46,1.46,0,0,1,69.708,291Zm-6.25-10.417a.209.209,0,0,0-.208.209v8.75a.208.208,0,0,0,.208.208h6.25a.208.208,0,0,0,.208-.208v-8.75a.209.209,0,0,0-.208-.209Z" fill="#404259"/>
        <path id="Path_42" data-name="Path 42" d="M80.542,291h-6.25a1.46,1.46,0,0,1-1.458-1.458v-3.75a1.46,1.46,0,0,1,1.458-1.459h6.25A1.46,1.46,0,0,1,82,285.792v3.75A1.46,1.46,0,0,1,80.542,291Zm-6.25-5.417a.209.209,0,0,0-.208.209v3.75a.208.208,0,0,0,.208.208h6.25a.208.208,0,0,0,.208-.208v-3.75a.209.209,0,0,0-.208-.209Z" fill="#404259"/>
        <path id="Path_43" data-name="Path 43" d="M80.542,282.667h-6.25a1.46,1.46,0,0,1-1.458-1.459v-8.75A1.46,1.46,0,0,1,74.292,271h6.25A1.46,1.46,0,0,1,82,272.458v8.75A1.46,1.46,0,0,1,80.542,282.667Zm-6.25-10.417a.208.208,0,0,0-.208.208v8.75a.209.209,0,0,0,.208.209h6.25a.209.209,0,0,0,.208-.209v-8.75a.208.208,0,0,0-.208-.208Z" fill="#404259"/>
        <path id="Path_44" data-name="Path 44" d="M93.136,288.16a4.6,4.6,0,0,1-2.608-.624,3.225,3.225,0,0,1-1.248-1.856,15.482,15.482,0,0,1,0-6.416,3.216,3.216,0,0,1,1.216-1.856,4.36,4.36,0,0,1,2.56-.64,14.92,14.92,0,0,1,2.992.352L96,278.16a16.2,16.2,0,0,0-2.784-.288,3.287,3.287,0,0,0-1.888.448,2.346,2.346,0,0,0-.88,1.44,13.958,13.958,0,0,0-.224,2.88,12.291,12.291,0,0,0,.208,2.56,2.318,2.318,0,0,0,.9,1.392,3.6,3.6,0,0,0,2.032.464,14.647,14.647,0,0,0,2.64-.288l.048,1.056A14.787,14.787,0,0,1,93.136,288.16Zm6.463,0a2.174,2.174,0,0,1-1.68-.624,2.548,2.548,0,0,1-.576-1.792,2.289,2.289,0,0,1,.576-1.712,3.129,3.129,0,0,1,1.872-.688l2.512-.24v-.688q0-1.519-1.312-1.52a28.927,28.927,0,0,0-3.152.208l-.048-.912a15.584,15.584,0,0,1,3.12-.352,2.239,2.239,0,0,1,2.592,2.576v4.1q.048.593.928.7l-.048.944a2.582,2.582,0,0,1-1.9-.64A6.958,6.958,0,0,1,99.6,288.16Zm.192-1.008a6.576,6.576,0,0,0,2.144-.368l.368-.128v-2.64l-2.368.224a1.541,1.541,0,0,0-1.04.416,1.474,1.474,0,0,0-.32,1.024Q98.575,287.152,99.791,287.152Zm8.624,1.024a2.664,2.664,0,0,1-1.28-.256,1.574,1.574,0,0,1-.656-.9,6.454,6.454,0,0,1-.192-1.776V281.04h-1.136V280h1.136v-2.448h1.184V280h2.544v1.04h-2.544v3.824a10.287,10.287,0,0,0,.064,1.344.924.924,0,0,0,1.088.9l1.424-.1.08.992A12.3,12.3,0,0,1,108.415,288.176Zm6.057-.016a3.164,3.164,0,0,1-2.592-.944,4.875,4.875,0,0,1-.752-3.008,5.432,5.432,0,0,1,.816-3.3,3.01,3.01,0,0,1,2.56-1.072,2.946,2.946,0,0,1,2.384.928,4.189,4.189,0,0,1,.8,2.816l-.064.912h-5.28a4.6,4.6,0,0,0,.208,1.552,1.5,1.5,0,0,0,.736.816,3.593,3.593,0,0,0,1.456.24c.309,0,.667-.005,1.072-.016s.773-.048,1.1-.08l.464-.048.032.944A21.3,21.3,0,0,1,114.472,288.16Zm2.016-4.624a3.486,3.486,0,0,0-.464-2.064,1.77,1.77,0,0,0-1.52-.624,1.971,1.971,0,0,0-1.632.656,3.239,3.239,0,0,0-.544,2.032Zm6,8.224a4.479,4.479,0,0,1-2.544-.544,2.038,2.038,0,0,1-.736-1.776,2.743,2.743,0,0,1,.112-.848,1.731,1.731,0,0,1,.384-.576,8.917,8.917,0,0,1,.768-.656.871.871,0,0,1-.336-.432,1.678,1.678,0,0,1-.112-.608,1.21,1.21,0,0,1,.1-.448,7.657,7.657,0,0,1,.448-.88,2.342,2.342,0,0,1-1.264-2.4,2.631,2.631,0,0,1,.752-2.064,3.27,3.27,0,0,1,2.272-.688,7.248,7.248,0,0,1,1.632.208l2.368-.064v1.024l-1.52-.032a1.624,1.624,0,0,1,.4.672,3.182,3.182,0,0,1,.128.992,2.5,2.5,0,0,1-.736,2.032,3.617,3.617,0,0,1-2.32.608,4.264,4.264,0,0,1-.816-.064q-.127.319-.208.56a1.359,1.359,0,0,0-.08.416.524.524,0,0,0,.32.544,3.072,3.072,0,0,0,1.024.128h.624a7.219,7.219,0,0,1,1.7.16,1.667,1.667,0,0,1,1.008.656,2.885,2.885,0,0,1-.512,3.44A4.878,4.878,0,0,1,122.486,291.76Zm-.16-7.44a1.971,1.971,0,0,0,1.392-.4,1.833,1.833,0,0,0,.416-1.36,1.808,1.808,0,0,0-.416-1.344,1.944,1.944,0,0,0-1.376-.4,2.013,2.013,0,0,0-1.424.416,2.379,2.379,0,0,0,0,2.688A2.037,2.037,0,0,0,122.326,284.32Zm.272,6.432a3.413,3.413,0,0,0,1.856-.368,1.37,1.37,0,0,0,.528-1.232,1.441,1.441,0,0,0-.176-.784.933.933,0,0,0-.592-.352,5.679,5.679,0,0,0-1.2-.1l-1.728-.08a2.994,2.994,0,0,0-.72.672,1.465,1.465,0,0,0-.176.768,1.282,1.282,0,0,0,.48,1.152A3.384,3.384,0,0,0,122.6,290.752Zm8.251-2.592a4.213,4.213,0,0,1-2.032-.416,2.4,2.4,0,0,1-1.072-1.328,8.946,8.946,0,0,1,.016-4.8,2.393,2.393,0,0,1,1.088-1.344,4,4,0,0,1,2-.432,3.948,3.948,0,0,1,2,.432,2.468,2.468,0,0,1,1.088,1.344,8.946,8.946,0,0,1,.016,4.8,2.4,2.4,0,0,1-1.072,1.328A4.157,4.157,0,0,1,130.849,288.16Zm.016-1.04a2.567,2.567,0,0,0,1.344-.288,1.573,1.573,0,0,0,.64-.944,6.865,6.865,0,0,0,.192-1.84,7.373,7.373,0,0,0-.192-1.92,1.581,1.581,0,0,0-.656-.96,2.53,2.53,0,0,0-1.328-.288,2.621,2.621,0,0,0-1.344.288,1.646,1.646,0,0,0-.672.96,9.619,9.619,0,0,0-.016,3.744,1.649,1.649,0,0,0,.656.96A2.7,2.7,0,0,0,130.865,287.12ZM136.23,280h1.184v1.088a7.987,7.987,0,0,1,2.928-1.264v1.216a9.43,9.43,0,0,0-1.36.4,9.582,9.582,0,0,0-1.152.48l-.4.208V288h-1.2Zm5.531,0h1.184v8h-1.184Zm0-3.2h1.184v1.392h-1.184Zm6.383,11.36a3.164,3.164,0,0,1-2.592-.944,4.875,4.875,0,0,1-.752-3.008,5.432,5.432,0,0,1,.816-3.3,3.01,3.01,0,0,1,2.56-1.072,2.946,2.946,0,0,1,2.384.928,4.189,4.189,0,0,1,.8,2.816l-.064.912h-5.28a4.6,4.6,0,0,0,.208,1.552,1.5,1.5,0,0,0,.736.816,3.593,3.593,0,0,0,1.456.24c.309,0,.667-.005,1.072-.016s.773-.048,1.1-.08l.464-.048.032.944A21.3,21.3,0,0,1,148.144,288.16Zm2.016-4.624a3.486,3.486,0,0,0-.464-2.064,1.77,1.77,0,0,0-1.52-.624,1.971,1.971,0,0,0-1.632.656,3.239,3.239,0,0,0-.544,2.032Zm5.582,4.624a15.259,15.259,0,0,1-2.352-.224l-.48-.08.064-1.04a21.426,21.426,0,0,0,2.752.272,2.637,2.637,0,0,0,1.424-.3,1.124,1.124,0,0,0,.48-1.008,1.061,1.061,0,0,0-.24-.752,1.248,1.248,0,0,0-.592-.368,6.712,6.712,0,0,0-1.008-.208l-.4-.064a7.261,7.261,0,0,1-1.5-.384,1.755,1.755,0,0,1-.816-.624,2.536,2.536,0,0,1,.512-2.976,3.869,3.869,0,0,1,2.224-.544,13.361,13.361,0,0,1,2.32.208l.448.08-.032,1.024a19.611,19.611,0,0,0-2.7-.256,2.682,2.682,0,0,0-1.392.288.989.989,0,0,0-.448.9.949.949,0,0,0,.224.672,1.4,1.4,0,0,0,.576.336q.367.1,1.024.208l.4.08a6.972,6.972,0,0,1,1.536.416,1.6,1.6,0,0,1,.8.656,2.25,2.25,0,0,1,.272,1.2,2.28,2.28,0,0,1-.768,1.9A3.728,3.728,0,0,1,155.742,288.16Z" fill="#404259"/>
        <rect id="Rectangle_21" data-name="Rectangle 21" width="342" height="68" transform="translate(244 138)" class="tertiary"/>
        <line id="Line_2" data-name="Line 2" x2="342" transform="translate(245 205.5)" fill="none" stroke="#cccfdf" stroke-width="1"/>
        <path id="Path_45" data-name="Path 45" d="M263.12,159.072h-2.912V157.12h8v1.952h-2.88V168H263.12Zm6.294-2.272h2.144v3.584a6.022,6.022,0,0,1,1.072-.432,3.545,3.545,0,0,1,1.024-.144,2.283,2.283,0,0,1,2.08.944,5.32,5.32,0,0,1,.624,2.912V168h-2.144v-4.288a3.314,3.314,0,0,0-.256-1.536,1.042,1.042,0,0,0-.992-.448,4.076,4.076,0,0,0-1.2.192l-.208.064V168h-2.144Zm11.98,11.392a3.437,3.437,0,0,1-2.7-.944,4.569,4.569,0,0,1-.832-3.056,5.245,5.245,0,0,1,.864-3.3,3.291,3.291,0,0,1,2.72-1.088,3.364,3.364,0,0,1,2.56.912,3.719,3.719,0,0,1,.88,2.7l-.16,1.488h-4.7a2.151,2.151,0,0,0,.192.864.986.986,0,0,0,.544.416,3.916,3.916,0,0,0,1.056.112q.528,0,1.264-.032c.49-.021.848-.043,1.072-.064l.448-.048.032,1.584A13.59,13.59,0,0,1,281.394,168.192Zm1.376-4.912a2.152,2.152,0,0,0-.3-1.328,1.226,1.226,0,0,0-1.04-.384,1.315,1.315,0,0,0-1.088.4A2.123,2.123,0,0,0,280,163.28Zm3.644-3.28h2.128v.448a6,6,0,0,1,1.024-.48,2.732,2.732,0,0,1,.928-.16,3.028,3.028,0,0,1,1.072.192,1.931,1.931,0,0,1,.864.56,7.253,7.253,0,0,1,1.408-.56,4.926,4.926,0,0,1,1.36-.192,2.373,2.373,0,0,1,2.112.912,5.345,5.345,0,0,1,.624,2.944V168H295.79v-4.272a3.573,3.573,0,0,0-.24-1.536.916.916,0,0,0-.9-.464,4.674,4.674,0,0,0-1.232.224l-.24.08q.064,1.072.064,1.824V168H291.1v-4.112a6.716,6.716,0,0,0-.1-1.312.972.972,0,0,0-.336-.64,1.1,1.1,0,0,0-.736-.208,3.824,3.824,0,0,0-1.184.224l-.192.064V168h-2.144Zm16.558,8.192a3.437,3.437,0,0,1-2.7-.944,4.569,4.569,0,0,1-.832-3.056,5.245,5.245,0,0,1,.864-3.3,3.291,3.291,0,0,1,2.72-1.088,3.364,3.364,0,0,1,2.56.912,3.719,3.719,0,0,1,.88,2.7l-.16,1.488h-4.7a2.151,2.151,0,0,0,.192.864.986.986,0,0,0,.544.416,3.916,3.916,0,0,0,1.056.112q.528,0,1.264-.032c.49-.021.848-.043,1.072-.064l.448-.048.032,1.584A13.59,13.59,0,0,1,302.972,168.192Zm1.376-4.912a2.152,2.152,0,0,0-.3-1.328,1.226,1.226,0,0,0-1.04-.384,1.316,1.316,0,0,0-1.088.4,2.123,2.123,0,0,0-.336,1.312Zm9.88,4.912a2.965,2.965,0,0,1-1.44-.288,1.631,1.631,0,0,1-.736-.944,5.778,5.778,0,0,1-.224-1.808v-3.328h-.944V160h.944v-2.224h2.144V160h1.968v1.824h-1.968v3.28a2.7,2.7,0,0,0,.112.912c.074.181.261.267.56.256l1.216-.032.1,1.712q-.641.144-1.008.192A5.331,5.331,0,0,1,314.228,168.192Zm6.244,0a3.437,3.437,0,0,1-2.7-.944,4.569,4.569,0,0,1-.832-3.056,5.245,5.245,0,0,1,.864-3.3,3.291,3.291,0,0,1,2.72-1.088,3.364,3.364,0,0,1,2.56.912,3.719,3.719,0,0,1,.88,2.7l-.16,1.488h-4.7a2.151,2.151,0,0,0,.192.864.986.986,0,0,0,.544.416,3.916,3.916,0,0,0,1.056.112q.528,0,1.264-.032c.49-.021.848-.043,1.072-.064l.448-.048.032,1.584A13.59,13.59,0,0,1,320.472,168.192Zm1.376-4.912a2.152,2.152,0,0,0-.3-1.328,1.226,1.226,0,0,0-1.04-.384,1.316,1.316,0,0,0-1.088.4,2.123,2.123,0,0,0-.336,1.312Zm5.068.7L324.724,160h2.288l1.28,2.48,1.3-2.48h2.288l-2.272,3.92,2.272,4.08h-2.288l-1.3-2.448L327.012,168h-2.288Zm8.7,4.208a2.97,2.97,0,0,1-1.44-.288,1.639,1.639,0,0,1-.736-.944,5.809,5.809,0,0,1-.224-1.808v-3.328h-.944V160h.944v-2.224h2.144V160h1.968v1.824h-1.968v3.28a2.729,2.729,0,0,0,.112.912c.075.181.262.267.56.256l1.216-.032.1,1.712q-.639.144-1.008.192A5.309,5.309,0,0,1,335.618,168.192Z" fill="#404259"/>
        <path id="Path_46" data-name="Path 46" d="M263.164,183.278h-2.982v-.966h7v.966h-2.954V192h-1.064Zm5.213-1.33h1.05v3.444a6.464,6.464,0,0,1,1.134-.406,4.664,4.664,0,0,1,1.078-.126,2.463,2.463,0,0,1,1.4.336,1.716,1.716,0,0,1,.7,1.064,7.834,7.834,0,0,1,.21,2.044V192H272.9v-3.668a7.086,7.086,0,0,0-.126-1.554,1.14,1.14,0,0,0-.448-.756,1.7,1.7,0,0,0-.966-.224,4.778,4.778,0,0,0-1.666.322l-.266.1V192h-1.05Zm10.138,10.192a2.767,2.767,0,0,1-2.268-.826,4.26,4.26,0,0,1-.658-2.632,4.753,4.753,0,0,1,.714-2.884,2.635,2.635,0,0,1,2.24-.938,2.581,2.581,0,0,1,2.086.812,3.666,3.666,0,0,1,.7,2.464l-.056.8h-4.62a4.017,4.017,0,0,0,.182,1.358,1.3,1.3,0,0,0,.644.714,3.142,3.142,0,0,0,1.274.21q.405,0,.938-.014t.966-.07l.406-.042.028.826A18.745,18.745,0,0,1,278.515,192.14Zm1.764-4.046a3.056,3.056,0,0,0-.406-1.806,1.549,1.549,0,0,0-1.33-.546,1.723,1.723,0,0,0-1.428.574,2.829,2.829,0,0,0-.476,1.778ZM282.965,185H284v.49a4.052,4.052,0,0,1,2.1-.63,2.811,2.811,0,0,1,1.036.182,1.514,1.514,0,0,1,.728.532,5.045,5.045,0,0,1,1.218-.5,4.946,4.946,0,0,1,1.428-.21,2.211,2.211,0,0,1,1.33.35,1.832,1.832,0,0,1,.672,1.078,7.7,7.7,0,0,1,.21,2.016V192h-1.05v-3.668a7.862,7.862,0,0,0-.112-1.526,1.262,1.262,0,0,0-.42-.77,1.379,1.379,0,0,0-.882-.238,3.872,3.872,0,0,0-.966.126,3.6,3.6,0,0,0-.8.266l-.266.126a6.931,6.931,0,0,1,.182,2.044V192h-1.05v-3.612a8.153,8.153,0,0,0-.112-1.568,1.312,1.312,0,0,0-.406-.784,1.379,1.379,0,0,0-.882-.238,3.653,3.653,0,0,0-.938.126,3.334,3.334,0,0,0-.77.266l-.238.126V192h-1.05Zm14.321,7.14a2.767,2.767,0,0,1-2.268-.826,4.26,4.26,0,0,1-.658-2.632,4.753,4.753,0,0,1,.714-2.884,2.636,2.636,0,0,1,2.24-.938,2.579,2.579,0,0,1,2.086.812,3.661,3.661,0,0,1,.7,2.464l-.056.8h-4.62a4.042,4.042,0,0,0,.182,1.358,1.309,1.309,0,0,0,.644.714,3.145,3.145,0,0,0,1.274.21c.271,0,.583-.005.938-.014s.677-.042.966-.07l.406-.042.028.826A18.745,18.745,0,0,1,297.286,192.14Zm1.764-4.046a3.048,3.048,0,0,0-.406-1.806,1.549,1.549,0,0,0-1.33-.546,1.723,1.723,0,0,0-1.428.574,2.829,2.829,0,0,0-.476,1.778Zm7.989,4.06a2.337,2.337,0,0,1-1.12-.224,1.379,1.379,0,0,1-.574-.784,5.641,5.641,0,0,1-.168-1.554V185.91h-.994V185h.994v-2.142h1.036V185h2.226v.91h-2.226v3.346a8.918,8.918,0,0,0,.056,1.176.808.808,0,0,0,.952.784l1.246-.084.07.868A10.66,10.66,0,0,1,307.039,192.154Zm5.3-.014a2.767,2.767,0,0,1-2.268-.826,4.26,4.26,0,0,1-.658-2.632,4.753,4.753,0,0,1,.714-2.884,2.636,2.636,0,0,1,2.24-.938,2.579,2.579,0,0,1,2.086.812,3.661,3.661,0,0,1,.7,2.464l-.056.8h-4.62a4.042,4.042,0,0,0,.182,1.358,1.309,1.309,0,0,0,.644.714,3.145,3.145,0,0,0,1.274.21c.271,0,.583-.005.938-.014s.677-.042.966-.07l.406-.042.028.826A18.746,18.746,0,0,1,312.339,192.14Zm1.764-4.046a3.048,3.048,0,0,0-.406-1.806,1.549,1.549,0,0,0-1.33-.546,1.723,1.723,0,0,0-1.428.574,2.829,2.829,0,0,0-.476,1.778Zm4.13.406-2.2-3.5h1.148l1.708,2.744L320.6,185h1.148l-2.226,3.472L321.733,192h-1.148l-1.694-2.73L317.183,192h-1.148Zm6.853,3.654a2.337,2.337,0,0,1-1.12-.224,1.379,1.379,0,0,1-.574-.784,5.641,5.641,0,0,1-.168-1.554V185.91h-.994V185h.994v-2.142h1.036V185h2.226v.91H324.26v3.346a8.924,8.924,0,0,0,.056,1.176.808.808,0,0,0,.952.784l1.246-.084.07.868A10.661,10.661,0,0,1,325.086,192.154Z" fill="#404259"/>
        <path id="Path_47" data-name="Path 47" d="M558.153,191.487l1.18,1.18L566,186l-6.667-6.667-1.18,1.18L563.64,186Z" fill="#b8bac8"/>
        <rect id="Rectangle_22" data-name="Rectangle 22" width="342" height="68" transform="translate(244 206)" fill="#fff"/>
        <line id="Line_3" data-name="Line 3" x2="342" transform="translate(244 205.5)" fill="none" stroke="#cccfdf" stroke-width="1"/>
        <line id="Line_4" data-name="Line 4" x2="342" transform="translate(245 273.5)" fill="none" stroke="#cccfdf" stroke-width="1"/>
        <path id="Path_48" data-name="Path 48" d="M263.12,227.072h-2.912V225.12h8v1.952h-2.88V236H263.12Zm6.294-2.272h2.144v3.584a6.022,6.022,0,0,1,1.072-.432,3.545,3.545,0,0,1,1.024-.144,2.283,2.283,0,0,1,2.08.944,5.32,5.32,0,0,1,.624,2.912V236h-2.144v-4.288a3.314,3.314,0,0,0-.256-1.536,1.042,1.042,0,0,0-.992-.448,4.076,4.076,0,0,0-1.2.192l-.208.064V236h-2.144Zm11.98,11.392a3.437,3.437,0,0,1-2.7-.944,4.569,4.569,0,0,1-.832-3.056,5.245,5.245,0,0,1,.864-3.3,3.291,3.291,0,0,1,2.72-1.088,3.364,3.364,0,0,1,2.56.912,3.719,3.719,0,0,1,.88,2.7l-.16,1.488h-4.7a2.151,2.151,0,0,0,.192.864.986.986,0,0,0,.544.416,3.916,3.916,0,0,0,1.056.112q.528,0,1.264-.032c.49-.021.848-.043,1.072-.064l.448-.048.032,1.584A13.59,13.59,0,0,1,281.394,236.192Zm1.376-4.912a2.152,2.152,0,0,0-.3-1.328,1.226,1.226,0,0,0-1.04-.384,1.315,1.315,0,0,0-1.088.4A2.123,2.123,0,0,0,280,231.28Zm3.644-3.28h2.128v.448a6,6,0,0,1,1.024-.48,2.732,2.732,0,0,1,.928-.16,3.028,3.028,0,0,1,1.072.192,1.931,1.931,0,0,1,.864.56,7.253,7.253,0,0,1,1.408-.56,4.926,4.926,0,0,1,1.36-.192,2.373,2.373,0,0,1,2.112.912,5.345,5.345,0,0,1,.624,2.944V236H295.79v-4.272a3.573,3.573,0,0,0-.24-1.536.916.916,0,0,0-.9-.464,4.674,4.674,0,0,0-1.232.224l-.24.08q.064,1.072.064,1.824V236H291.1v-4.112a6.716,6.716,0,0,0-.1-1.312.972.972,0,0,0-.336-.64,1.1,1.1,0,0,0-.736-.208,3.824,3.824,0,0,0-1.184.224l-.192.064V236h-2.144Zm16.558,8.192a3.437,3.437,0,0,1-2.7-.944,4.569,4.569,0,0,1-.832-3.056,5.245,5.245,0,0,1,.864-3.3,3.291,3.291,0,0,1,2.72-1.088,3.364,3.364,0,0,1,2.56.912,3.719,3.719,0,0,1,.88,2.7l-.16,1.488h-4.7a2.151,2.151,0,0,0,.192.864.986.986,0,0,0,.544.416,3.916,3.916,0,0,0,1.056.112q.528,0,1.264-.032c.49-.021.848-.043,1.072-.064l.448-.048.032,1.584A13.59,13.59,0,0,1,302.972,236.192Zm1.376-4.912a2.152,2.152,0,0,0-.3-1.328,1.226,1.226,0,0,0-1.04-.384,1.316,1.316,0,0,0-1.088.4,2.123,2.123,0,0,0-.336,1.312Zm9.88,4.912a2.965,2.965,0,0,1-1.44-.288,1.631,1.631,0,0,1-.736-.944,5.778,5.778,0,0,1-.224-1.808v-3.328h-.944V228h.944v-2.224h2.144V228h1.968v1.824h-1.968v3.28a2.7,2.7,0,0,0,.112.912c.074.181.261.267.56.256l1.216-.032.1,1.712q-.641.144-1.008.192A5.331,5.331,0,0,1,314.228,236.192Zm6.244,0a3.437,3.437,0,0,1-2.7-.944,4.569,4.569,0,0,1-.832-3.056,5.245,5.245,0,0,1,.864-3.3,3.291,3.291,0,0,1,2.72-1.088,3.364,3.364,0,0,1,2.56.912,3.719,3.719,0,0,1,.88,2.7l-.16,1.488h-4.7a2.151,2.151,0,0,0,.192.864.986.986,0,0,0,.544.416,3.916,3.916,0,0,0,1.056.112q.528,0,1.264-.032c.49-.021.848-.043,1.072-.064l.448-.048.032,1.584A13.59,13.59,0,0,1,320.472,236.192Zm1.376-4.912a2.152,2.152,0,0,0-.3-1.328,1.226,1.226,0,0,0-1.04-.384,1.316,1.316,0,0,0-1.088.4,2.123,2.123,0,0,0-.336,1.312Zm5.068.7L324.724,228h2.288l1.28,2.48,1.3-2.48h2.288l-2.272,3.92,2.272,4.08h-2.288l-1.3-2.448L327.012,236h-2.288Zm8.7,4.208a2.97,2.97,0,0,1-1.44-.288,1.639,1.639,0,0,1-.736-.944,5.809,5.809,0,0,1-.224-1.808v-3.328h-.944V228h.944v-2.224h2.144V228h1.968v1.824h-1.968v3.28a2.729,2.729,0,0,0,.112.912c.075.181.262.267.56.256l1.216-.032.1,1.712q-.639.144-1.008.192A5.309,5.309,0,0,1,335.618,236.192Zm6.672-2.064,2.256-2.288q.881-.912,1.312-1.424a4.083,4.083,0,0,0,.624-.944,2.106,2.106,0,0,0,.208-.928,1.232,1.232,0,0,0-.384-1.024,1.673,1.673,0,0,0-1.12-.32,15.855,15.855,0,0,0-2.336.192l-.384.048-.112-1.712a11.032,11.032,0,0,1,3.248-.48q3.36,0,3.36,3.024a3.946,3.946,0,0,1-.944,2.672,13.369,13.369,0,0,1-1.424,1.472l-1.84,1.664h4.384V236H342.29Z" fill="#404259"/>
        <path id="Path_49" data-name="Path 49" d="M263.164,251.278h-2.982v-.966h7v.966h-2.954V260h-1.064Zm5.213-1.33h1.05v3.444a6.464,6.464,0,0,1,1.134-.406,4.664,4.664,0,0,1,1.078-.126,2.463,2.463,0,0,1,1.4.336,1.716,1.716,0,0,1,.7,1.064,7.834,7.834,0,0,1,.21,2.044V260H272.9v-3.668a7.086,7.086,0,0,0-.126-1.554,1.14,1.14,0,0,0-.448-.756,1.7,1.7,0,0,0-.966-.224,4.778,4.778,0,0,0-1.666.322l-.266.1V260h-1.05Zm10.138,10.192a2.767,2.767,0,0,1-2.268-.826,4.26,4.26,0,0,1-.658-2.632,4.753,4.753,0,0,1,.714-2.884,2.635,2.635,0,0,1,2.24-.938,2.581,2.581,0,0,1,2.086.812,3.666,3.666,0,0,1,.7,2.464l-.056.8h-4.62a4.017,4.017,0,0,0,.182,1.358,1.305,1.305,0,0,0,.644.714,3.142,3.142,0,0,0,1.274.21q.405,0,.938-.014t.966-.07l.406-.042.028.826A18.744,18.744,0,0,1,278.515,260.14Zm1.764-4.046a3.056,3.056,0,0,0-.406-1.806,1.549,1.549,0,0,0-1.33-.546,1.723,1.723,0,0,0-1.428.574,2.829,2.829,0,0,0-.476,1.778ZM282.965,253H284v.49a4.052,4.052,0,0,1,2.1-.63,2.811,2.811,0,0,1,1.036.182,1.514,1.514,0,0,1,.728.532,5.045,5.045,0,0,1,1.218-.5,4.946,4.946,0,0,1,1.428-.21,2.211,2.211,0,0,1,1.33.35,1.832,1.832,0,0,1,.672,1.078,7.7,7.7,0,0,1,.21,2.016V260h-1.05v-3.668a7.862,7.862,0,0,0-.112-1.526,1.262,1.262,0,0,0-.42-.77,1.379,1.379,0,0,0-.882-.238,3.872,3.872,0,0,0-.966.126,3.6,3.6,0,0,0-.8.266l-.266.126a6.931,6.931,0,0,1,.182,2.044V260h-1.05v-3.612a8.153,8.153,0,0,0-.112-1.568,1.312,1.312,0,0,0-.406-.784,1.379,1.379,0,0,0-.882-.238,3.653,3.653,0,0,0-.938.126,3.334,3.334,0,0,0-.77.266l-.238.126V260h-1.05Zm14.321,7.14a2.767,2.767,0,0,1-2.268-.826,4.26,4.26,0,0,1-.658-2.632,4.753,4.753,0,0,1,.714-2.884,2.636,2.636,0,0,1,2.24-.938,2.579,2.579,0,0,1,2.086.812,3.661,3.661,0,0,1,.7,2.464l-.056.8h-4.62a4.042,4.042,0,0,0,.182,1.358,1.309,1.309,0,0,0,.644.714,3.146,3.146,0,0,0,1.274.21c.271,0,.583-.005.938-.014s.677-.042.966-.07l.406-.042.028.826A18.744,18.744,0,0,1,297.286,260.14Zm1.764-4.046a3.048,3.048,0,0,0-.406-1.806,1.549,1.549,0,0,0-1.33-.546,1.723,1.723,0,0,0-1.428.574,2.829,2.829,0,0,0-.476,1.778ZM301.737,253h1.036v7h-1.036Zm0-2.8h1.036v1.218h-1.036Zm3.048,2.8h1.036v.49a5.218,5.218,0,0,1,1.148-.49,4.348,4.348,0,0,1,1.106-.14,2.43,2.43,0,0,1,1.386.336,1.8,1.8,0,0,1,.686,1.078,7.665,7.665,0,0,1,.21,2.03V260h-1.036v-3.668a7.033,7.033,0,0,0-.126-1.526,1.252,1.252,0,0,0-.42-.77,1.441,1.441,0,0,0-.9-.238,4.036,4.036,0,0,0-.98.126,3.636,3.636,0,0,0-.8.266l-.266.126V260h-1.05Zm10.082,10.29a3.923,3.923,0,0,1-2.226-.476A1.783,1.783,0,0,1,312,261.26a2.39,2.39,0,0,1,.1-.742,1.5,1.5,0,0,1,.336-.5,7.6,7.6,0,0,1,.672-.574.756.756,0,0,1-.294-.378,1.46,1.46,0,0,1-.1-.532,1.061,1.061,0,0,1,.084-.392,6.708,6.708,0,0,1,.392-.77,2.05,2.05,0,0,1-1.106-2.1,2.3,2.3,0,0,1,.658-1.806,2.863,2.863,0,0,1,1.988-.6,6.387,6.387,0,0,1,1.428.182l2.072-.056v.9l-1.33-.028a1.439,1.439,0,0,1,.35.588,2.789,2.789,0,0,1,.112.868,2.187,2.187,0,0,1-.644,1.778,3.162,3.162,0,0,1-2.03.532,3.777,3.777,0,0,1-.714-.056c-.075.187-.135.35-.182.49a1.167,1.167,0,0,0-.07.364.457.457,0,0,0,.28.476,2.671,2.671,0,0,0,.9.112h.546a6.352,6.352,0,0,1,1.484.14,1.46,1.46,0,0,1,.882.574,2.524,2.524,0,0,1-.448,3.01A4.275,4.275,0,0,1,314.867,263.29Zm-.14-6.51a1.729,1.729,0,0,0,1.218-.35,1.6,1.6,0,0,0,.364-1.19,1.582,1.582,0,0,0-.364-1.176,1.7,1.7,0,0,0-1.2-.35,1.757,1.757,0,0,0-1.246.364,2.082,2.082,0,0,0,0,2.352A1.785,1.785,0,0,0,314.727,256.78Zm.238,5.628a2.981,2.981,0,0,0,1.624-.322,1.2,1.2,0,0,0,.462-1.078,1.263,1.263,0,0,0-.154-.686.821.821,0,0,0-.518-.308,4.976,4.976,0,0,0-1.05-.084l-1.512-.07a2.62,2.62,0,0,0-.63.588,1.276,1.276,0,0,0-.154.672,1.123,1.123,0,0,0,.42,1.008A2.951,2.951,0,0,0,314.965,262.408Zm7.9-8.5h-.882V253h.882v-.63a5.1,5.1,0,0,1,.182-1.54,1.308,1.308,0,0,1,.588-.784,2.217,2.217,0,0,1,1.12-.238l1.414.1-.014.868q-.882-.028-1.092-.028c-.13-.009-.214-.014-.252-.014a.719.719,0,0,0-.714.42,3.237,3.237,0,0,0-.182,1.232V253h2.03v.91h-2.03V260h-1.05Zm6.906,6.23a3.682,3.682,0,0,1-1.778-.364,2.1,2.1,0,0,1-.938-1.162,7.828,7.828,0,0,1,.014-4.2,2.1,2.1,0,0,1,.952-1.176,3.5,3.5,0,0,1,1.75-.378,3.452,3.452,0,0,1,1.75.378,2.157,2.157,0,0,1,.952,1.176,7.828,7.828,0,0,1,.014,4.2,2.093,2.093,0,0,1-.938,1.162A3.628,3.628,0,0,1,329.772,260.14Zm.014-.91a2.244,2.244,0,0,0,1.176-.252,1.372,1.372,0,0,0,.56-.826,6.007,6.007,0,0,0,.168-1.61,6.452,6.452,0,0,0-.168-1.68,1.381,1.381,0,0,0-.574-.84,2.213,2.213,0,0,0-1.162-.252,2.294,2.294,0,0,0-1.176.252,1.444,1.444,0,0,0-.588.84,8.417,8.417,0,0,0-.014,3.276,1.44,1.44,0,0,0,.574.84A2.362,2.362,0,0,0,329.786,259.23Zm4.695-6.23h1.036v.952a6.984,6.984,0,0,1,2.562-1.106v1.064a10.729,10.729,0,0,0-2.2.77l-.35.182V260h-1.05Zm9.442,7.14a1.9,1.9,0,0,1-1.47-.546,2.231,2.231,0,0,1-.5-1.568,2,2,0,0,1,.5-1.5,2.736,2.736,0,0,1,1.638-.6l2.2-.21v-.6q0-1.33-1.148-1.33a25.462,25.462,0,0,0-2.758.182l-.042-.8a13.67,13.67,0,0,1,2.73-.308,1.959,1.959,0,0,1,2.268,2.254V258.7q.042.518.812.616l-.042.826a2.261,2.261,0,0,1-1.666-.56A6.1,6.1,0,0,1,343.923,260.14Zm.168-.882a5.742,5.742,0,0,0,1.876-.322l.322-.112v-2.31l-2.072.2a1.347,1.347,0,0,0-.91.364,1.286,1.286,0,0,0-.28.9Q343.027,259.259,344.091,259.258Zm7.489.882a2.126,2.126,0,0,1-1.9-.854,4.9,4.9,0,0,1-.574-2.66,4.749,4.749,0,0,1,.686-2.884,2.76,2.76,0,0,1,2.3-.882,8.137,8.137,0,0,1,1.666.182v-3.094h1.036V260H353.75v-.476A4.33,4.33,0,0,1,351.58,260.14Zm.2-.938a3.844,3.844,0,0,0,.882-.112,5.04,5.04,0,0,0,.812-.28l.28-.126v-4.746a8.871,8.871,0,0,0-1.582-.168,1.761,1.761,0,0,0-1.554.644,3.944,3.944,0,0,0-.434,2.128,4.467,4.467,0,0,0,.35,2.016A1.313,1.313,0,0,0,351.776,259.2Zm5.045-6.2h1.036v.49a4.052,4.052,0,0,1,2.1-.63,2.816,2.816,0,0,1,1.036.182,1.519,1.519,0,0,1,.728.532,5.045,5.045,0,0,1,1.218-.5,4.937,4.937,0,0,1,1.428-.21,2.213,2.213,0,0,1,1.33.35,1.832,1.832,0,0,1,.672,1.078,7.7,7.7,0,0,1,.21,2.016V260h-1.05v-3.668a7.941,7.941,0,0,0-.112-1.526,1.262,1.262,0,0,0-.42-.77,1.379,1.379,0,0,0-.882-.238,3.86,3.86,0,0,0-.966.126,3.6,3.6,0,0,0-.8.266l-.266.126a6.931,6.931,0,0,1,.182,2.044V260h-1.05v-3.612a8.239,8.239,0,0,0-.112-1.568,1.312,1.312,0,0,0-.406-.784,1.379,1.379,0,0,0-.882-.238,3.653,3.653,0,0,0-.938.126,3.317,3.317,0,0,0-.77.266l-.239.126V260h-1.049Zm11.7,0h1.036v7h-1.036Zm0-2.8h1.036v1.218h-1.036Zm3.048,2.8h1.036v.49a5.219,5.219,0,0,1,1.148-.49,4.348,4.348,0,0,1,1.106-.14,2.43,2.43,0,0,1,1.386.336,1.8,1.8,0,0,1,.686,1.078,7.663,7.663,0,0,1,.21,2.03V260h-1.036v-3.668a7.031,7.031,0,0,0-.126-1.526,1.252,1.252,0,0,0-.42-.77,1.441,1.441,0,0,0-.9-.238,4.036,4.036,0,0,0-.98.126,3.636,3.636,0,0,0-.8.266l-.266.126V260h-1.05Zm12.122,7.14a1.9,1.9,0,0,1-1.47-.546,2.231,2.231,0,0,1-.5-1.568,2,2,0,0,1,.5-1.5,2.736,2.736,0,0,1,1.638-.6l2.2-.21v-.6q0-1.33-1.148-1.33a25.477,25.477,0,0,0-2.758.182l-.042-.8a13.686,13.686,0,0,1,2.73-.308,1.959,1.959,0,0,1,2.268,2.254V258.7q.042.518.812.616l-.042.826a2.262,2.262,0,0,1-1.666-.56A6.1,6.1,0,0,1,383.694,260.14Zm.168-.882a5.738,5.738,0,0,0,1.876-.322l.322-.112v-2.31l-2.072.2a1.349,1.349,0,0,0-.91.364,1.286,1.286,0,0,0-.28.9Q382.8,259.259,383.862,259.258Zm5.32-6.258h1.036v.49a5.2,5.2,0,0,1,1.148-.49,4.337,4.337,0,0,1,1.106-.14,2.435,2.435,0,0,1,1.386.336,1.805,1.805,0,0,1,.686,1.078,7.665,7.665,0,0,1,.21,2.03V260h-1.036v-3.668a7.034,7.034,0,0,0-.126-1.526,1.262,1.262,0,0,0-.42-.77,1.443,1.443,0,0,0-.9-.238,4.03,4.03,0,0,0-.98.126,3.6,3.6,0,0,0-.8.266l-.266.126V260h-1.05Zm9.689,7.14a2.126,2.126,0,0,1-1.9-.854,4.9,4.9,0,0,1-.574-2.66,4.749,4.749,0,0,1,.686-2.884,2.76,2.76,0,0,1,2.3-.882,8.136,8.136,0,0,1,1.666.182v-3.094h1.036V260h-1.036v-.476A4.33,4.33,0,0,1,398.871,260.14Zm.2-.938a3.845,3.845,0,0,0,.882-.112,5.041,5.041,0,0,0,.812-.28l.28-.126v-4.746a8.871,8.871,0,0,0-1.582-.168,1.761,1.761,0,0,0-1.554.644,3.944,3.944,0,0,0-.434,2.128,4.467,4.467,0,0,0,.35,2.016A1.313,1.313,0,0,0,399.067,259.2Zm8.121-6.2h1.036v.49a4.052,4.052,0,0,1,2.1-.63,2.815,2.815,0,0,1,1.036.182,1.519,1.519,0,0,1,.728.532,5.045,5.045,0,0,1,1.218-.5,4.936,4.936,0,0,1,1.428-.21,2.213,2.213,0,0,1,1.33.35,1.832,1.832,0,0,1,.672,1.078,7.7,7.7,0,0,1,.21,2.016V260H415.9v-3.668a7.941,7.941,0,0,0-.112-1.526,1.262,1.262,0,0,0-.42-.77,1.379,1.379,0,0,0-.882-.238,3.86,3.86,0,0,0-.966.126,3.6,3.6,0,0,0-.8.266l-.266.126a6.931,6.931,0,0,1,.182,2.044V260h-1.05v-3.612a8.236,8.236,0,0,0-.112-1.568,1.312,1.312,0,0,0-.406-.784,1.379,1.379,0,0,0-.882-.238,3.653,3.653,0,0,0-.938.126,3.317,3.317,0,0,0-.77.266l-.238.126V260h-1.05Zm14.391,7.14a3.676,3.676,0,0,1-1.778-.364,2.093,2.093,0,0,1-.938-1.162,7.828,7.828,0,0,1,.014-4.2,2.1,2.1,0,0,1,.952-1.176,3.5,3.5,0,0,1,1.75-.378,3.457,3.457,0,0,1,1.75.378,2.161,2.161,0,0,1,.952,1.176,7.828,7.828,0,0,1,.014,4.2,2.1,2.1,0,0,1-.938,1.162A3.631,3.631,0,0,1,421.579,260.14Zm.014-.91a2.249,2.249,0,0,0,1.176-.252,1.381,1.381,0,0,0,.56-.826,6.007,6.007,0,0,0,.168-1.61,6.452,6.452,0,0,0-.168-1.68,1.385,1.385,0,0,0-.574-.84,2.215,2.215,0,0,0-1.162-.252,2.294,2.294,0,0,0-1.176.252,1.435,1.435,0,0,0-.588.84,8.417,8.417,0,0,0-.014,3.276,1.436,1.436,0,0,0,.574.84A2.36,2.36,0,0,0,421.593,259.23Zm6.962.9a18.422,18.422,0,0,1-1.876-.1l-.392-.042V249.948h1.036v3.4a5.176,5.176,0,0,1,2.128-.49,2.542,2.542,0,0,1,1.456.364,1.974,1.974,0,0,1,.77,1.134,7.077,7.077,0,0,1,.252,2.1,6.309,6.309,0,0,1-.308,2.226,1.972,1.972,0,0,1-1.036,1.12A5.078,5.078,0,0,1,428.555,260.126Zm.112-.924a2.826,2.826,0,0,0,1.358-.266,1.46,1.46,0,0,0,.658-.868,5.759,5.759,0,0,0,.182-1.638,6.115,6.115,0,0,0-.154-1.554,1.391,1.391,0,0,0-.518-.826,1.654,1.654,0,0,0-.98-.252,5.743,5.743,0,0,0-1.89.406v4.928Q428.331,259.2,428.667,259.2Zm4.989-6.2h1.036v7h-1.036Zm0-2.8h1.036v1.218h-1.036Zm3.133-.252h1.05V260h-1.05Zm5.692,10.192a2.767,2.767,0,0,1-2.268-.826,4.266,4.266,0,0,1-.658-2.632,4.753,4.753,0,0,1,.714-2.884,2.636,2.636,0,0,1,2.24-.938,2.578,2.578,0,0,1,2.086.812,3.661,3.661,0,0,1,.7,2.464l-.056.8h-4.62a4.042,4.042,0,0,0,.182,1.358,1.313,1.313,0,0,0,.644.714,3.145,3.145,0,0,0,1.274.21q.406,0,.938-.014t.966-.07l.406-.042.028.826A18.731,18.731,0,0,1,442.481,260.14Zm1.764-4.046a3.048,3.048,0,0,0-.406-1.806,1.548,1.548,0,0,0-1.33-.546,1.723,1.723,0,0,0-1.428.574,2.835,2.835,0,0,0-.476,1.778Zm8.381,4.046a2.767,2.767,0,0,1-2.268-.826,4.26,4.26,0,0,1-.658-2.632,4.753,4.753,0,0,1,.714-2.884,2.636,2.636,0,0,1,2.24-.938,2.579,2.579,0,0,1,2.086.812,3.661,3.661,0,0,1,.7,2.464l-.056.8h-4.62a4.042,4.042,0,0,0,.182,1.358,1.309,1.309,0,0,0,.644.714,3.146,3.146,0,0,0,1.274.21c.271,0,.583-.005.938-.014s.677-.042.966-.07l.406-.042.028.826A18.744,18.744,0,0,1,452.626,260.14Zm1.764-4.046a3.048,3.048,0,0,0-.406-1.806,1.549,1.549,0,0,0-1.33-.546,1.723,1.723,0,0,0-1.428.574,2.829,2.829,0,0,0-.476,1.778Zm4.13.406-2.2-3.5h1.148l1.708,2.744L460.886,253h1.148l-2.226,3.472L462.02,260h-1.148l-1.694-2.73L457.47,260h-1.148Zm4.832-3.5h1.036v.5a4.9,4.9,0,0,1,1.05-.476,3.515,3.515,0,0,1,1.092-.168,2.117,2.117,0,0,1,1.89.868,4.827,4.827,0,0,1,.6,2.73,6.166,6.166,0,0,1-.308,2.142,2.206,2.206,0,0,1-.98,1.176,3.8,3.8,0,0,1-1.806.364,7.459,7.459,0,0,1-1.526-.154v3.122h-1.05Zm2.59,6.23a1.783,1.783,0,0,0,1.554-.644,3.649,3.649,0,0,0,.462-2.086,3.948,3.948,0,0,0-.406-2.058,1.314,1.314,0,0,0-1.2-.644,3.149,3.149,0,0,0-.882.14,5.2,5.2,0,0,0-.8.28l-.266.14v4.718A11.519,11.519,0,0,0,465.942,259.23Zm7.411.91a2.767,2.767,0,0,1-2.268-.826,4.26,4.26,0,0,1-.658-2.632,4.753,4.753,0,0,1,.714-2.884,2.635,2.635,0,0,1,2.24-.938,2.581,2.581,0,0,1,2.086.812,3.666,3.666,0,0,1,.7,2.464l-.056.8h-4.62a4.016,4.016,0,0,0,.182,1.358,1.305,1.305,0,0,0,.644.714,3.142,3.142,0,0,0,1.274.21q.4,0,.938-.014t.966-.07l.406-.042.028.826A18.743,18.743,0,0,1,473.353,260.14Zm1.764-4.046a3.056,3.056,0,0,0-.406-1.806,1.549,1.549,0,0,0-1.33-.546,1.723,1.723,0,0,0-1.428.574,2.829,2.829,0,0,0-.476,1.778ZM477.8,253h1.036v.952a7,7,0,0,1,2.562-1.106v1.064a10.729,10.729,0,0,0-2.2.77l-.35.182V260H477.8Zm4.84,0h1.036v7h-1.036Zm0-2.8h1.036v1.218h-1.036Zm5.585,9.94a2.767,2.767,0,0,1-2.268-.826,4.26,4.26,0,0,1-.658-2.632,4.753,4.753,0,0,1,.714-2.884,2.635,2.635,0,0,1,2.24-.938,2.581,2.581,0,0,1,2.086.812,3.666,3.666,0,0,1,.7,2.464l-.056.8h-4.62a4.016,4.016,0,0,0,.182,1.358,1.305,1.305,0,0,0,.644.714,3.142,3.142,0,0,0,1.274.21q.4,0,.938-.014t.966-.07l.406-.042.028.826A18.743,18.743,0,0,1,488.228,260.14Zm1.764-4.046a3.056,3.056,0,0,0-.406-1.806,1.549,1.549,0,0,0-1.33-.546,1.723,1.723,0,0,0-1.428.574,2.829,2.829,0,0,0-.476,1.778ZM492.678,253h1.036v.49a5.219,5.219,0,0,1,1.148-.49,4.343,4.343,0,0,1,1.106-.14,2.435,2.435,0,0,1,1.386.336,1.8,1.8,0,0,1,.686,1.078,7.665,7.665,0,0,1,.21,2.03V260h-1.036v-3.668a7.034,7.034,0,0,0-.126-1.526,1.262,1.262,0,0,0-.42-.77,1.441,1.441,0,0,0-.9-.238,4.036,4.036,0,0,0-.98.126,3.6,3.6,0,0,0-.8.266l-.266.126V260h-1.05Zm10.039,7.14a3.265,3.265,0,0,1-1.666-.364,2.1,2.1,0,0,1-.882-1.162,6.874,6.874,0,0,1-.266-2.114,5.42,5.42,0,0,1,.56-2.66,2.269,2.269,0,0,1,2.17-.994c.28,0,.57.014.868.042s.7.089,1.218.182l-.042.854a16.148,16.148,0,0,0-1.694-.126,2.478,2.478,0,0,0-1.232.252,1.358,1.358,0,0,0-.6.826,6.214,6.214,0,0,0-.168,1.652,5.942,5.942,0,0,0,.168,1.6,1.394,1.394,0,0,0,.6.826,2.668,2.668,0,0,0,1.288.252l1.652-.126.042.868A15.276,15.276,0,0,1,502.717,260.14Zm6.114,0a2.767,2.767,0,0,1-2.268-.826,4.26,4.26,0,0,1-.658-2.632,4.753,4.753,0,0,1,.714-2.884,2.636,2.636,0,0,1,2.24-.938,2.579,2.579,0,0,1,2.086.812,3.661,3.661,0,0,1,.7,2.464l-.056.8h-4.62a4.042,4.042,0,0,0,.182,1.358,1.309,1.309,0,0,0,.644.714,3.145,3.145,0,0,0,1.274.21c.271,0,.583-.005.938-.014s.677-.042.966-.07l.406-.042.028.826A18.744,18.744,0,0,1,508.831,260.14Zm1.764-4.046a3.048,3.048,0,0,0-.406-1.806,1.549,1.549,0,0,0-1.33-.546,1.723,1.723,0,0,0-1.428.574,2.829,2.829,0,0,0-.476,1.778Z" fill="#404259"/>
        <path id="Path_50" data-name="Path 50" d="M558.153,259.487l1.18,1.18L566,254l-6.667-6.667-1.18,1.18L563.64,254Z" fill="#b8bac8"/>
    </g>
</svg>
