<svg width="375" height="812" fill="none" xmlns="http://www.w3.org/2000/svg"><path fill="#fff" d="M0 0h375v812H0z"/><path fill="url(#paint0_linear)" d="M0 0h375v812H0z"/><path d="M24.972 91.232h3.6l3.852 21.744h.9l4.86-21.6h4.032l4.86 21.6h.864l3.888-21.744h3.564L50.46 116h-5.832L40.2 95.552 35.736 116h-5.832l-4.932-24.768zm40.063 25.164c-2.76 0-4.728-.708-5.904-2.124-1.176-1.44-1.764-3.708-1.764-6.804 0-3.336.624-5.808 1.872-7.416 1.272-1.632 3.228-2.448 5.868-2.448 4.896 0 7.344 2.784 7.344 8.352l-.216 2.448H60.75c.024 1.296.192 2.304.504 3.024.312.696.816 1.2 1.512 1.512.696.312 1.68.468 2.952.468.744 0 1.584-.012 2.52-.036a56.385 56.385 0 002.52-.18l1.008-.108.072 2.592c-2.808.48-5.076.72-6.804.72zm4.068-10.62c0-1.944-.312-3.324-.936-4.14-.6-.816-1.62-1.224-3.06-1.224-1.512 0-2.616.432-3.312 1.296-.696.84-1.056 2.196-1.08 4.068h8.388zm7.554-15.408h3.348V116h-3.348V90.368zm14.807 26.028c-1.776 0-3.204-.324-4.284-.972-1.056-.648-1.824-1.656-2.304-3.024-.456-1.368-.684-3.168-.684-5.4 0-2.976.516-5.28 1.548-6.912 1.056-1.656 2.952-2.484 5.688-2.484.696 0 1.44.048 2.232.144.792.072 1.86.24 3.204.504l-.108 2.664c-2.04-.192-3.48-.288-4.32-.288-1.272 0-2.256.192-2.952.576-.696.384-1.188 1.032-1.476 1.944-.264.912-.396 2.208-.396 3.888 0 1.632.132 2.892.396 3.78.288.888.78 1.536 1.476 1.944.696.408 1.716.612 3.06.612l4.248-.324.108 2.736c-2.4.408-4.212.612-5.436.612zm16.221 0c-2.808 0-4.824-.744-6.048-2.232-1.224-1.512-1.837-3.876-1.837-7.092 0-3.288.625-5.688 1.873-7.2 1.248-1.512 3.252-2.268 6.012-2.268 2.784 0 4.788.768 6.012 2.304 1.248 1.512 1.872 3.9 1.872 7.164 0 3.192-.612 5.544-1.836 7.056-1.224 1.512-3.24 2.268-6.048 2.268zm0-2.916c1.152 0 2.04-.204 2.664-.612.648-.408 1.104-1.068 1.368-1.98.264-.912.396-2.184.396-3.816 0-1.704-.144-3.024-.432-3.96-.264-.936-.72-1.596-1.368-1.98-.624-.408-1.5-.612-2.628-.612-1.128 0-2.016.204-2.664.612-.648.384-1.116 1.056-1.404 2.016-.264.936-.396 2.244-.396 3.924 0 1.608.132 2.88.396 3.816.264.912.72 1.572 1.368 1.98.648.408 1.548.612 2.7.612zM119.683 98h3.312v1.188c.912-.528 1.776-.924 2.592-1.188a8.136 8.136 0 012.52-.396c.936 0 1.8.156 2.592.468.792.288 1.416.732 1.872 1.332.96-.528 2.004-.96 3.132-1.296a12.413 12.413 0 013.492-.504c1.488 0 2.652.3 3.492.9.84.6 1.44 1.536 1.8 2.808.36 1.272.54 2.976.54 5.112V116h-3.348v-9.504c0-1.512-.096-2.676-.288-3.492-.168-.84-.492-1.44-.972-1.8-.456-.384-1.14-.576-2.052-.576a9.18 9.18 0 00-2.088.252 9.43 9.43 0 00-1.908.576l-.648.288c.264 1.032.396 2.664.396 4.896V116h-3.384v-9.288c0-1.608-.084-2.832-.252-3.672-.168-.864-.492-1.476-.972-1.836-.456-.384-1.14-.576-2.052-.576a9.18 9.18 0 00-2.088.252c-.696.168-1.284.36-1.764.576l-.576.288V116h-3.348V98zm36.969 18.396c-2.76 0-4.728-.708-5.904-2.124-1.176-1.44-1.764-3.708-1.764-6.804 0-3.336.624-5.808 1.872-7.416 1.272-1.632 3.228-2.448 5.868-2.448 4.896 0 7.344 2.784 7.344 8.352l-.216 2.448h-11.484c.024 1.296.192 2.304.504 3.024.312.696.816 1.2 1.512 1.512.696.312 1.68.468 2.952.468.744 0 1.584-.012 2.52-.036a56.385 56.385 0 002.52-.18l1.008-.108.072 2.592c-2.808.48-5.076.72-6.804.72zm4.068-10.62c0-1.944-.312-3.324-.936-4.14-.6-.816-1.62-1.224-3.06-1.224-1.512 0-2.616.432-3.312 1.296-.696.84-1.056 2.196-1.08 4.068h8.388z" fill="#fff"/><path d="M25.36 146.928h1.232V158H25.36v-11.072zm6.274 11.248c-.544 0-.971-.085-1.28-.256-.3-.181-.518-.48-.656-.896-.128-.427-.192-1.019-.192-1.776v-4.208h-1.137V150h1.137v-2.448h1.183V150h2.544v1.04H30.69v3.824c0 .597.02 1.045.063 1.344.043.288.145.512.305.672.17.149.431.224.784.224l1.424-.096.08.992c-.758.117-1.328.176-1.712.176zm6.58-8.176h1.184v8h-1.184v-8zm0-3.2h1.184v1.392h-1.184V146.8zm5.997 11.36c-.64 0-1.424-.075-2.352-.224l-.48-.08.064-1.04c1.248.181 2.165.272 2.752.272.64 0 1.114-.101 1.424-.304.32-.213.48-.549.48-1.008 0-.331-.08-.581-.24-.752a1.249 1.249 0 00-.592-.368 6.698 6.698 0 00-1.008-.208l-.4-.064c-.64-.107-1.142-.235-1.504-.384-.363-.149-.635-.357-.816-.624-.181-.277-.272-.656-.272-1.136 0-.864.261-1.477.784-1.84s1.264-.544 2.224-.544c.757 0 1.53.069 2.32.208l.448.08-.032 1.024c-1.152-.171-2.053-.256-2.704-.256-.619 0-1.083.096-1.392.288-.299.192-.448.491-.448.896 0 .288.075.512.224.672.15.149.341.261.576.336.245.064.586.133 1.024.208l.4.08c.661.117 1.173.256 1.536.416.363.149.63.368.8.656.181.288.272.688.272 1.2 0 .864-.256 1.499-.768 1.904-.502.395-1.275.592-2.32.592zM51.9 150h1.28l1.872 6.96h.592L57.58 150h1.232l-2.256 8h-2.4l-2.256-8zm11.306 8.16c-1.216 0-2.08-.315-2.592-.944-.5-.64-.752-1.643-.752-3.008 0-1.483.273-2.581.816-3.296.544-.715 1.398-1.072 2.56-1.072 1.067 0 1.862.309 2.385.928.533.608.8 1.547.8 2.816l-.064.912h-5.28c0 .661.069 1.179.207 1.552a1.5 1.5 0 00.736.816c.352.16.838.24 1.456.24.31 0 .667-.005 1.072-.016a24.9 24.9 0 001.105-.08l.463-.048.032.944c-1.184.171-2.165.256-2.944.256zm2.016-4.624c0-.971-.154-1.659-.463-2.064-.31-.416-.816-.624-1.52-.624-.736 0-1.28.219-1.633.656-.352.427-.533 1.104-.544 2.032h4.16zm3.07-3.536h1.185v1.088a7.993 7.993 0 012.928-1.264v1.216a9.42 9.42 0 00-1.36.4c-.48.171-.864.331-1.152.48l-.4.208V158h-1.2v-8zm8.236 8h-1.184l-2.272-8h1.2l2 6.96h.528l2.016-6.96h1.2l-3.328 11.552h-1.2l1.04-3.552zm11.538.16c-1.216 0-2.08-.315-2.592-.944-.502-.64-.752-1.643-.752-3.008 0-1.483.272-2.581.816-3.296.544-.715 1.397-1.072 2.56-1.072 1.067 0 1.861.309 2.384.928.533.608.8 1.547.8 2.816l-.064.912h-5.28c0 .661.07 1.179.208 1.552a1.5 1.5 0 00.736.816c.352.16.837.24 1.456.24.31 0 .666-.005 1.072-.016a24.9 24.9 0 001.104-.08l.464-.048.032.944c-1.184.171-2.166.256-2.944.256zm2.016-4.624c0-.971-.155-1.659-.464-2.064-.31-.416-.816-.624-1.52-.624-.736 0-1.28.219-1.632.656-.352.427-.533 1.104-.544 2.032h4.16zm4.814 4.624c-.736 0-1.296-.208-1.68-.624-.384-.416-.576-1.013-.576-1.792 0-.768.192-1.339.576-1.712.395-.373 1.019-.603 1.872-.688l2.512-.24v-.688c0-1.013-.437-1.52-1.312-1.52-.864 0-1.915.069-3.152.208l-.048-.912c1.141-.235 2.181-.352 3.12-.352.907 0 1.563.208 1.968.624.416.405.624 1.056.624 1.952v4.096c.032.395.341.629.928.704l-.048.944c-.843 0-1.477-.213-1.904-.64a6.96 6.96 0 01-2.88.64zm.192-1.008c.715 0 1.43-.123 2.144-.368l.368-.128v-2.64l-2.368.224c-.48.043-.827.181-1.04.416-.213.235-.32.576-.32 1.024 0 .981.405 1.472 1.216 1.472zm8.592 1.008c-.64 0-1.424-.075-2.352-.224l-.48-.08.064-1.04c1.248.181 2.165.272 2.752.272.64 0 1.114-.101 1.424-.304.32-.213.48-.549.48-1.008 0-.331-.08-.581-.24-.752a1.253 1.253 0 00-.592-.368 6.715 6.715 0 00-1.008-.208l-.4-.064c-.64-.107-1.142-.235-1.504-.384-.363-.149-.635-.357-.816-.624-.182-.277-.272-.656-.272-1.136 0-.864.261-1.477.784-1.84.522-.363 1.264-.544 2.224-.544.757 0 1.53.069 2.32.208l.448.08-.032 1.024c-1.152-.171-2.054-.256-2.704-.256-.619 0-1.083.096-1.392.288-.299.192-.448.491-.448.896 0 .288.074.512.224.672a1.4 1.4 0 00.576.336c.245.064.586.133 1.024.208l.4.08c.661.117 1.173.256 1.536.416.362.149.629.368.8.656.181.288.272.688.272 1.2 0 .864-.256 1.499-.768 1.904-.502.395-1.275.592-2.32.592zm7.504-.16H110l-2.272-8h1.2l2 6.96h.528l2.016-6.96h1.2l-3.328 11.552h-1.2l1.04-3.552zm11.09.176c-.544 0-.971-.085-1.28-.256-.299-.181-.517-.48-.656-.896-.128-.427-.192-1.019-.192-1.776v-4.208h-1.136V150h1.136v-2.448h1.184V150h2.544v1.04h-2.544v3.824c0 .597.021 1.045.064 1.344.043.288.144.512.304.672.171.149.432.224.784.224l1.424-.096.08.992c-.757.117-1.328.176-1.712.176zm6.137-.016c-.853 0-1.53-.139-2.031-.416-.502-.288-.859-.731-1.072-1.328-.214-.597-.32-1.387-.32-2.368 0-1.013.112-1.824.336-2.432.224-.619.586-1.067 1.088-1.344.501-.288 1.168-.432 1.999-.432.843 0 1.51.144 2.001.432.501.288.864.736 1.088 1.344.224.608.336 1.419.336 2.432 0 .981-.107 1.771-.32 2.368-.214.597-.571 1.04-1.072 1.328-.491.277-1.168.416-2.033.416zm.017-1.04c.586 0 1.034-.096 1.344-.288.309-.203.522-.517.64-.944.128-.437.192-1.051.192-1.84 0-.832-.064-1.472-.192-1.92-.128-.448-.347-.768-.656-.96-.31-.192-.752-.288-1.328-.288-.576 0-1.024.096-1.344.288-.31.192-.534.512-.672.96-.128.448-.192 1.088-.192 1.92 0 .779.058 1.387.176 1.824.128.437.346.757.656.96.32.192.778.288 1.376.288zm11.392 1.04c-.64 0-1.424-.075-2.352-.224l-.48-.08.064-1.04c1.248.181 2.166.272 2.752.272.64 0 1.115-.101 1.424-.304.32-.213.48-.549.48-1.008 0-.331-.08-.581-.24-.752a1.244 1.244 0 00-.592-.368 6.66 6.66 0 00-1.008-.208l-.4-.064c-.64-.107-1.141-.235-1.504-.384-.362-.149-.634-.357-.816-.624-.181-.277-.272-.656-.272-1.136 0-.864.262-1.477.784-1.84.523-.363 1.264-.544 2.224-.544.758 0 1.531.069 2.32.208l.448.08-.032 1.024c-1.152-.171-2.053-.256-2.704-.256-.618 0-1.082.096-1.392.288-.298.192-.448.491-.448.896 0 .288.075.512.224.672.15.149.342.261.576.336.246.064.587.133 1.024.208l.4.08c.662.117 1.174.256 1.536.416.363.149.63.368.8.656.182.288.272.688.272 1.2 0 .864-.256 1.499-.768 1.904-.501.395-1.274.592-2.32.592zm7.47.016c-.544 0-.971-.085-1.28-.256-.299-.181-.518-.48-.656-.896-.128-.427-.192-1.019-.192-1.776v-4.208h-1.136V150h1.136v-2.448h1.184V150h2.544v1.04h-2.544v3.824c0 .597.021 1.045.064 1.344.042.288.144.512.304.672.17.149.432.224.784.224l1.424-.096.08.992c-.758.117-1.328.176-1.712.176zm4.809-.016c-.736 0-1.296-.208-1.68-.624-.384-.416-.576-1.013-.576-1.792 0-.768.192-1.339.576-1.712.395-.373 1.019-.603 1.872-.688l2.512-.24v-.688c0-1.013-.437-1.52-1.312-1.52-.864 0-1.915.069-3.152.208l-.048-.912c1.141-.235 2.181-.352 3.12-.352.907 0 1.563.208 1.968.624.416.405.624 1.056.624 1.952v4.096c.032.395.341.629.928.704l-.048.944c-.843 0-1.477-.213-1.904-.64a6.958 6.958 0 01-2.88.64zm.192-1.008c.715 0 1.429-.123 2.144-.368l.368-.128v-2.64l-2.368.224c-.48.043-.827.181-1.04.416-.213.235-.32.576-.32 1.024 0 .981.405 1.472 1.216 1.472zm6.08-7.152h1.184v1.088a7.987 7.987 0 012.928-1.264v1.216c-.416.085-.87.219-1.36.4-.48.171-.864.331-1.152.48l-.4.208V158h-1.2v-8zm8.075 8.176c-.544 0-.971-.085-1.28-.256-.299-.181-.517-.48-.656-.896-.128-.427-.192-1.019-.192-1.776v-4.208h-1.136V150h1.136v-2.448h1.184V150h2.544v1.04h-2.544v3.824c0 .597.021 1.045.064 1.344.043.288.144.512.304.672.171.149.432.224.784.224l1.424-.096.08.992c-.757.117-1.328.176-1.712.176zm9.653-.016c-.853 0-1.531-.139-2.032-.416-.501-.288-.859-.731-1.072-1.328-.213-.597-.32-1.387-.32-2.368 0-1.013.112-1.824.336-2.432.224-.619.587-1.067 1.088-1.344.501-.288 1.168-.432 2-.432.843 0 1.509.144 2 .432.501.288.864.736 1.088 1.344.224.608.336 1.419.336 2.432 0 .981-.107 1.771-.32 2.368-.213.597-.571 1.04-1.072 1.328-.491.277-1.168.416-2.032.416zm.016-1.04c.587 0 1.035-.096 1.344-.288.309-.203.523-.517.64-.944.128-.437.192-1.051.192-1.84 0-.832-.064-1.472-.192-1.92-.128-.448-.347-.768-.656-.96-.309-.192-.752-.288-1.328-.288-.576 0-1.024.096-1.344.288-.309.192-.533.512-.672.96-.128.448-.192 1.088-.192 1.92 0 .779.059 1.387.176 1.824.128.437.347.757.656.96.32.192.779.288 1.376.288zm5.365-7.12h1.184v1.088a7.987 7.987 0 012.928-1.264v1.216a9.43 9.43 0 00-1.36.4c-.48.171-.864.331-1.152.48l-.4.208V158h-1.2v-8zm7.808 8.16c-1.013 0-1.738-.325-2.176-.976-.437-.661-.656-1.675-.656-3.04 0-1.525.262-2.624.784-3.296.534-.672 1.408-1.008 2.624-1.008.608 0 1.243.069 1.904.208v-3.536h1.184V158h-1.184v-.544c-.821.469-1.648.704-2.48.704zm.224-1.072c.31 0 .646-.043 1.008-.128.363-.096.672-.203.928-.32l.32-.144v-5.424a10.142 10.142 0 00-1.808-.192c-.842 0-1.434.245-1.776.736-.33.491-.496 1.301-.496 2.432 0 1.035.134 1.803.4 2.304.278.491.752.736 1.424.736zm8.663 1.072c-1.216 0-2.08-.315-2.592-.944-.501-.64-.752-1.643-.752-3.008 0-1.483.272-2.581.816-3.296.544-.715 1.398-1.072 2.56-1.072 1.067 0 1.862.309 2.384.928.534.608.8 1.547.8 2.816l-.064.912h-5.28c0 .661.07 1.179.208 1.552.15.373.395.645.736.816.352.16.838.24 1.456.24.31 0 .667-.005 1.072-.016.406-.021.774-.048 1.104-.08l.464-.048.032.944c-1.184.171-2.165.256-2.944.256zm2.016-4.624c0-.971-.154-1.659-.464-2.064-.309-.416-.816-.624-1.52-.624-.736 0-1.28.219-1.632.656-.352.427-.533 1.104-.544 2.032h4.16zm3.07-3.536h1.184v1.088a8.002 8.002 0 012.928-1.264v1.216a9.43 9.43 0 00-1.36.4c-.48.171-.864.331-1.152.48l-.4.208V158h-1.2v-8zm5.532 0h1.184v8h-1.184v-8zm0-3.2h1.184v1.392h-1.184V146.8zm3.484 3.2h1.184v.56a5.95 5.95 0 011.312-.56c.405-.107.827-.16 1.264-.16.683 0 1.211.128 1.584.384s.635.667.784 1.232c.16.555.24 1.328.24 2.32V158h-1.184v-4.192c0-.757-.048-1.339-.144-1.744-.085-.405-.245-.699-.48-.88-.235-.181-.576-.272-1.024-.272-.363 0-.736.048-1.12.144a4.14 4.14 0 00-.912.304l-.304.144V158h-1.2v-8zm11.522 11.76c-1.195 0-2.043-.181-2.544-.544-.491-.352-.736-.944-.736-1.776 0-.341.037-.624.112-.848.085-.213.213-.405.384-.576a8.61 8.61 0 01.768-.656.86.86 0 01-.336-.432 1.657 1.657 0 01-.112-.608c0-.139.032-.288.096-.448.064-.171.213-.464.448-.88-.843-.373-1.264-1.173-1.264-2.4 0-.928.25-1.616.752-2.064.501-.459 1.258-.688 2.272-.688.49 0 1.034.069 1.632.208l2.368-.064v1.024l-1.52-.032c.181.181.314.405.4.672.085.256.128.587.128.992 0 .949-.246 1.627-.736 2.032-.491.405-1.264.608-2.32.608a4.25 4.25 0 01-.816-.064c-.086.213-.155.4-.208.56a1.33 1.33 0 00-.08.416c0 .277.106.459.32.544.224.085.565.128 1.024.128h.624c.704 0 1.269.053 1.696.16.437.107.773.325 1.008.656.234.32.352.789.352 1.408 0 .928-.288 1.605-.864 2.032-.576.427-1.526.64-2.848.64zm-.16-7.44c.65 0 1.114-.133 1.392-.4.277-.267.416-.72.416-1.36 0-.629-.139-1.077-.416-1.344-.278-.267-.736-.4-1.376-.4-.662 0-1.136.139-1.424.416-.278.267-.416.715-.416 1.344 0 .629.138 1.077.416 1.344.288.267.757.4 1.408.4zm.272 6.432c.885 0 1.504-.123 1.856-.368.352-.235.528-.645.528-1.232 0-.341-.059-.603-.176-.784-.118-.171-.315-.288-.592-.352-.278-.064-.678-.096-1.2-.096l-1.728-.08c-.352.256-.592.48-.72.672-.118.192-.176.448-.176.768 0 .555.16.939.48 1.152.33.213.906.32 1.728.32zm5.099-4.576h1.312V158h-1.312v-1.824zm8.488-8.16v3.824h4.544v1.072h-4.544v4h5.504V158h-6.736v-11.072h6.736v1.088h-5.504zm7.404 1.984h1.184v8h-1.184v-8zm0-3.2h1.184v1.392h-1.184V146.8zm5.794 11.376c-.544 0-.971-.085-1.28-.256-.299-.181-.517-.48-.656-.896-.128-.427-.192-1.019-.192-1.776v-4.208h-1.136V150h1.136v-2.448h1.184V150h2.544v1.04h-2.544v3.824c0 .597.021 1.045.064 1.344.043.288.144.512.304.672.171.149.432.224.784.224l1.424-.096.08.992c-.757.117-1.328.176-1.712.176zm3.065-11.664h1.2v3.936a7.46 7.46 0 011.296-.464 5.332 5.332 0 011.232-.144c.694 0 1.227.128 1.6.384.384.245.651.651.8 1.216.16.565.24 1.344.24 2.336V158h-1.2v-4.192c0-.789-.048-1.381-.144-1.776-.085-.405-.256-.693-.512-.864-.245-.171-.613-.256-1.104-.256-.608 0-1.242.123-1.904.368l-.304.112V158h-1.2v-11.488zm11.586 11.648c-1.216 0-2.08-.315-2.592-.944-.501-.64-.752-1.643-.752-3.008 0-1.483.272-2.581.816-3.296.544-.715 1.397-1.072 2.56-1.072 1.067 0 1.861.309 2.384.928.533.608.8 1.547.8 2.816l-.064.912h-5.28c0 .661.069 1.179.208 1.552a1.5 1.5 0 00.736.816c.352.16.837.24 1.456.24.309 0 .667-.005 1.072-.016.405-.021.773-.048 1.104-.08l.464-.048.032.944c-1.184.171-2.165.256-2.944.256zm2.016-4.624c0-.971-.155-1.659-.464-2.064-.309-.416-.816-.624-1.52-.624-.736 0-1.28.219-1.632.656-.352.427-.533 1.104-.544 2.032h4.16zm3.07-3.536h1.184v1.088a8.002 8.002 0 012.928-1.264v1.216a9.43 9.43 0 00-1.36.4c-.48.171-.864.331-1.152.48l-.4.208V158h-1.2v-8zm9.047 0h1.184v.56c.8-.48 1.6-.72 2.4-.72.437 0 .832.069 1.184.208.352.128.629.331.832.608a5.733 5.733 0 011.392-.576 5.646 5.646 0 011.632-.24c.651 0 1.157.133 1.52.4.363.256.619.667.768 1.232.16.565.24 1.333.24 2.304V158h-1.2v-4.192c0-.757-.043-1.339-.128-1.744s-.245-.699-.48-.88c-.224-.181-.56-.272-1.008-.272-.363 0-.731.048-1.104.144a4.14 4.14 0 00-.912.304l-.304.144c.139.341.208 1.12.208 2.336V158h-1.2v-4.128c0-.789-.043-1.387-.128-1.792-.085-.416-.24-.715-.464-.896-.224-.181-.56-.272-1.008-.272a4.18 4.18 0 00-1.072.144 3.798 3.798 0 00-.88.304l-.272.144V158h-1.2v-8zm15.119 8.16c-.736 0-1.296-.208-1.68-.624-.384-.416-.576-1.013-.576-1.792 0-.768.192-1.339.576-1.712.395-.373 1.019-.603 1.872-.688l2.512-.24v-.688c0-1.013-.437-1.52-1.312-1.52-.864 0-1.915.069-3.152.208l-.048-.912c1.141-.235 2.181-.352 3.12-.352.907 0 1.563.208 1.968.624.416.405.624 1.056.624 1.952v4.096c.032.395.341.629.928.704l-.048.944c-.843 0-1.477-.213-1.904-.64a6.958 6.958 0 01-2.88.64zm.192-1.008c.715 0 1.429-.123 2.144-.368l.368-.128v-2.64l-2.368.224c-.48.043-.827.181-1.04.416-.213.235-.32.576-.32 1.024 0 .981.405 1.472 1.216 1.472zm6.08-7.152h1.184v.56a5.95 5.95 0 011.312-.56c.405-.107.826-.16 1.264-.16.682 0 1.21.128 1.584.384.373.256.634.667.784 1.232.16.555.24 1.328.24 2.32V158h-1.184v-4.192c0-.757-.048-1.339-.144-1.744-.086-.405-.246-.699-.48-.88-.235-.181-.576-.272-1.024-.272-.363 0-.736.048-1.12.144a4.104 4.104 0 00-.912.304l-.304.144V158h-1.2v-8zm11.09 8.16c-.683 0-1.211-.123-1.584-.368-.363-.256-.619-.667-.768-1.232-.15-.565-.224-1.36-.224-2.384V150h1.2v4.16c0 .8.042 1.403.128 1.808.085.405.24.693.464.864.224.171.57.256 1.04.256.725 0 1.472-.197 2.24-.592V150h1.2v8h-1.2v-.56a6.023 6.023 0 01-1.216.56c-.374.107-.8.16-1.28.16zm7.748 0c-.736 0-1.296-.208-1.68-.624-.384-.416-.576-1.013-.576-1.792 0-.768.192-1.339.576-1.712.394-.373 1.018-.603 1.872-.688l2.512-.24v-.688c0-1.013-.438-1.52-1.312-1.52-.864 0-1.915.069-3.152.208l-.048-.912c1.141-.235 2.181-.352 3.12-.352.906 0 1.562.208 1.968.624.416.405.624 1.056.624 1.952v4.096c.032.395.341.629.928.704l-.048.944c-.843 0-1.478-.213-1.904-.64-.95.427-1.91.64-2.88.64zm.192-1.008a6.58 6.58 0 002.144-.368l.368-.128v-2.64l-2.368.224c-.48.043-.827.181-1.04.416-.214.235-.32.576-.32 1.024 0 .981.405 1.472 1.216 1.472zm6.175-10.64h1.2V158h-1.2v-11.488zm3.703 0h1.2V158h-1.2v-11.488zm6.03 11.488h-1.184l-2.272-8h1.2l2 6.96h.528l2.016-6.96h1.2l-3.328 11.552h-1.2l1.04-3.552zM27.696 182.176c-.544 0-.97-.085-1.28-.256-.299-.181-.517-.48-.656-.896-.128-.427-.192-1.019-.192-1.776v-4.208h-1.136V174h1.136v-2.448h1.184V174h2.544v1.04h-2.544v3.824c0 .597.021 1.045.064 1.344.043.288.144.512.304.672.17.149.432.224.784.224l1.424-.096.08.992c-.757.117-1.328.176-1.712.176zm5.77-.176H32.28l-2.272-8h1.2l2 6.96h.528l2.016-6.96h1.2l-3.328 11.552h-1.2l1.04-3.552zm5.03-8h1.184v.576a5.605 5.605 0 011.2-.544 4.02 4.02 0 011.248-.192c.992 0 1.712.331 2.16.992.458.651.688 1.691.688 3.12 0 1.013-.118 1.829-.352 2.448-.235.608-.608 1.056-1.12 1.344-.512.277-1.2.416-2.064.416a8.585 8.585 0 01-1.744-.176v3.568h-1.2V174zm2.96 7.12c.832 0 1.424-.245 1.776-.736.352-.491.528-1.285.528-2.384 0-1.088-.155-1.872-.464-2.352-.299-.491-.758-.736-1.376-.736-.31 0-.646.053-1.008.16a6.019 6.019 0 00-.912.32l-.304.16v5.392c.79.117 1.376.176 1.76.176zm8.47 1.04c-1.217 0-2.08-.315-2.593-.944-.501-.64-.752-1.643-.752-3.008 0-1.483.272-2.581.816-3.296.544-.715 1.398-1.072 2.56-1.072 1.067 0 1.862.309 2.384.928.534.608.8 1.547.8 2.816l-.064.912h-5.28c0 .661.07 1.179.208 1.552a1.5 1.5 0 00.736.816c.352.16.838.24 1.456.24.31 0 .667-.005 1.072-.016a24.9 24.9 0 001.104-.08l.464-.048.032.944c-1.184.171-2.165.256-2.944.256zm2.015-4.624c0-.971-.154-1.659-.464-2.064-.31-.416-.816-.624-1.52-.624-.736 0-1.28.219-1.632.656-.352.427-.533 1.104-.544 2.032h4.16zM58.527 174h1.184v.56c.48-.267.917-.453 1.312-.56.405-.107.827-.16 1.264-.16.683 0 1.21.128 1.584.384.373.256.635.667.784 1.232.16.555.24 1.328.24 2.32V182h-1.184v-4.192c0-.757-.048-1.339-.144-1.744-.085-.405-.245-.699-.48-.88-.235-.181-.576-.272-1.024-.272a4.61 4.61 0 00-1.12.144 4.13 4.13 0 00-.912.304l-.304.144V182h-1.2v-8zm11.09 8.16c-.683 0-1.21-.123-1.584-.368-.363-.256-.619-.667-.768-1.232-.15-.565-.224-1.36-.224-2.384V174h1.2v4.16c0 .8.042 1.403.128 1.808.085.405.24.693.464.864.224.171.57.256 1.04.256.725 0 1.472-.197 2.24-.592V174h1.2v8h-1.2v-.56a6.001 6.001 0 01-1.216.56c-.374.107-.8.16-1.28.16zM75.62 174h1.184v.56c.8-.48 1.6-.72 2.4-.72a3.2 3.2 0 011.184.208c.352.128.63.331.832.608a5.72 5.72 0 011.392-.576 5.65 5.65 0 011.632-.24c.65 0 1.157.133 1.52.4.362.256.618.667.768 1.232.16.565.24 1.333.24 2.304V182h-1.2v-4.192c0-.757-.043-1.339-.128-1.744-.086-.405-.246-.699-.48-.88-.224-.181-.56-.272-1.008-.272-.363 0-.73.048-1.104.144a4.126 4.126 0 00-.912.304l-.304.144c.138.341.208 1.12.208 2.336V182h-1.2v-4.128c0-.789-.043-1.387-.128-1.792-.086-.416-.24-.715-.464-.896-.224-.181-.56-.272-1.008-.272-.352 0-.71.048-1.072.144a3.804 3.804 0 00-.88.304l-.272.144V182h-1.2v-8zm15.967 8.144c-.704 0-1.419-.037-2.144-.112l-.448-.048v-11.472h1.184v3.888c.832-.373 1.642-.56 2.432-.56.704 0 1.258.139 1.664.416.405.267.698.699.88 1.296.192.597.288 1.397.288 2.4 0 1.099-.118 1.947-.352 2.544-.235.597-.63 1.024-1.184 1.28-.544.245-1.318.368-2.32.368zm.128-1.056c.672 0 1.19-.101 1.552-.304.362-.213.613-.544.752-.992.138-.448.208-1.072.208-1.872 0-.757-.059-1.349-.176-1.776-.118-.437-.315-.752-.592-.944-.267-.192-.64-.288-1.12-.288-.587 0-1.307.155-2.16.464v5.632c.768.053 1.28.08 1.536.08zm8.694 1.072c-1.216 0-2.08-.315-2.592-.944-.502-.64-.752-1.643-.752-3.008 0-1.483.272-2.581.816-3.296.544-.715 1.397-1.072 2.56-1.072 1.066 0 1.861.309 2.384.928.533.608.8 1.547.8 2.816l-.064.912h-5.28c0 .661.069 1.179.208 1.552a1.5 1.5 0 00.736.816c.352.16.837.24 1.456.24.309 0 .666-.005 1.072-.016.405-.021.773-.048 1.104-.08l.464-.048.032.944c-1.184.171-2.166.256-2.944.256zm2.016-4.624c0-.971-.155-1.659-.464-2.064-.31-.416-.816-.624-1.52-.624-.736 0-1.28.219-1.632.656-.352.427-.534 1.104-.544 2.032h4.16zm3.07-3.536h1.184v1.088a7.987 7.987 0 012.928-1.264v1.216c-.416.085-.87.219-1.36.4-.48.171-.864.331-1.152.48l-.4.208V182h-1.2v-8zm11.591 8.176c-.544 0-.971-.085-1.28-.256-.299-.181-.518-.48-.656-.896-.128-.427-.192-1.019-.192-1.776v-4.208h-1.136V174h1.136v-2.448h1.184V174h2.544v1.04h-2.544v3.824c0 .597.021 1.045.064 1.344.042.288.144.512.304.672.17.149.432.224.784.224l1.424-.096.08.992c-.758.117-1.328.176-1.712.176zm3.065-11.664h1.2v3.936a7.403 7.403 0 011.296-.464 5.326 5.326 0 011.232-.144c.693 0 1.227.128 1.6.384.384.245.651.651.8 1.216.16.565.24 1.344.24 2.336V182h-1.2v-4.192c0-.789-.048-1.381-.144-1.776-.085-.405-.256-.693-.512-.864-.245-.171-.613-.256-1.104-.256-.608 0-1.243.123-1.904.368l-.304.112V182h-1.2v-11.488zm10.338 11.648c-.736 0-1.296-.208-1.68-.624-.384-.416-.576-1.013-.576-1.792 0-.768.192-1.339.576-1.712.394-.373 1.018-.603 1.872-.688l2.512-.24v-.688c0-1.013-.438-1.52-1.312-1.52-.864 0-1.915.069-3.152.208l-.048-.912c1.141-.235 2.181-.352 3.12-.352.906 0 1.562.208 1.968.624.416.405.624 1.056.624 1.952v4.096c.032.395.341.629.928.704l-.048.944c-.843 0-1.478-.213-1.904-.64-.95.427-1.91.64-2.88.64zm.192-1.008a6.58 6.58 0 002.144-.368l.368-.128v-2.64l-2.368.224c-.48.043-.827.181-1.04.416-.214.235-.32.576-.32 1.024 0 .981.405 1.472 1.216 1.472zm8.623 1.024c-.544 0-.97-.085-1.28-.256-.298-.181-.517-.48-.656-.896-.128-.427-.192-1.019-.192-1.776v-4.208h-1.136V174h1.136v-2.448h1.184V174h2.544v1.04h-2.544v3.824c0 .597.022 1.045.064 1.344.043.288.144.512.304.672.171.149.432.224.784.224l1.424-.096.08.992c-.757.117-1.328.176-1.712.176zm6.581-8.176h1.184v8h-1.184v-8zm0-3.2h1.184v1.392h-1.184V170.8zm5.997 11.36c-.64 0-1.424-.075-2.352-.224l-.48-.08.064-1.04c1.248.181 2.165.272 2.752.272.64 0 1.114-.101 1.424-.304.32-.213.48-.549.48-1.008 0-.331-.08-.581-.24-.752a1.253 1.253 0 00-.592-.368 6.715 6.715 0 00-1.008-.208l-.4-.064c-.64-.107-1.142-.235-1.504-.384-.363-.149-.635-.357-.816-.624-.182-.277-.272-.656-.272-1.136 0-.864.261-1.477.784-1.84.522-.363 1.264-.544 2.224-.544.757 0 1.53.069 2.32.208l.448.08-.032 1.024c-1.152-.171-2.054-.256-2.704-.256-.619 0-1.083.096-1.392.288-.299.192-.448.491-.448.896 0 .288.074.512.224.672a1.4 1.4 0 00.576.336c.245.064.586.133 1.024.208l.4.08c.661.117 1.173.256 1.536.416.362.149.629.368.8.656.181.288.272.688.272 1.2 0 .864-.256 1.499-.768 1.904-.502.395-1.275.592-2.32.592zm7.785-8.16h1.2l1.616 6.96h.256l1.904-6.8h1.248l1.904 6.8h.272l1.6-6.96h1.2l-1.904 8h-2l-1.696-6.256-1.696 6.256h-2l-1.904-8zm12.843 0h1.184v1.088a8.002 8.002 0 012.928-1.264v1.216a9.43 9.43 0 00-1.36.4c-.48.171-.864.331-1.152.48l-.4.208V182h-1.2v-8zm5.532 0h1.184v8h-1.184v-8zm0-3.2h1.184v1.392h-1.184V170.8zm5.794 11.376c-.544 0-.971-.085-1.28-.256-.299-.181-.518-.48-.656-.896-.128-.427-.192-1.019-.192-1.776v-4.208h-1.136V174h1.136v-2.448h1.184V174h2.544v1.04h-2.544v3.824c0 .597.021 1.045.064 1.344.042.288.144.512.304.672.17.149.432.224.784.224l1.424-.096.08.992c-.758.117-1.328.176-1.712.176zm5.609 0c-.544 0-.971-.085-1.28-.256-.299-.181-.517-.48-.656-.896-.128-.427-.192-1.019-.192-1.776v-4.208h-1.136V174h1.136v-2.448h1.184V174h2.544v1.04h-2.544v3.824c0 .597.021 1.045.064 1.344.043.288.144.512.304.672.171.149.432.224.784.224l1.424-.096.08.992c-.757.117-1.328.176-1.712.176zm6.057-.016c-1.216 0-2.08-.315-2.592-.944-.501-.64-.752-1.643-.752-3.008 0-1.483.272-2.581.816-3.296.544-.715 1.398-1.072 2.56-1.072 1.067 0 1.862.309 2.384.928.534.608.8 1.547.8 2.816l-.064.912h-5.28c0 .661.07 1.179.208 1.552.15.373.395.645.736.816.352.16.838.24 1.456.24.31 0 .667-.005 1.072-.016.406-.021.774-.048 1.104-.08l.464-.048.032.944c-1.184.171-2.165.256-2.944.256zm2.016-4.624c0-.971-.154-1.659-.464-2.064-.309-.416-.816-.624-1.52-.624-.736 0-1.28.219-1.632.656-.352.427-.533 1.104-.544 2.032h4.16zM200.59 174h1.184v.56a5.95 5.95 0 011.312-.56c.405-.107.826-.16 1.264-.16.682 0 1.21.128 1.584.384.373.256.634.667.784 1.232.16.555.24 1.328.24 2.32V182h-1.184v-4.192c0-.757-.048-1.339-.144-1.744-.086-.405-.246-.699-.48-.88-.235-.181-.576-.272-1.024-.272-.363 0-.736.048-1.12.144a4.104 4.104 0 00-.912.304l-.305.144V182h-1.199v-8zm15.181 8.16c-.853 0-1.531-.139-2.032-.416-.501-.288-.859-.731-1.072-1.328-.213-.597-.32-1.387-.32-2.368 0-1.013.112-1.824.336-2.432.224-.619.587-1.067 1.088-1.344.501-.288 1.168-.432 2-.432.843 0 1.509.144 2 .432.501.288.864.736 1.088 1.344.224.608.336 1.419.336 2.432 0 .981-.107 1.771-.32 2.368-.213.597-.571 1.04-1.072 1.328-.491.277-1.168.416-2.032.416zm.016-1.04c.587 0 1.035-.096 1.344-.288.309-.203.523-.517.64-.944.128-.437.192-1.051.192-1.84 0-.832-.064-1.472-.192-1.92-.128-.448-.347-.768-.656-.96-.309-.192-.752-.288-1.328-.288-.576 0-1.024.096-1.344.288-.309.192-.533.512-.672.96-.128.448-.192 1.088-.192 1.92 0 .779.059 1.387.176 1.824.128.437.347.757.656.96.32.192.779.288 1.376.288zm5.365-7.12h1.184v.56a5.95 5.95 0 011.312-.56c.405-.107.827-.16 1.264-.16.683 0 1.211.128 1.584.384s.635.667.784 1.232c.16.555.24 1.328.24 2.32V182h-1.184v-4.192c0-.757-.048-1.339-.144-1.744-.085-.405-.245-.699-.48-.88-.235-.181-.576-.272-1.024-.272-.363 0-.736.048-1.12.144a4.14 4.14 0 00-.912.304l-.304.144V182h-1.2v-8zm14.653 8.176c-.544 0-.97-.085-1.28-.256-.298-.181-.517-.48-.656-.896-.128-.427-.192-1.019-.192-1.776v-4.208h-1.136V174h1.136v-2.448h1.184V174h2.544v1.04h-2.544v3.824c0 .597.022 1.045.064 1.344.043.288.144.512.304.672.171.149.432.224.784.224l1.424-.096.08.992c-.757.117-1.328.176-1.712.176zm3.066-11.664h1.2v3.936a7.403 7.403 0 011.296-.464 5.326 5.326 0 011.232-.144c.693 0 1.226.128 1.6.384.384.245.65.651.8 1.216.16.565.24 1.344.24 2.336V182h-1.2v-4.192c0-.789-.048-1.381-.144-1.776-.086-.405-.256-.693-.512-.864-.246-.171-.614-.256-1.104-.256-.608 0-1.243.123-1.904.368l-.304.112V182h-1.2v-11.488zm11.586 11.648c-1.216 0-2.08-.315-2.592-.944-.502-.64-.752-1.643-.752-3.008 0-1.483.272-2.581.816-3.296.544-.715 1.397-1.072 2.56-1.072 1.066 0 1.861.309 2.384.928.533.608.8 1.547.8 2.816l-.064.912h-5.28c0 .661.069 1.179.208 1.552.149.373.394.645.736.816.352.16.837.24 1.456.24.309 0 .666-.005 1.072-.016.405-.021.773-.048 1.104-.08l.464-.048.032.944c-1.184.171-2.166.256-2.944.256zm2.016-4.624c0-.971-.155-1.659-.464-2.064-.31-.416-.816-.624-1.52-.624-.736 0-1.28.219-1.632.656-.352.427-.534 1.104-.545 2.032h4.161zm9.129 4.64c-.544 0-.97-.085-1.28-.256-.298-.181-.517-.48-.656-.896-.128-.427-.192-1.019-.192-1.776v-4.208h-1.136V174h1.136v-2.448h1.184V174h2.544v1.04h-2.544v3.824c0 .597.022 1.045.064 1.344.043.288.144.512.304.672.171.149.432.224.784.224l1.424-.096.08.992c-.757.117-1.328.176-1.712.176zm4.81-.016c-.736 0-1.296-.208-1.68-.624-.384-.416-.576-1.013-.576-1.792 0-.768.192-1.339.576-1.712.394-.373 1.018-.603 1.872-.688l2.512-.24v-.688c0-1.013-.438-1.52-1.312-1.52-.864 0-1.915.069-3.152.208l-.048-.912c1.141-.235 2.181-.352 3.12-.352.906 0 1.562.208 1.968.624.416.405.624 1.056.624 1.952v4.096c.032.395.341.629.928.704l-.048.944c-.843 0-1.478-.213-1.904-.64-.95.427-1.91.64-2.88.64zm.192-1.008a6.58 6.58 0 002.144-.368l.368-.128v-2.64l-2.368.224c-.48.043-.827.181-1.04.416-.214.235-.32.576-.32 1.024 0 .981.405 1.472 1.216 1.472zm8.671.992c-.704 0-1.418-.037-2.144-.112l-.448-.048v-11.472h1.184v3.888c.832-.373 1.643-.56 2.432-.56.704 0 1.259.139 1.664.416.406.267.699.699.88 1.296.192.597.288 1.397.288 2.4 0 1.099-.117 1.947-.352 2.544-.234.597-.629 1.024-1.184 1.28-.544.245-1.317.368-2.32.368zm.128-1.056c.672 0 1.19-.101 1.552-.304.363-.213.614-.544.752-.992.139-.448.208-1.072.208-1.872 0-.757-.058-1.349-.176-1.776-.117-.437-.314-.752-.592-.944-.266-.192-.64-.288-1.12-.288-.586 0-1.306.155-2.16.464v5.632c.768.053 1.28.08 1.536.08zm5.798-10.576h1.2V182h-1.2v-11.488zm6.506 11.648c-1.216 0-2.08-.315-2.592-.944-.502-.64-.752-1.643-.752-3.008 0-1.483.272-2.581.816-3.296.544-.715 1.397-1.072 2.56-1.072 1.066 0 1.861.309 2.384.928.533.608.8 1.547.8 2.816l-.064.912h-5.28c0 .661.069 1.179.208 1.552.149.373.394.645.736.816.352.16.837.24 1.456.24.309 0 .666-.005 1.072-.016.405-.021.773-.048 1.104-.08l.464-.048.032.944c-1.184.171-2.166.256-2.944.256zm2.016-4.624c0-.971-.155-1.659-.464-2.064-.31-.416-.816-.624-1.52-.624-.736 0-1.28.219-1.632.656-.352.427-.534 1.104-.545 2.032h4.161zm9.657 4.624c-.853 0-1.53-.139-2.032-.416-.501-.288-.858-.731-1.072-1.328-.213-.597-.32-1.387-.32-2.368 0-1.013.112-1.824.336-2.432.224-.619.587-1.067 1.088-1.344.502-.288 1.168-.432 2-.432.843 0 1.51.144 2 .432.502.288.864.736 1.088 1.344.224.608.336 1.419.336 2.432 0 .981-.106 1.771-.32 2.368-.213.597-.57 1.04-1.072 1.328-.49.277-1.168.416-2.032.416zm.016-1.04c.587 0 1.035-.096 1.344-.288.31-.203.523-.517.64-.944.128-.437.192-1.051.192-1.84 0-.832-.064-1.472-.192-1.92-.128-.448-.346-.768-.656-.96-.309-.192-.752-.288-1.328-.288-.576 0-1.024.096-1.344.288-.309.192-.533.512-.672.96-.128.448-.192 1.088-.192 1.92 0 .779.059 1.387.176 1.824.128.437.347.757.656.96.32.192.779.288 1.376.288zm5.365-7.12h1.184v1.088a8.002 8.002 0 012.928-1.264v1.216a9.43 9.43 0 00-1.36.4c-.48.171-.864.331-1.152.48l-.4.208V182h-1.2v-8zm11.559 8.16c-.64 0-1.424-.075-2.352-.224l-.48-.08.064-1.04c1.248.181 2.166.272 2.752.272.64 0 1.115-.101 1.424-.304.32-.213.48-.549.48-1.008 0-.331-.08-.581-.24-.752a1.244 1.244 0 00-.592-.368 6.66 6.66 0 00-1.008-.208l-.4-.064c-.64-.107-1.141-.235-1.504-.384-.362-.149-.634-.357-.816-.624-.181-.277-.272-.656-.272-1.136 0-.864.262-1.477.784-1.84.523-.363 1.264-.544 2.224-.544.758 0 1.531.069 2.32.208l.448.08-.032 1.024c-1.152-.171-2.053-.256-2.704-.256-.618 0-1.082.096-1.392.288-.298.192-.448.491-.448.896 0 .288.075.512.224.672.15.149.342.261.576.336.246.064.587.133 1.024.208l.4.08c.662.117 1.174.256 1.536.416.363.149.63.368.8.656.182.288.272.688.272 1.2 0 .864-.256 1.499-.768 1.904-.501.395-1.274.592-2.32.592zm7.806 0c-.8 0-1.435-.139-1.904-.416-.47-.288-.806-.731-1.008-1.328-.203-.608-.304-1.413-.304-2.416 0-1.269.213-2.283.64-3.04.426-.757 1.253-1.136 2.48-1.136.32 0 .65.016.992.048.341.032.805.101 1.392.208l-.048.976c-.843-.096-1.488-.144-1.936-.144-.608 0-1.078.096-1.408.288-.32.181-.55.496-.688.944-.128.437-.192 1.067-.192 1.888 0 .779.064 1.387.192 1.824.128.427.357.741.688.944.341.192.832.288 1.472.288l1.888-.144.048.992c-1.024.149-1.792.224-2.304.224zm5.833 0c-.736 0-1.296-.208-1.68-.624-.384-.416-.576-1.013-.576-1.792 0-.768.192-1.339.576-1.712.394-.373 1.018-.603 1.872-.688l2.512-.24v-.688c0-1.013-.438-1.52-1.312-1.52-.864 0-1.915.069-3.152.208l-.048-.912c1.141-.235 2.181-.352 3.12-.352.906 0 1.562.208 1.968.624.416.405.624 1.056.624 1.952v4.096c.032.395.341.629.928.704l-.048.944c-.843 0-1.478-.213-1.904-.64-.95.427-1.91.64-2.88.64zm.192-1.008a6.58 6.58 0 002.144-.368l.368-.128v-2.64l-2.368.224c-.48.043-.827.181-1.04.416-.214.235-.32.576-.32 1.024 0 .981.405 1.472 1.216 1.472zM336.23 174h1.184v.56a5.95 5.95 0 011.312-.56c.405-.107.827-.16 1.264-.16.683 0 1.211.128 1.584.384s.635.667.784 1.232c.16.555.24 1.328.24 2.32V182h-1.184v-4.192c0-.757-.048-1.339-.144-1.744-.085-.405-.245-.699-.48-.88-.235-.181-.576-.272-1.024-.272-.363 0-.736.048-1.12.144a4.14 4.14 0 00-.912.304l-.304.144V182h-1.2v-8zM30.624 206.016c-.352.096-.8.144-1.344.144-1.099 0-1.968-.197-2.608-.592-.63-.395-1.083-.997-1.36-1.808-.267-.821-.4-1.904-.4-3.248 0-1.333.139-2.416.416-3.248.277-.843.736-1.467 1.376-1.872.64-.416 1.499-.624 2.576-.624s1.936.208 2.576.624c.64.405 1.099 1.029 1.376 1.872.288.832.432 1.915.432 3.248 0 1.376-.144 2.469-.432 3.28-.277.811-.747 1.408-1.408 1.792l1.36 2.192-1.152.544-1.408-2.304zm-1.328-.944c.81 0 1.435-.149 1.872-.448.448-.299.763-.768.944-1.408.181-.651.272-1.541.272-2.672 0-1.131-.096-2.032-.288-2.704-.181-.672-.496-1.168-.944-1.488-.448-.331-1.072-.496-1.872-.496s-1.424.16-1.872.48c-.448.32-.768.816-.96 1.488-.181.672-.272 1.568-.272 2.688s.09 2.011.272 2.672c.181.651.496 1.131.944 1.44.459.299 1.093.448 1.904.448zm6.627-10.144h4.096c1.184 0 2.069.277 2.656.832.586.544.88 1.387.88 2.528 0 1.717-.678 2.789-2.032 3.216L43.65 206h-1.36l-2-4.24h-3.136V206h-1.232v-11.072zm4.111 5.744c1.505 0 2.257-.779 2.257-2.336 0-1.547-.758-2.32-2.272-2.32h-2.864v4.656h2.88zm11.935 5.488c-.8 0-1.434-.139-1.904-.416-.469-.288-.805-.731-1.008-1.328-.202-.608-.303-1.413-.303-2.416 0-1.269.213-2.283.64-3.04.426-.757 1.253-1.136 2.48-1.136.32 0 .65.016.991.048.342.032.806.101 1.392.208l-.047.976c-.843-.096-1.489-.144-1.937-.144-.608 0-1.077.096-1.408.288-.32.181-.549.496-.688.944-.127.437-.191 1.067-.191 1.888 0 .779.064 1.387.192 1.824.128.427.357.741.688.944.34.192.831.288 1.471.288l1.888-.144.048.992c-1.024.149-1.792.224-2.304.224zm7.067 0c-.853 0-1.53-.139-2.032-.416-.5-.288-.858-.731-1.072-1.328-.213-.597-.32-1.387-.32-2.368 0-1.013.112-1.824.337-2.432.224-.619.586-1.067 1.087-1.344.502-.288 1.169-.432 2-.432.843 0 1.51.144 2 .432.502.288.864.736 1.088 1.344.224.608.337 1.419.337 2.432 0 .981-.107 1.771-.32 2.368-.214.597-.571 1.04-1.072 1.328-.491.277-1.169.416-2.033.416zm.017-1.04c.586 0 1.034-.096 1.344-.288.309-.203.522-.517.64-.944.127-.437.191-1.051.191-1.84 0-.832-.064-1.472-.192-1.92-.128-.448-.346-.768-.656-.96-.309-.192-.752-.288-1.328-.288-.575 0-1.023.096-1.343.288-.31.192-.534.512-.673.96-.128.448-.192 1.088-.192 1.92 0 .779.06 1.387.176 1.824.128.437.347.757.656.96.32.192.78.288 1.377.288zm7.845 1.04c-1.014 0-1.739-.325-2.176-.976-.438-.661-.656-1.675-.656-3.04 0-1.525.261-2.624.784-3.296.533-.672 1.408-1.008 2.624-1.008.608 0 1.242.069 1.904.208v-3.536h1.184V206h-1.184v-.544c-.822.469-1.648.704-2.48.704zm.224-1.072c.309 0 .645-.043 1.008-.128.362-.096.672-.203.928-.32l.32-.144v-5.424c-.694-.128-1.296-.192-1.808-.192-.843 0-1.435.245-1.776.736-.331.491-.496 1.301-.496 2.432 0 1.035.133 1.803.4 2.304.277.491.752.736 1.424.736zm8.663 1.072c-1.216 0-2.08-.315-2.592-.944-.502-.64-.752-1.643-.752-3.008 0-1.483.272-2.581.816-3.296.544-.715 1.397-1.072 2.56-1.072 1.066 0 1.861.309 2.384.928.533.608.8 1.547.8 2.816l-.064.912h-5.28c0 .661.069 1.179.208 1.552a1.5 1.5 0 00.736.816c.352.16.837.24 1.456.24.309 0 .666-.005 1.072-.016.405-.021.773-.048 1.104-.08l.464-.048.032.944c-1.184.171-2.166.256-2.944.256zm2.016-4.624c0-.971-.155-1.659-.464-2.064-.31-.416-.816-.624-1.52-.624-.736 0-1.28.219-1.632.656-.352.427-.534 1.104-.544 2.032h4.16zm2.99 2.64h1.312V206H80.79v-1.824zm11.032 1.984c-1.13 0-2-.208-2.607-.624-.608-.427-1.024-1.045-1.248-1.856-.225-.811-.337-1.883-.337-3.216 0-1.323.112-2.389.337-3.2.224-.821.629-1.44 1.215-1.856.598-.427 1.451-.64 2.56-.64.865 0 1.862.117 2.993.352l-.049 1.04c-1.077-.192-2.005-.288-2.784-.288-.832 0-1.46.149-1.888.448-.426.299-.72.779-.88 1.44-.149.661-.224 1.621-.224 2.88 0 1.088.07 1.941.209 2.56.149.608.447 1.072.895 1.392.448.309 1.126.464 2.032.464.737 0 1.617-.096 2.64-.288l.049 1.056c-1.1.224-2.07.336-2.913.336zm7.044 0c-.683 0-1.21-.123-1.584-.368-.363-.256-.619-.667-.768-1.232-.15-.565-.224-1.36-.224-2.384V198h1.2v4.16c0 .8.042 1.403.128 1.808.085.405.24.693.464.864.224.171.57.256 1.04.256.725 0 1.472-.197 2.24-.592V198h1.2v8h-1.2v-.56a6.023 6.023 0 01-1.216.56c-.374.107-.8.16-1.28.16zm8.516 0c-.64 0-1.424-.075-2.352-.224l-.48-.08.064-1.04c1.248.181 2.165.272 2.752.272.64 0 1.114-.101 1.424-.304.32-.213.48-.549.48-1.008 0-.331-.08-.581-.24-.752a1.253 1.253 0 00-.592-.368 6.715 6.715 0 00-1.008-.208l-.4-.064c-.64-.107-1.142-.235-1.504-.384-.363-.149-.635-.357-.816-.624-.182-.277-.272-.656-.272-1.136 0-.864.261-1.477.784-1.84.522-.363 1.264-.544 2.224-.544.757 0 1.53.069 2.32.208l.448.08-.032 1.024c-1.152-.171-2.054-.256-2.704-.256-.619 0-1.083.096-1.392.288-.299.192-.448.491-.448.896 0 .288.074.512.224.672a1.4 1.4 0 00.576.336c.245.064.586.133 1.024.208l.4.08c.661.117 1.173.256 1.536.416.362.149.629.368.8.656.181.288.272.688.272 1.2 0 .864-.256 1.499-.768 1.904-.502.395-1.275.592-2.32.592zm7.469.016c-.544 0-.97-.085-1.28-.256-.298-.181-.517-.48-.656-.896-.128-.427-.192-1.019-.192-1.776v-4.208h-1.136V198h1.136v-2.448h1.184V198h2.544v1.04h-2.544v3.824c0 .597.022 1.045.064 1.344.043.288.144.512.304.672.171.149.432.224.784.224l1.424-.096.08.992c-.757.117-1.328.176-1.712.176zm6.138-.016c-.854 0-1.531-.139-2.032-.416-.502-.288-.859-.731-1.072-1.328-.214-.597-.32-1.387-.32-2.368 0-1.013.112-1.824.336-2.432.224-.619.586-1.067 1.088-1.344.501-.288 1.168-.432 2-.432.842 0 1.509.144 2 .432.501.288.864.736 1.088 1.344.224.608.336 1.419.336 2.432 0 .981-.107 1.771-.32 2.368-.214.597-.571 1.04-1.072 1.328-.491.277-1.168.416-2.032.416zm.016-1.04c.586 0 1.034-.096 1.344-.288.309-.203.522-.517.64-.944.128-.437.192-1.051.192-1.84 0-.832-.064-1.472-.192-1.92-.128-.448-.347-.768-.656-.96-.31-.192-.752-.288-1.328-.288-.576 0-1.024.096-1.344.288-.31.192-.534.512-.672.96-.128.448-.192 1.088-.192 1.92 0 .779.058 1.387.176 1.824.128.437.346.757.656.96.32.192.778.288 1.376.288zm5.365-7.12h1.184v.56c.8-.48 1.6-.72 2.4-.72.437 0 .832.069 1.184.208.352.128.629.331.832.608a5.7 5.7 0 011.392-.576 5.646 5.646 0 011.632-.24c.65 0 1.157.133 1.52.4.362.256.618.667.768 1.232.16.565.24 1.333.24 2.304V206h-1.2v-4.192c0-.757-.043-1.339-.128-1.744-.086-.405-.246-.699-.48-.88-.224-.181-.56-.272-1.008-.272-.363 0-.731.048-1.104.144a4.104 4.104 0 00-.912.304l-.304.144c.138.341.208 1.12.208 2.336V206h-1.2v-4.128c0-.789-.043-1.387-.128-1.792-.086-.416-.24-.715-.464-.896-.224-.181-.56-.272-1.008-.272-.352 0-.71.048-1.072.144a3.798 3.798 0 00-.88.304l-.272.144V206h-1.2v-8zm13.375 0h1.184v8h-1.184v-8zm0-3.2h1.184v1.392h-1.184V194.8zm3.004 10.128l4.48-5.856h-4.48V198h5.936v1.072l-4.48 5.856h4.48V206h-5.936v-1.072zm10.707 1.232c-1.216 0-2.08-.315-2.592-.944-.502-.64-.752-1.643-.752-3.008 0-1.483.272-2.581.816-3.296.544-.715 1.397-1.072 2.56-1.072 1.066 0 1.861.309 2.384.928.533.608.8 1.547.8 2.816l-.064.912h-5.28c0 .661.069 1.179.208 1.552.149.373.394.645.736.816.352.16.837.24 1.456.24.309 0 .666-.005 1.072-.016.405-.021.773-.048 1.104-.08l.464-.048.032.944c-1.184.171-2.166.256-2.944.256zm2.016-4.624c0-.971-.155-1.659-.464-2.064-.31-.416-.816-.624-1.52-.624-.736 0-1.28.219-1.632.656-.352.427-.534 1.104-.545 2.032h4.161zm5.55 4.624c-1.014 0-1.739-.325-2.176-.976-.438-.661-.656-1.675-.656-3.04 0-1.525.261-2.624.784-3.296.533-.672 1.408-1.008 2.624-1.008a9.26 9.26 0 011.904.208v-3.536h1.184V206h-1.184v-.544c-.822.469-1.648.704-2.48.704zm.224-1.072c.309 0 .645-.043 1.008-.128.362-.096.672-.203.928-.32l.32-.144v-5.424c-.694-.128-1.296-.192-1.808-.192-.843 0-1.435.245-1.776.736-.331.491-.496 1.301-.496 2.432 0 1.035.133 1.803.4 2.304.277.491.752.736 1.424.736zm9.28-7.088h1.184v.56c.8-.48 1.6-.72 2.4-.72.437 0 .832.069 1.184.208.352.128.629.331.832.608a5.733 5.733 0 011.392-.576 5.646 5.646 0 011.632-.24c.651 0 1.157.133 1.52.4.363.256.619.667.768 1.232.16.565.24 1.333.24 2.304V206h-1.2v-4.192c0-.757-.043-1.339-.128-1.744s-.245-.699-.48-.88c-.224-.181-.56-.272-1.008-.272-.363 0-.731.048-1.104.144a4.14 4.14 0 00-.912.304l-.304.144c.139.341.208 1.12.208 2.336V206h-1.2v-4.128c0-.789-.043-1.387-.128-1.792-.085-.416-.24-.715-.464-.896-.224-.181-.56-.272-1.008-.272a4.18 4.18 0 00-1.072.144 3.798 3.798 0 00-.88.304l-.272.144V206h-1.2v-8zm16.367 8.16c-1.216 0-2.08-.315-2.592-.944-.501-.64-.752-1.643-.752-3.008 0-1.483.272-2.581.816-3.296.544-.715 1.397-1.072 2.56-1.072 1.067 0 1.861.309 2.384.928.533.608.8 1.547.8 2.816l-.064.912h-5.28c0 .661.069 1.179.208 1.552a1.5 1.5 0 00.736.816c.352.16.837.24 1.456.24.309 0 .667-.005 1.072-.016.405-.021.773-.048 1.104-.08l.464-.048.032.944c-1.184.171-2.165.256-2.944.256zm2.016-4.624c0-.971-.155-1.659-.464-2.064-.309-.416-.816-.624-1.52-.624-.736 0-1.28.219-1.632.656-.352.427-.533 1.104-.544 2.032h4.16zm3.07-3.536h1.184v.56a5.95 5.95 0 011.312-.56c.405-.107.827-.16 1.264-.16.683 0 1.211.128 1.584.384s.635.667.784 1.232c.16.555.24 1.328.24 2.32V206h-1.184v-4.192c0-.757-.048-1.339-.144-1.744-.085-.405-.245-.699-.48-.88-.235-.181-.576-.272-1.024-.272-.363 0-.736.048-1.12.144a4.14 4.14 0 00-.912.304l-.304.144V206h-1.2v-8zm11.09 8.16c-.683 0-1.211-.123-1.584-.368-.363-.256-.619-.667-.768-1.232-.149-.565-.224-1.36-.224-2.384V198h1.2v4.16c0 .8.043 1.403.128 1.808s.24.693.464.864c.224.171.571.256 1.04.256.725 0 1.472-.197 2.24-.592V198h1.2v8h-1.2v-.56a5.999 5.999 0 01-1.216.56c-.373.107-.8.16-1.28.16zm8.516 0c-.64 0-1.424-.075-2.352-.224l-.48-.08.064-1.04c1.248.181 2.165.272 2.752.272.64 0 1.115-.101 1.424-.304.32-.213.48-.549.48-1.008 0-.331-.08-.581-.24-.752a1.249 1.249 0 00-.592-.368 6.715 6.715 0 00-1.008-.208l-.4-.064c-.64-.107-1.141-.235-1.504-.384-.363-.149-.635-.357-.816-.624-.181-.277-.272-.656-.272-1.136 0-.864.261-1.477.784-1.84s1.264-.544 2.224-.544c.757 0 1.531.069 2.32.208l.448.08-.032 1.024c-1.152-.171-2.053-.256-2.704-.256-.619 0-1.083.096-1.392.288-.299.192-.448.491-.448.896 0 .288.075.512.224.672a1.4 1.4 0 00.576.336c.245.064.587.133 1.024.208l.4.08c.661.117 1.173.256 1.536.416.363.149.629.368.8.656.181.288.272.688.272 1.2 0 .864-.256 1.499-.768 1.904-.501.395-1.275.592-2.32.592zm8.777-7.12h-1.008V198h1.008v-.72c0-.757.069-1.344.208-1.76.139-.427.363-.725.672-.896.309-.181.736-.272 1.28-.272l1.616.112-.016.992a59.765 59.765 0 00-1.248-.032 5.02 5.02 0 00-.288-.016c-.395 0-.667.16-.816.48-.139.32-.208.789-.208 1.408V198h2.32v1.04h-2.32V206h-1.2v-6.96zm7.892 7.12c-.853 0-1.53-.139-2.032-.416-.501-.288-.858-.731-1.072-1.328-.213-.597-.32-1.387-.32-2.368 0-1.013.112-1.824.336-2.432.224-.619.587-1.067 1.088-1.344.502-.288 1.168-.432 2-.432.843 0 1.51.144 2 .432.502.288.864.736 1.088 1.344.224.608.336 1.419.336 2.432 0 .981-.106 1.771-.32 2.368-.213.597-.57 1.04-1.072 1.328-.49.277-1.168.416-2.032.416zm.016-1.04c.587 0 1.035-.096 1.344-.288.31-.203.523-.517.64-.944.128-.437.192-1.051.192-1.84 0-.832-.064-1.472-.192-1.92-.128-.448-.346-.768-.656-.96-.309-.192-.752-.288-1.328-.288-.576 0-1.024.096-1.344.288-.309.192-.533.512-.672.96-.128.448-.192 1.088-.192 1.92 0 .779.059 1.387.176 1.824.128.437.347.757.656.96.32.192.779.288 1.376.288zm5.365-7.12h1.184v1.088a8.002 8.002 0 012.928-1.264v1.216a9.43 9.43 0 00-1.36.4c-.48.171-.864.331-1.152.48l-.4.208V206h-1.2v-8zm11.751 8h-1.184l-2.272-8h1.2l2 6.96h.528l2.016-6.96h1.2l-3.328 11.552h-1.2l1.04-3.552zm7.962.16c-.853 0-1.531-.139-2.032-.416-.501-.288-.859-.731-1.072-1.328-.213-.597-.32-1.387-.32-2.368 0-1.013.112-1.824.336-2.432.224-.619.587-1.067 1.088-1.344.501-.288 1.168-.432 2-.432.843 0 1.509.144 2 .432.501.288.864.736 1.088 1.344.224.608.336 1.419.336 2.432 0 .981-.107 1.771-.32 2.368-.213.597-.571 1.04-1.072 1.328-.491.277-1.168.416-2.032.416zm.016-1.04c.587 0 1.035-.096 1.344-.288.309-.203.523-.517.64-.944.128-.437.192-1.051.192-1.84 0-.832-.064-1.472-.192-1.92-.128-.448-.347-.768-.656-.96-.309-.192-.752-.288-1.328-.288-.576 0-1.024.096-1.344.288-.309.192-.533.512-.672.96-.128.448-.192 1.088-.192 1.92 0 .779.059 1.387.176 1.824.128.437.347.757.656.96.32.192.779.288 1.376.288zm7.861 1.04c-.683 0-1.211-.123-1.584-.368-.363-.256-.619-.667-.768-1.232-.149-.565-.224-1.36-.224-2.384V198h1.2v4.16c0 .8.043 1.403.128 1.808s.24.693.464.864c.224.171.571.256 1.04.256.725 0 1.472-.197 2.24-.592V198h1.2v8h-1.2v-.56a5.999 5.999 0 01-1.216.56c-.373.107-.8.16-1.28.16zm6.004-8.16h1.184v1.088a7.987 7.987 0 012.928-1.264v1.216a9.43 9.43 0 00-1.36.4c-.48.171-.864.331-1.152.48l-.4.208V206h-1.2v-8zm11.591 8.176c-.544 0-.971-.085-1.28-.256-.299-.181-.517-.48-.656-.896-.128-.427-.192-1.019-.192-1.776v-4.208h-1.136V198h1.136v-2.448h1.184V198h2.544v1.04h-2.544v3.824c0 .597.021 1.045.064 1.344.043.288.144.512.304.672.171.149.432.224.784.224l1.424-.096.08.992c-.757.117-1.328.176-1.712.176zm4.809-.016c-.736 0-1.296-.208-1.68-.624-.384-.416-.576-1.013-.576-1.792 0-.768.192-1.339.576-1.712.395-.373 1.019-.603 1.872-.688l2.512-.24v-.688c0-1.013-.437-1.52-1.312-1.52-.864 0-1.914.069-3.152.208l-.048-.912c1.142-.235 2.182-.352 3.12-.352.907 0 1.563.208 1.968.624.416.405.624 1.056.624 1.952v4.096c.032.395.342.629.928.704l-.048.944c-.842 0-1.477-.213-1.904-.64a6.958 6.958 0 01-2.88.64zm.192-1.008c.715 0 1.43-.123 2.144-.368l.368-.128v-2.64l-2.368.224c-.48.043-.826.181-1.04.416-.213.235-.32.576-.32 1.024 0 .981.406 1.472 1.216 1.472zm8.672.992a20.83 20.83 0 01-2.144-.112l-.448-.048v-11.472h1.184v3.888c.832-.373 1.643-.56 2.432-.56.704 0 1.259.139 1.664.416.405.267.699.699.88 1.296.192.597.288 1.397.288 2.4 0 1.099-.117 1.947-.352 2.544s-.629 1.024-1.184 1.28c-.544.245-1.317.368-2.32.368zm.128-1.056c.672 0 1.189-.101 1.552-.304.363-.213.613-.544.752-.992.139-.448.208-1.072.208-1.872 0-.757-.059-1.349-.176-1.776-.117-.437-.315-.752-.592-.944-.267-.192-.64-.288-1.12-.288-.587 0-1.307.155-2.16.464v5.632c.768.053 1.28.08 1.536.08zm5.798-10.576h1.2V206h-1.2v-11.488zm6.505 11.648c-1.216 0-2.08-.315-2.592-.944-.501-.64-.752-1.643-.752-3.008 0-1.483.272-2.581.816-3.296.544-.715 1.398-1.072 2.56-1.072 1.067 0 1.862.309 2.384.928.534.608.8 1.547.8 2.816l-.064.912h-5.28c0 .661.07 1.179.208 1.552.15.373.395.645.736.816.352.16.838.24 1.456.24.31 0 .667-.005 1.072-.016.406-.021.774-.048 1.104-.08l.464-.048.032.944c-1.184.171-2.165.256-2.944.256zm2.016-4.624c0-.971-.154-1.659-.464-2.064-.309-.416-.816-.624-1.52-.624-.736 0-1.28.219-1.632.656-.352.427-.533 1.104-.544 2.032h4.16zm5.93-3.536h1.2l1.616 6.96h.256l1.904-6.8h1.248l1.904 6.8h.272l1.6-6.96h1.2l-1.904 8h-2l-1.696-6.256-1.696 6.256h-2l-1.904-8zm12.844 0h1.184v8h-1.184v-8zm0-3.2h1.184v1.392h-1.184V194.8zm3.58-.288h1.2V206h-1.2v-11.488zm3.703 0h1.2V206h-1.2v-11.488zM26.896 230.16c-.736 0-1.296-.208-1.68-.624-.384-.416-.576-1.013-.576-1.792 0-.768.192-1.339.576-1.712.395-.373 1.019-.603 1.872-.688l2.512-.24v-.688c0-1.013-.437-1.52-1.312-1.52-.864 0-1.915.069-3.152.208l-.048-.912c1.141-.235 2.181-.352 3.12-.352.907 0 1.563.208 1.968.624.416.405.624 1.056.624 1.952v4.096c.032.395.341.629.928.704l-.048.944c-.843 0-1.477-.213-1.904-.64a6.96 6.96 0 01-2.88.64zm.192-1.008c.715 0 1.43-.123 2.144-.368l.368-.128v-2.64l-2.368.224c-.48.043-.827.181-1.04.416-.213.235-.32.576-.32 1.024 0 .981.405 1.472 1.216 1.472zm6.08-7.152h1.184v.576a5.605 5.605 0 011.2-.544 4.02 4.02 0 011.248-.192c.992 0 1.712.331 2.16.992.458.651.688 1.691.688 3.12 0 1.013-.118 1.829-.352 2.448-.235.608-.608 1.056-1.12 1.344-.512.277-1.2.416-2.064.416a8.584 8.584 0 01-1.744-.176v3.568h-1.2V222zm2.96 7.12c.832 0 1.424-.245 1.776-.736.352-.491.528-1.285.528-2.384 0-1.088-.155-1.872-.464-2.352-.299-.491-.758-.736-1.376-.736-.31 0-.646.053-1.008.16a6.019 6.019 0 00-.912.32l-.304.16v5.392c.789.117 1.376.176 1.76.176zm5.477-7.12h1.184v.576a5.605 5.605 0 011.2-.544 4.02 4.02 0 011.248-.192c.992 0 1.712.331 2.16.992.459.651.688 1.691.688 3.12 0 1.013-.117 1.829-.352 2.448-.234.608-.608 1.056-1.12 1.344-.512.277-1.2.416-2.064.416a8.584 8.584 0 01-1.744-.176v3.568h-1.2V222zm2.96 7.12c.832 0 1.424-.245 1.776-.736.352-.491.528-1.285.528-2.384 0-1.088-.154-1.872-.464-2.352-.299-.491-.757-.736-1.376-.736-.31 0-.645.053-1.008.16a6.019 6.019 0 00-.912.32l-.304.16v5.392c.79.117 1.376.176 1.76.176zm8.47 1.04c-1.216 0-2.08-.315-2.592-.944-.502-.64-.752-1.643-.752-3.008 0-1.483.272-2.581.816-3.296.544-.715 1.397-1.072 2.56-1.072 1.066 0 1.861.309 2.384.928.533.608.8 1.547.8 2.816l-.064.912h-5.28c0 .661.069 1.179.208 1.552a1.5 1.5 0 00.736.816c.352.16.837.24 1.456.24.309 0 .666-.005 1.072-.016.405-.021.773-.048 1.104-.08l.464-.048.032.944c-1.184.171-2.166.256-2.944.256zm2.016-4.624c0-.971-.155-1.659-.464-2.064-.31-.416-.816-.624-1.52-.624-.736 0-1.28.219-1.632.656-.352.427-.534 1.104-.544 2.032h4.16zm4.814 4.624c-.736 0-1.296-.208-1.68-.624-.384-.416-.576-1.013-.576-1.792 0-.768.192-1.339.576-1.712.394-.373 1.018-.603 1.872-.688l2.512-.24v-.688c0-1.013-.438-1.52-1.312-1.52-.864 0-1.915.069-3.152.208l-.048-.912c1.141-.235 2.181-.352 3.12-.352.906 0 1.562.208 1.968.624.416.405.624 1.056.624 1.952v4.096c.032.395.341.629.928.704l-.048.944c-.843 0-1.478-.213-1.904-.64-.95.427-1.91.64-2.88.64zm.192-1.008c.714 0 1.43-.123 2.144-.368l.368-.128v-2.64l-2.368.224c-.48.043-.827.181-1.04.416-.214.235-.32.576-.32 1.024 0 .981.405 1.472 1.216 1.472zm6.08-7.152h1.183v1.088a7.992 7.992 0 012.928-1.264v1.216c-.416.085-.869.219-1.36.4-.48.171-.864.331-1.152.48l-.4.208V230h-1.2v-8zm4.576 6.176h1.312V230h-1.312v-1.824z" fill="#FAFAFA"/><g filter="url(#filter0_d)"><rect x="24" y="509" width="325" height="38" rx="19" fill="#fff"/></g><path d="M143.446 533.168c-.728 0-1.62-.112-2.674-.336l-.504-.098.196-1.498c1.25.168 2.207.252 2.87.252.989 0 1.484-.411 1.484-1.232 0-.336-.131-.583-.392-.742-.262-.159-.7-.327-1.316-.504-.738-.205-1.321-.434-1.75-.686-.42-.252-.728-.551-.924-.896-.187-.345-.28-.775-.28-1.288 0-.933.284-1.638.854-2.114.569-.476 1.367-.714 2.394-.714.401 0 .816.028 1.246.084a30.46 30.46 0 011.89.294l-.154 1.526c-1.279-.149-2.208-.224-2.786-.224-1.018 0-1.526.336-1.526 1.008 0 .233.084.425.252.574.168.149.378.275.63.378.252.093.676.233 1.274.42.644.205 1.143.42 1.498.644.354.224.611.504.77.84.158.327.238.751.238 1.274 0 .98-.299 1.731-.896 2.254-.588.523-1.386.784-2.394.784zm8.483 0c-1.008 0-1.783-.177-2.324-.532-.541-.355-.915-.877-1.12-1.568-.196-.7-.294-1.629-.294-2.786 0-1.269.107-2.259.322-2.968.224-.709.593-1.218 1.106-1.526.513-.317 1.232-.476 2.156-.476.849 0 1.797.126 2.842.378l-.056 1.54c-.924-.14-1.675-.21-2.254-.21-.588 0-1.031.093-1.33.28-.299.187-.509.495-.63.924-.112.42-.168 1.017-.168 1.792v.518c.019.803.075 1.405.168 1.806.103.392.299.677.588.854.289.177.733.266 1.33.266.635 0 1.4-.065 2.296-.196l.042 1.582c-1.017.215-1.909.322-2.674.322zm9.366-1.89h-3.332l-.378 1.722h-1.932l2.142-9.52h3.668l2.142 9.52h-1.932l-.378-1.722zm-1.33-6.202h-.672l-.966 4.522h2.604l-.966-4.522zm12.817-1.596V533h-3.178l-2.38-7.84h-.14V533h-1.932v-9.52h3.262l2.296 7.84h.14v-7.84h1.932zm9.858 9.646c-.094.028-.299.042-.616.042-.971 0-1.746-.173-2.324-.518-.57-.345-.985-.873-1.246-1.582-.252-.709-.378-1.638-.378-2.786 0-1.148.126-2.081.378-2.8.261-.728.681-1.269 1.26-1.624.578-.364 1.348-.546 2.31-.546.961 0 1.731.182 2.31.546.578.355.994.896 1.246 1.624.261.728.392 1.666.392 2.814 0 2.072-.49 3.467-1.47 4.186l1.162 1.876-1.764.826-1.26-2.058zm-.616-1.638c.504 0 .896-.103 1.176-.308.289-.215.49-.551.602-1.008.121-.457.182-1.083.182-1.876 0-.793-.061-1.428-.182-1.904-.122-.476-.327-.826-.616-1.05-.28-.233-.668-.35-1.162-.35-.495 0-.887.117-1.176.35-.28.224-.481.574-.602 1.05-.122.476-.182 1.111-.182 1.904 0 .737.051 1.335.154 1.792.102.448.294.793.574 1.036.289.243.7.364 1.232.364zm5.884-8.008h3.696c2.24 0 3.36 1.045 3.36 3.136 0 1.241-.466 2.156-1.4 2.744l1.358 3.64h-2.114l-1.106-3.192h-1.862V533h-1.932v-9.52zm3.724 4.676c.439 0 .775-.135 1.008-.406.234-.28.35-.653.35-1.12 0-.467-.121-.831-.364-1.092-.242-.271-.583-.406-1.022-.406h-1.764v3.024h1.792zm11.954 5.012c-1.008 0-1.782-.177-2.324-.532-.541-.355-.914-.877-1.12-1.568-.196-.7-.294-1.629-.294-2.786 0-1.269.108-2.259.322-2.968.224-.709.593-1.218 1.106-1.526.514-.317 1.232-.476 2.156-.476.85 0 1.797.126 2.842.378l-.056 1.54c-.924-.14-1.675-.21-2.254-.21-.588 0-1.031.093-1.33.28-.298.187-.508.495-.63.924-.112.42-.168 1.017-.168 1.792v.518c.019.803.075 1.405.168 1.806.103.392.299.677.588.854.29.177.733.266 1.33.266.635 0 1.4-.065 2.296-.196l.042 1.582c-1.017.215-1.908.322-2.674.322zm7.968 0c-.962 0-1.732-.173-2.31-.518-.579-.345-.999-.873-1.26-1.582-.252-.719-.378-1.647-.378-2.786 0-1.148.126-2.081.378-2.8.261-.728.681-1.269 1.26-1.624.578-.364 1.348-.546 2.31-.546.961 0 1.731.182 2.31.546.578.355.994.896 1.246 1.624.261.719.392 1.652.392 2.8 0 1.12-.126 2.035-.378 2.744-.243.709-.654 1.246-1.232 1.61-.579.355-1.358.532-2.338.532zm0-1.68c.504 0 .896-.103 1.176-.308.289-.215.49-.551.602-1.008.121-.467.182-1.097.182-1.89 0-.793-.061-1.423-.182-1.89-.122-.476-.327-.826-.616-1.05-.28-.233-.668-.35-1.162-.35-.495 0-.887.117-1.176.35-.28.224-.481.574-.602 1.05-.122.467-.182 1.097-.182 1.89 0 .737.051 1.335.154 1.792.102.457.294.807.574 1.05.289.243.7.364 1.232.364zm9.091-8.008c1.082 0 1.913.154 2.492.462.578.299.98.775 1.204 1.428.233.653.35 1.559.35 2.716 0 1.204-.112 2.156-.336 2.856-.224.7-.63 1.218-1.218 1.554-.579.336-1.41.504-2.492.504h-3.206v-9.52h3.206zm0 7.84c.606 0 1.054-.121 1.344-.364.298-.243.49-.588.574-1.036.093-.457.14-1.106.14-1.946 0-.747-.047-1.311-.14-1.694-.094-.383-.285-.663-.574-.84-.29-.187-.738-.28-1.344-.28h-1.274v6.16h1.274zm7.933-6.16v2.226h3.388v1.652h-3.388v2.282h4.228V533h-6.16v-9.52h6.16v1.68h-4.228z" fill="#42399D"/><g filter="url(#filter1_d)"><rect x="24" y="354" width="325" height="38" rx="19" fill="#fff"/></g><path d="M160.805 378.168c-1.008 0-1.783-.177-2.324-.532-.541-.355-.915-.877-1.12-1.568-.196-.7-.294-1.629-.294-2.786 0-1.269.107-2.259.322-2.968.224-.709.593-1.218 1.106-1.526.513-.317 1.232-.476 2.156-.476.849 0 1.797.126 2.842.378l-.056 1.54c-.924-.14-1.675-.21-2.254-.21-.588 0-1.031.093-1.33.28-.299.187-.509.495-.63.924-.112.42-.168 1.017-.168 1.792v.518c.019.803.075 1.405.168 1.806.103.392.299.677.588.854.289.177.733.266 1.33.266.635 0 1.4-.065 2.296-.196l.042 1.582c-1.017.215-1.909.322-2.674.322zm7.968 0c-.962 0-1.732-.173-2.31-.518-.579-.345-.999-.873-1.26-1.582-.252-.719-.378-1.647-.378-2.786 0-1.148.126-2.081.378-2.8.261-.728.681-1.269 1.26-1.624.578-.364 1.348-.546 2.31-.546.961 0 1.731.182 2.31.546.578.355.994.896 1.246 1.624.261.719.392 1.652.392 2.8 0 1.12-.126 2.035-.378 2.744-.243.709-.654 1.246-1.232 1.61-.579.355-1.358.532-2.338.532zm0-1.68c.504 0 .896-.103 1.176-.308.289-.215.49-.551.602-1.008.121-.467.182-1.097.182-1.89 0-.793-.061-1.423-.182-1.89-.122-.476-.327-.826-.616-1.05-.28-.233-.668-.35-1.162-.35-.495 0-.887.117-1.176.35-.28.224-.481.574-.602 1.05-.122.467-.182 1.097-.182 1.89 0 .737.051 1.335.154 1.792.102.457.294.807.574 1.05.289.243.7.364 1.232.364zm13.514-8.008V378h-3.178l-2.38-7.84h-.14V378h-1.932v-9.52h3.262l2.296 7.84h.14v-7.84h1.932zm4.289 1.68v2.8h3.388v1.68h-3.388V378h-1.932v-9.52h6.076v1.68h-4.144zm5.786-1.68h1.932V378h-1.932v-9.52zm4.286 0h3.696c2.24 0 3.36 1.045 3.36 3.136 0 1.241-.467 2.156-1.4 2.744l1.358 3.64h-2.114l-1.106-3.192h-1.862V378h-1.932v-9.52zm3.724 4.676c.438 0 .774-.135 1.008-.406.233-.28.35-.653.35-1.12 0-.467-.122-.831-.364-1.092-.243-.271-.584-.406-1.022-.406h-1.764v3.024h1.792zm15.177-4.676V378h-1.932v-7.364h-.21l-1.862 6.944h-1.932l-1.862-6.944h-.21V378h-1.932v-9.52h3.29l1.68 6.93 1.68-6.93h3.29z" fill="#42399D"/><path d="M40.616 308.032h-3.408v-1.104h8v1.104h-3.376V318h-1.216v-9.968zM48.184 318H47l-2.272-8h1.2l2 6.96h.528l2.016-6.96h1.2l-3.328 11.552h-1.2l1.04-3.552zm5.03-8h1.184v.576a5.605 5.605 0 011.2-.544 4.02 4.02 0 011.248-.192c.993 0 1.713.331 2.16.992.46.651.688 1.691.688 3.12 0 1.013-.117 1.829-.352 2.448-.234.608-.608 1.056-1.12 1.344-.511.277-1.2.416-2.064.416a8.584 8.584 0 01-1.744-.176v3.568h-1.2V310zm2.96 7.12c.833 0 1.425-.245 1.776-.736.352-.491.528-1.285.528-2.384 0-1.088-.154-1.872-.464-2.352-.298-.491-.757-.736-1.376-.736-.309 0-.645.053-1.008.16a6.019 6.019 0 00-.912.32l-.304.16v5.392c.79.117 1.377.176 1.76.176zm8.47 1.04c-1.216 0-2.08-.315-2.592-.944-.501-.64-.752-1.643-.752-3.008 0-1.483.272-2.581.816-3.296.544-.715 1.397-1.072 2.56-1.072 1.067 0 1.861.309 2.384.928.533.608.8 1.547.8 2.816l-.064.912h-5.28c0 .661.07 1.179.208 1.552a1.5 1.5 0 00.736.816c.352.16.837.24 1.456.24.31 0 .667-.005 1.072-.016a24.9 24.9 0 001.104-.08l.464-.048.032.944c-1.184.171-2.165.256-2.944.256zm2.016-4.624c0-.971-.155-1.659-.464-2.064-.31-.416-.816-.624-1.52-.624-.736 0-1.28.219-1.632.656-.352.427-.533 1.104-.544 2.032h4.16zm9.13 4.64c-.544 0-.97-.085-1.28-.256-.299-.181-.518-.48-.656-.896-.128-.427-.192-1.019-.192-1.776v-4.208h-1.136V310h1.136v-2.448h1.184V310h2.544v1.04h-2.544v3.824c0 .597.021 1.045.064 1.344.042.288.144.512.304.672.17.149.432.224.784.224l1.424-.096.08.992c-.758.117-1.328.176-1.712.176zm4.81-.016c-.737 0-1.297-.208-1.68-.624-.385-.416-.577-1.013-.577-1.792 0-.768.192-1.339.576-1.712.395-.373 1.019-.603 1.872-.688l2.512-.24v-.688c0-1.013-.437-1.52-1.312-1.52-.864 0-1.915.069-3.152.208l-.048-.912c1.142-.235 2.181-.352 3.12-.352.907 0 1.563.208 1.968.624.416.405.624 1.056.624 1.952v4.096c.032.395.341.629.928.704l-.048.944c-.843 0-1.477-.213-1.904-.64a6.96 6.96 0 01-2.88.64zm.191-1.008c.715 0 1.43-.123 2.144-.368l.368-.128v-2.64l-2.368.224c-.48.043-.826.181-1.04.416-.213.235-.32.576-.32 1.024 0 .981.406 1.472 1.216 1.472zm8.672.992c-.704 0-1.419-.037-2.144-.112l-.448-.048v-11.472h1.184v3.888c.832-.373 1.642-.56 2.432-.56.704 0 1.258.139 1.664.416.405.267.698.699.88 1.296.192.597.288 1.397.288 2.4 0 1.099-.118 1.947-.352 2.544-.235.597-.63 1.024-1.184 1.28-.544.245-1.318.368-2.32.368zm.128-1.056c.672 0 1.19-.101 1.552-.304.362-.213.613-.544.752-.992.138-.448.208-1.072.208-1.872 0-.757-.059-1.349-.176-1.776-.118-.437-.315-.752-.592-.944-.267-.192-.64-.288-1.12-.288-.587 0-1.307.155-2.16.464v5.632c.768.053 1.28.08 1.536.08zm5.798-10.576h1.2V318h-1.2v-11.488zm6.505 11.648c-1.216 0-2.08-.315-2.592-.944-.501-.64-.752-1.643-.752-3.008 0-1.483.272-2.581.816-3.296.544-.715 1.397-1.072 2.56-1.072 1.067 0 1.861.309 2.384.928.533.608.8 1.547.8 2.816l-.064.912h-5.28c0 .661.07 1.179.208 1.552a1.5 1.5 0 00.736.816c.352.16.837.24 1.456.24.309 0 .667-.005 1.072-.016.405-.021.773-.048 1.104-.08l.464-.048.032.944c-1.184.171-2.165.256-2.944.256zm2.016-4.624c0-.971-.155-1.659-.464-2.064-.309-.416-.816-.624-1.52-.624-.736 0-1.28.219-1.632.656-.352.427-.533 1.104-.544 2.032h4.16zm6.586-3.536h1.184v.56a5.95 5.95 0 011.312-.56c.405-.107.826-.16 1.264-.16.682 0 1.21.128 1.584.384.373.256.634.667.784 1.232.16.555.24 1.328.24 2.32V318h-1.184v-4.192c0-.757-.048-1.339-.144-1.744-.086-.405-.246-.699-.48-.88-.235-.181-.576-.272-1.024-.272-.363 0-.736.048-1.12.144a4.104 4.104 0 00-.912.304l-.304.144V318h-1.2v-8zm11.09 8.16c-.683 0-1.211-.123-1.584-.368-.363-.256-.619-.667-.768-1.232-.15-.565-.224-1.36-.224-2.384V310h1.2v4.16c0 .8.042 1.403.128 1.808.085.405.24.693.464.864.224.171.57.256 1.04.256.725 0 1.472-.197 2.24-.592V310h1.2v8h-1.2v-.56a6.023 6.023 0 01-1.216.56c-.374.107-.8.16-1.28.16zm6.004-8.16h1.184v.56c.8-.48 1.6-.72 2.4-.72.437 0 .832.069 1.184.208.352.128.629.331.832.608a5.7 5.7 0 011.392-.576 5.646 5.646 0 011.632-.24c.65 0 1.157.133 1.52.4.362.256.618.667.768 1.232.16.565.24 1.333.24 2.304V318h-1.2v-4.192c0-.757-.043-1.339-.128-1.744-.086-.405-.246-.699-.48-.88-.224-.181-.56-.272-1.008-.272-.363 0-.731.048-1.104.144a4.104 4.104 0 00-.912.304l-.304.144c.138.341.208 1.12.208 2.336V318h-1.2v-4.128c0-.789-.043-1.387-.128-1.792-.086-.416-.24-.715-.464-.896-.224-.181-.56-.272-1.008-.272-.352 0-.71.048-1.072.144a3.798 3.798 0 00-.88.304l-.273.144V318h-1.199v-8zm15.967 8.144a20.83 20.83 0 01-2.144-.112l-.448-.048v-11.472h1.184v3.888c.832-.373 1.642-.56 2.432-.56.704 0 1.258.139 1.664.416.405.267.698.699.88 1.296.192.597.288 1.397.288 2.4 0 1.099-.118 1.947-.352 2.544-.235.597-.63 1.024-1.184 1.28-.544.245-1.318.368-2.32.368zm.128-1.056c.672 0 1.189-.101 1.552-.304.362-.213.613-.544.752-.992.138-.448.208-1.072.208-1.872 0-.757-.059-1.349-.176-1.776-.118-.437-.315-.752-.592-.944-.267-.192-.64-.288-1.12-.288-.587 0-1.307.155-2.16.464v5.632c.768.053 1.28.08 1.536.08zm8.693 1.072c-1.216 0-2.08-.315-2.592-.944-.501-.64-.752-1.643-.752-3.008 0-1.483.272-2.581.816-3.296.544-.715 1.398-1.072 2.56-1.072 1.067 0 1.862.309 2.384.928.534.608.8 1.547.8 2.816l-.064.912h-5.28c0 .661.07 1.179.208 1.552.15.373.395.645.736.816.352.16.838.24 1.456.24.31 0 .667-.005 1.072-.016.406-.021.774-.048 1.104-.08l.464-.048.032.944c-1.184.171-2.165.256-2.944.256zm2.016-4.624c0-.971-.154-1.659-.464-2.064-.309-.416-.816-.624-1.52-.624-.736 0-1.28.219-1.632.656-.352.427-.533 1.104-.544 2.032h4.16zm3.071-3.536h1.184v1.088a7.987 7.987 0 012.928-1.264v1.216c-.416.085-.87.219-1.36.4-.48.171-.864.331-1.152.48l-.401.208V318h-1.199v-8zm4.576 6.176h1.312V318h-1.312v-1.824zm3.453 0h1.312V318h-1.312v-1.824zm3.453 0h1.312V318h-1.312v-1.824z" fill="#E0E0E0"/><rect x="24.5" y="294.5" width="324" height="35" rx="4.5" stroke="#fff"/><path d="M180.296 458.16c-1.099 0-1.968-.197-2.608-.592-.64-.395-1.099-.997-1.376-1.808-.267-.821-.4-1.904-.4-3.248 0-1.333.139-2.416.416-3.248.277-.843.736-1.467 1.376-1.872.64-.416 1.499-.624 2.576-.624s1.936.208 2.576.624c.64.405 1.099 1.029 1.376 1.872.288.832.432 1.925.432 3.28 0 1.355-.139 2.437-.416 3.248-.267.811-.72 1.408-1.36 1.792-.629.384-1.493.576-2.592.576zm0-1.088c.811 0 1.435-.149 1.872-.448.448-.299.763-.768.944-1.408.181-.651.272-1.541.272-2.672 0-1.131-.096-2.032-.288-2.704-.181-.672-.496-1.168-.944-1.488-.448-.331-1.072-.496-1.872-.496s-1.424.16-1.872.48c-.448.32-.768.816-.96 1.488-.181.672-.272 1.568-.272 2.688s.091 2.011.272 2.672c.181.651.496 1.131.944 1.44.459.299 1.093.448 1.904.448zm6.627-10.144h4.096c1.184 0 2.069.277 2.656.832.586.544.88 1.387.88 2.528 0 1.717-.678 2.789-2.032 3.216l2.128 4.496h-1.36l-2-4.24h-3.136V458h-1.232v-11.072zm4.112 5.744c1.504 0 2.256-.779 2.256-2.336 0-1.547-.758-2.32-2.272-2.32h-2.864v4.656h2.88z" fill="#FAFAFA"/><path stroke="#fff" d="M24 452.5h130M219 452.5h130"/><defs><filter id="filter0_d" x="18" y="505" width="337" height="50" filterUnits="userSpaceOnUse" color-interpolation-filters="sRGB"><feFlood flood-opacity="0" result="BackgroundImageFix"/><feColorMatrix in="SourceAlpha" values="0 0 0 0 0 0 0 0 0 0 0 0 0 0 0 0 0 0 127 0"/><feOffset dy="2"/><feGaussianBlur stdDeviation="3"/><feColorMatrix values="0 0 0 0 0.25098 0 0 0 0 0.258824 0 0 0 0 0.34902 0 0 0 0.21 0"/><feBlend in2="BackgroundImageFix" result="effect1_dropShadow"/><feBlend in="SourceGraphic" in2="effect1_dropShadow" result="shape"/></filter><filter id="filter1_d" x="18" y="350" width="337" height="50" filterUnits="userSpaceOnUse" color-interpolation-filters="sRGB"><feFlood flood-opacity="0" result="BackgroundImageFix"/><feColorMatrix in="SourceAlpha" values="0 0 0 0 0 0 0 0 0 0 0 0 0 0 0 0 0 0 127 0"/><feOffset dy="2"/><feGaussianBlur stdDeviation="3"/><feColorMatrix values="0 0 0 0 0.25098 0 0 0 0 0.258824 0 0 0 0 0.34902 0 0 0 0.21 0"/><feBlend in2="BackgroundImageFix" result="effect1_dropShadow"/><feBlend in="SourceGraphic" in2="effect1_dropShadow" result="shape"/></filter><linearGradient id="paint0_linear" x1="187.5" y1="0" x2="187.5" y2="812" gradientUnits="userSpaceOnUse"><stop stop-color="#583FA6"/><stop offset=".495" stop-color="#563EA5"/><stop offset="1" stop-color="#323597"/></linearGradient></defs></svg>