<?xml version="1.0" standalone="no"?>
<!DOCTYPE svg PUBLIC "-//W3C//DTD SVG 20010904//EN"
 "http://www.w3.org/TR/2001/REC-SVG-20010904/DTD/svg10.dtd">
<svg version="1.0" xmlns="http://www.w3.org/2000/svg"
 width="700.000000pt" height="700.000000pt" viewBox="0 0 700.000000 700.000000"
 preserveAspectRatio="xMidYMid meet">
<metadata>
Created by potrace 1.14, written by Peter Selinger 2001-2017
</metadata>
<g transform="translate(0.000000,700.000000) scale(0.100000,-0.100000)"
fill="#000000" stroke="none">
<path d="M3278 6996 c-1 -2 -42 -6 -89 -10 -47 -4 -95 -8 -105 -10 -10 -2 -41
-7 -69 -10 -53 -7 -143 -22 -185 -32 -14 -3 -38 -7 -55 -10 -120 -20 -498
-137 -599 -185 -22 -11 -44 -19 -48 -19 -18 0 -328 -159 -433 -222 -249 -149
-481 -333 -694 -551 -100 -104 -90 -92 -166 -183 -109 -130 -180 -226 -255
-344 -29 -47 -63 -101 -75 -120 -26 -41 -145 -261 -145 -268 0 -3 -16 -39 -36
-81 -50 -105 -105 -246 -153 -390 -54 -162 -82 -273 -126 -506 -10 -53 -25
-148 -32 -215 -5 -36 -8 -896 -8 -1911 0 -1557 2 -1850 14 -1872 19 -35 83
-60 133 -52 35 6 86 54 490 456 248 247 459 454 470 460 22 12 41 2 104 -58
64 -60 113 -101 194 -162 41 -31 77 -58 80 -61 10 -11 177 -118 245 -157 315
-182 778 -355 1115 -418 128 -24 131 -25 340 -51 82 -10 492 -12 595 -3 93 9
172 17 215 24 137 22 171 27 210 36 25 6 56 13 70 15 48 9 216 55 310 86 491
159 985 473 1405 893 264 264 429 486 594 796 167 316 312 755 366 1109 4 25
9 53 11 63 2 10 6 46 9 80 4 34 9 76 12 92 8 51 11 517 3 585 -5 36 -11 97
-14 135 -4 39 -8 81 -11 95 -32 194 -54 283 -102 415 -51 142 -125 319 -200
475 -52 111 -63 141 -59 170 3 19 8 55 11 80 3 25 12 101 20 170 8 69 17 143
20 165 3 22 7 63 10 90 3 28 8 66 11 85 2 19 7 51 9 70 2 19 7 62 10 95 8 69
10 87 19 172 4 34 8 70 10 80 2 10 7 50 10 88 4 39 11 99 16 135 8 56 22 185
22 200 1 26 -4 41 -18 55 -15 15 -73 16 -663 10 -355 -4 -702 -8 -771 -9
l-125 -3 -160 77 c-88 42 -180 85 -205 95 -25 10 -58 23 -75 30 -96 41 -390
131 -490 150 -141 28 -242 45 -310 54 -44 6 -100 13 -125 16 -47 7 -546 16
-552 11z"/>
</g>
</svg>
